<?xml version="1.0" encoding="UTF-8"?>
<svg id="_圖層_1" data-name="圖層 1" xmlns="http://www.w3.org/2000/svg" viewBox="0 0 48 48">
  <defs>
    <style>
      .cls-1 {
        fill-rule: evenodd;
      }

      .cls-1, .cls-2 {
        fill: #888;
      }
    </style>
  </defs>
  <path class="cls-1" d="m11.13,34.69c-.63.63-.63,1.67,0,2.3.63.63,1.67.63,2.3,0l10.36-10.36,10.8,10.8c.63.63,1.67.63,2.3,0,.63-.63.63-1.67,0-2.3l-10.78-10.78,11.44-11.47c.63-.63.63-1.67,0-2.3-.63-.63-1.67-.63-2.3,0l-11.46,11.46-11.04-11.04c-.63-.63-1.67-.63-2.3,0-.63.63-.63,1.67,0,2.3l11.04,11.04-10.36,10.36Z"/>
  <path class="cls-2" d="m24,47.82C10.87,47.82.18,37.13.18,24S10.87.18,24,.18s23.82,10.68,23.82,23.82-10.68,23.82-23.82,23.82Zm0-45.13C12.25,2.68,2.68,12.25,2.68,24s9.56,21.32,21.32,21.32,21.32-9.56,21.32-21.32S35.75,2.68,24,2.68Z"/>
</svg>