<?xml version="1.0" encoding="UTF-8"?>
<svg id="_圖層_1" data-name="圖層 1" xmlns="http://www.w3.org/2000/svg" viewBox="0 0 20 19.83">
  <defs>
    <style>
      .cls-1 {
        fill: #888;
        fill-rule: evenodd;
      }
    </style>
  </defs>
  <path class="cls-1" d="m.82,17.54c-.45.45-.45,1.19,0,1.64.45.45,1.19.45,1.64,0l7.39-7.39,7.7,7.7c.45.45,1.19.45,1.64,0,.45-.45.45-1.19,0-1.64l-7.69-7.69L19.66,1.98c.45-.45.45-1.19,0-1.64-.45-.45-1.19-.45-1.64,0l-8.17,8.17L1.98.64C1.53.19.79.19.34.64c-.45.45-.45,1.19,0,1.64l7.87,7.87L.82,17.54Z"/>
</svg>