<svg xmlns="http://www.w3.org/2000/svg" id="_圖層_1" data-name="圖層 1" viewBox="0 0 344 251"><defs><style>.cls-1{fill:#e6dcb7}.cls-2{fill:#e1d4a5}.cls-3{fill:#fefefb}.cls-4{fill:#fdfdfa}.cls-5{fill:#fcfaf5}.cls-6{fill:#f9f8ee}.cls-7{fill:#fdfdf9}.cls-8{fill:#f4efdf}.cls-9{fill:#f6f2e4}.cls-10{fill:#f2eedb}.cls-11{fill:#f7f3e7}.cls-12{fill:#f4f0df}.cls-13{fill:#f4f0e0}.cls-14{fill:#f0ead5}.cls-15{fill:#ebe3c6}.cls-16{fill:#e2d6aa}.cls-17{fill:#f0e9d4}.cls-18{fill:#faf9f1}.cls-19{fill:#decf9d}.cls-20{fill:#ede4ce}.cls-21{fill:#fbfaf3}.cls-22{fill:#efe9d2}.cls-23{fill:#f8f6eb}.cls-24{fill:#fefefd}.cls-25{fill:#f7f4e8}</style></defs><path d="M266 31v1l3 6v13h-1v-1l-2 1 2 1 1 2 1 3v7l-4 10-4 5-1 1-3-2 2-5-1 1-1 2-2 2v2h-3l-2 3-2 1-3 1 3-3 1-1 2-2-2 1 1-1 4-8 5-10 3-5 1-1 2-2c-3 1-5 5-7 7l1-7-1 1-2 2c1 2-1 2-1 2v-1c1-2 3-4 2-7v-1h-1l-2 2 1-4 1-2 1-3 3-6v-3l1-2h4Z" class="cls-11"/><path d="M152 221v-2h-1 8v1h-7Z" class="cls-6"/><path d="M11 109h-1v-2h1v2Z" class="cls-12"/><path d="m77 85 1-2V70l2-8 4-3 3 2c3 3 4 7 6 11l1 2 1 1 1 2h1l2 3v-6l1 1h1v-1l2-5 3-5 2-1-4 8c-1 1-2 3-1 5 2 2 1 5 1 8l1 1v-7l1-1v6l1 1v-1l1-2 1-2v-2c2-1 2-1 2 1v2l1 6h1v-5l1 1v-4l1-3 1-1 1 1h1l5-7 3-3c1-2 3-2 5-2h3c1 0 2 1 1 2l-1 9-1 5 1 1 1 4v3l7-8 7-7 1-1v1l-3 4-3 3-8 8-1 2-1-1v-4l-1-2h-3l-2 3-3 3-3 1v-3l-1-1v1l-1 1-4 4-5 9-1 11-1-1v-2l1-7c1-3-1-6-2-9l-2-4-3-3c0-2 0-3-2-4h-2l-2 3v3l-1 1-1 5v6l1 4h-1l-1-2-8-15-2-2c-1-1-2-1-1-3l7 9c0-3-2-5-1-8 1 0 3 3 3 5l-1 1 1 1 1 4h-1l-1-3-1 2 2 3h1v-8l-1-3c-2-2-1-4-2-6 2 0 2 2 3 2v-2l-1-4-2-5-1-4-3-4c-1-1-2-2-3-1-2 1-3 3-3 5-2 4-2 8-2 13l1 3 1-2 1 1-3 6v7l2 8c1 4 3 7 7 10l1-1v-1l1 1h1l1 1h-1c-2 1-4 2-4 4v9h-2l1-2c0-2 0-5-2-8l2 1c1-2 1-2-1-4l-7-5-9-12-4-5 3 3 5 7 4 2-1-2h-1l-3-5v-3l1-2 1 2 2 1-1-2-1-4h1l1 2h1v-3Zm48-4 1 1 1 3 1-1 3-3 1-2 1-5 1-8v-1h-3c-2-1-4 0-5 1l-6 8-5 9v6l1-3v3h1l1-2 2-2c0-2-1-3 1-4l1-1 2 2h-1l-2 2 3 2 1-6Zm-15 4-2 3v2l1 1v-1l1-4v-1Zm2 9v-7 7Zm-32 7h-1l1 2v-2Zm-2 2v-2h-1l1 2Z" class="cls-15"/><path d="M11 109v-2c1-2 3-1 4-1l9 3 12 6 13 5 1 1h-2l-8-3-14-7c-4-2-8-4-13-4l-2 1 2 3c3 4 6 9 10 12l9 5 11 5 3 1-1-1-1-2-2-4h-1c-2 1-3-1-4-1l1-2-2-4s0-1 0 0l2-1v-1l6 2v1l3 2 4 1 11 5h1v-1l-3-1-3-2-2-2h-3v-1l1-1-2-1-7-9-10-11-3-7-2-8v-3c0-2 2-2 3-1l9 6c3 1 4 3 6 5l9 7-2-6-1-8-1-3c0-2 1-2 2-3l3 1 3 2h1l-2-5v-8c1-3 2-3 4-3h1v1c-2 0-3 0-3 2l-1 7 1 5c1 2 1 5 3 6l1 2-6-5-4-3h-1l-1 2 2 7v2l1 2 1 4h1l4 8 5 8 9 8 4 3v2l-5-4h-2l-1-2v-1l-3-3-10-11-14-11c-2-2-5-4-9-4h-1l-1 1 1 1 2 4 3 6c1 2 1 4 3 5a147 147 0 0 0 18 18l12 7 7 1h2l1 1h-5l-6-1-12-5-12-5-8-3-2-1 1 2c1 4 4 6 6 9 3 3 6 6 9 7l10 4 10 1 1 2-1 1h1l1 2-4-2v-1h-1l-1 2c-1-2-3-2-4-2h-3v-1h5l-3-1c-3 1-5 0-8-2l-1-1c-1 0-3 0-5-2h-4c0-1 0-2-2-2l-1-1-2-1-12-6-11-8c-4-3-6-7-8-11Zm22-23h1l1 1c2 1 2 3 4 3l7 4 7 6h1l-1-1-3-3c-3-4-6-7-10-9l-7-5-2-1-1 2 1 2 1 2-1 2 1 2 2 6 1 2 1-2-2-4c0-1-1-2 1-3v-2l-2-2Zm4 4h-1 1Z" class="cls-15"/><path d="M261 33v2l-3 7-1 3-1 2-1 3 2-1h1v1c1 3-1 5-2 7v1c0-1 2-1 1-2l2-3h1l-1 7 7-8-2 3-1 1-3 5-5 9-4 8-1 1h2l-2 2h-1l-3 4 3-1 2-1-1 2v-1l-7 4c-3 3-5 6-6 11-1 1-1 1 1 1l-1 2 2 2 1-1 1-1-1 6-2-2-2 2 2-1-1 4-1 3h-1l1-5c-2 0-1-2-2-2l1-1c1-1 2-2 1-3l-1-2-1-1h-2v-1l1-1-1-1 1-6-1-5h1l2 5v1l1 3v-5h1l2 1c1-1 2-2 1-4l1-3a98 98 0 0 0-1-9l-2-6c-1-4-2-7-5-10l-3-2v-2h-1l-1 2-1-2h1l1-2v-1h-2c0-1 0-2 2-2l1 1 1 3v2l2 2 2 1 1-2-1-5-2-4-6-9c-2-2-3-4-5-4h-3v-1c2 0 5 0 7 2l6 9 2 1 1 1 1 4 1 1h2v-5h2l1 5h1c0-1-1-4 1-5l1 1 1-1 1-3-2-4c0-2-1-4-3-5v-1l4 5 2 5v2l1-1 1-1v6l1-2 2-1 1-1 5-10 2-4Zm-19 27-2-5 1 2v2c-1 1 0 1 1 1v2l-2 7c-1 4 1 9 2 13v5h1l2-1 2-4 6-10 1-1v-8l-1-1v1h-1v-4c0-2-1-4-3-5v-2l2 2v-1l-2-2-3 3c1 1 0 2-1 3l-2 3h-1Zm-3 3v-5l-1-1 1 6Zm0-9-1-1-1 1 1 1 1-1Z" class="cls-14"/><path d="m227 56 2 2-1 4c-2 2-3 5-3 8h-1l2-8v-3l-5-7h-2l-1 1v11l2 4 1 2v1l-4-5-1-1h-1l1 2v7l1 1-3 5-3-4-5-5-5-4c-2 0-3-2-5-1l-1-1-2 1 1 1-1 3 3 7 1 4 7 8 4 4-4-1-6-2-1 1-1-2 5 2h2l-1-2-6-9-11-11-6-3-2-1-1 3 3 6 2 1v1l-2 2-1-1-4-2h-1v1l2 2-2-1v2l3 4c0 1 1 2 2 1l-1 2-1-2-4-5-1-3c0-1 0-2 2-2h5v-1l-3-6c0-2 1-3 3-3l4 2 6 4 1 1-8-18c3-2 6-1 9 1l11 10 1 1-1-3-2-14v-4l1 2v2l2 11 1 5 2 5 2 2-1-4v-5l1 1 1 4 1 1v-1l-1-2 1-1h1v3h1v-4c-1-1-2-2-1-3v-1h1l2 4 1 1h3l-1-2-2-2 1-1 1 1h1v-1l-3-3-5-5-6-7-1-1h-3 5l6 7 3 3 2 2 1 1v-2l1-3 1-2-2-12c0-2 0-2 3-2l-1 1v1l-1 5 1 6 2 3 3 3h1l1-3h1v3l1 1Zm-26 11 1-1-2-1-3-3-6-5-4-3-4-1-1 2v1l3 4 2 6 5 6v-6l3-2 3 1 3 2Zm13 3c0 1 0 0 0 0l-1-2h-1l-1 1h1l1 1h1Z" class="cls-17"/><path d="M199 44h5l6 7 4 5 3 3v1h-1l-1-1v1l1 2 2 2h-3l-2-1-2-4h-1v1l1 3v4h-1v-3h-1v4l-1-1-1-4-1-1v5l1 4-2-2-2-5-1-5-2-11v-2s1-2-1-2Z" class="cls-25"/><path d="m135 90 1-2 8-9 3-3 3-3v-1c4-1 4 0 4 4l-5 1c-2 0-2 0-2 3v4l1 7 1 7-2 2-2 2v-1l1-2 1-1v-4l-1-1c-2 1-1 2-1 3l-1 2h-1l1-3v-1l-1 1h-1l-1 1-1-1h1l1-5v-1h-1l-1 1-2 5h-1l-1 1h-1v-2l2-3v-2h-1l-1 1Z" class="cls-12"/><path d="m243 35 2 5 2 5-1 2v2l-1-1c-2 1-2 3-2 5l-1-1-1-4v-1h-1l-1 2v3h-2v-1l-2-4-1-1h-1l2-1 1 1 1 3 1 1v-3l-1-2-1-2 3-9c2-1 3 0 4 1Z" class="cls-11"/><path d="M109 77v2l-1 2-1 2v1l-1-1v-6l-1 2v6l-1-1c0-3 1-6-1-8-1-2 0-3 1-5l4-8 1-1h2l2 4 1 4 1 1-2 3c-2 0-1-2-1-3l-2-2v3l-1 5Z" class="cls-8"/><path d="m177 86 1-2 1-6 2-2h1l1-1-2 3-3 12 1 2h2l1 1v8h-1l-2-5-1-2-1 1v-9Z" class="cls-16"/><path d="M48 121h2l1-1 2 1-1 1v1h3l2 2 3 2 3 2-1 1-11-6-4-1-3-1v-2l3 1h1Z" class="cls-10"/><path d="m177 87-1 8-2-2-3-2v-2l1-3 3 1h2Z" class="cls-25"/><path d="M176 87h-1l-3-1v-2l-2 5-3-3v-3h3v-1h2l1 1c-1 1 0 2 1 2l2 2Z" class="cls-17"/><path d="m162 80 3-1 3 2v2h-4v-1l-2-2Z" class="cls-10"/><path d="m239 34-3 9 1 2 1 2v3l-1-1-1-3-1-1 2-10 2-1Z" class="cls-22"/><path d="M64 67v-1l1 1c4 6 6 11 8 17l1 2v1l-1-2-3-7-6-11Z" class="cls-1"/><path d="m113 74 2-2v4c-1 0-2 1-2 3h-1v-1l1-4Z" class="cls-15"/><path d="m162 80 2 2-1 1v-1l-8-5v-1l7 4Z" class="cls-16"/><path d="M112 78v1h1c0-2 1-3 2-3l-1 3v2l-1 1-2-1v-3h1Z" class="cls-8"/><path d="m75 86-2-2c1 0 3-1 3 1h1v3h-1l-1-2Z" class="cls-14"/><path d="m115 72-1-2-1-4-1-4 1 2 2 7Z" class="cls-1"/><path d="M155 76v1l-6 1v-1l5-1h1Z" class="cls-19"/><path d="M168 83v-2l2 1v1h-2ZM235 114h1l2 1-1 3v3h2v-4l1-2 2 2v8l-3 5-2 1c2 0 8-6 9-9h1l-4 6a411 411 0 0 1-12 14l-10 7v5h1l2-1 1-1 2-1 4-4h1l-2 3-3 2-3 1-3 4 2-1-1 3-1 5v1h2l8-7v1l-7 6c-3 2-4 4-3 7l11-7-10 8 7-3 14-11 9-11 3-4 2-4 3-4 4-9 1-3h1l1-2 1-1h1l-3 11 10-10 1 1-3 3-2 1-1 1-2 4 4-2 3-4 6-4 1-1 2-1 2-1 1 1-3 2-15 12-5 4-16 17-4 5h-1l-6 6c-2 2-4 5-8 5l-2 1-4 2-1 2-2 1c-1-1-2 0-3 1l5 1 1-1 4-1h-1l-4 3h-4 1v2h-1l-2 1-2 2h-1l9-4 2-1 1 1v1l1-1 2-1 4-2v2l-4 2c-1 0-2 0-2 2l3-2 5-1h1l12-3 14-10 14-12 7-8 7-11 8-16 1-2-1 4-1 3v2l-2 3h1c1-3 4-4 4-7l2-5 1-5 2 1a52 52 0 0 1-15 27l-6 7-11 13-1 1v1l5-2 17-7 8-3 14-7 8-4 7-1c3 0 4 2 3 4l-3 6-8 11c-5 5-11 9-17 12l-21 10-1 1h5l15 1 10 1c4 1 7 1 10 3l2 2v1h-1l-12-4-10-1-7-1h-16l-1 1 1 1v2h-1l-1-2c-2-1-3 1-4 1l-2 2-1 1c1 0 2-1 2 1h-2l-1-1h1l-2 1-6 1 8 1h3v1h-10l-3 1-2 1-9-1v1l11 1h10-4l-5-1 1-1c4 0 8-1 12 1l4 1h1c1 2 2 2 4 2h3v2l-8-1h-4v1h-2l-7-2h-9l-7-1h-3l1 2c-1-1-2-1-3 1l-2-4v2h-4v-1h1l-1-1h-1l1 1-1 1v1l6 2h1l2 1h4l-1-1 2 1 5 1 2 1v1h-2l-15-4c-4-1-7-2-8-1l4 1 4 1c6 2 12 4 18 4v2l-9-1-14-5h-2c-2-1-2-1-4 1l-4 5-4 2-5 2-5 1h-8c-5 0-9 0-12-3l-12-10-1-1h-1l-4 4-4 4c-2 3-4 6-8 8l-4 1h-2v-1c3-1 6-2 8-5h-1l2-1 3-2 6-8v-1c-1 1-3 0-4 2h-1v-1l-2 1h-2l1-1h-5l-2-1-3-1h-3l-2 2h1l1 1 1-1 1 3h-1l-1-1v1l-3 2 2 2v1l-1-1c-3-1-5-1-8 1l-4 3-1 1v1l-1-1-1 1c-1 0-2-1-2-3l7-12 1-1-2-1-18-1-16-2-10-3h-1c-3-2-6-2-10-2l-14-2c-8-1-16-4-23-7l-5-2-2-2 1-3c2-2 5-2 7-2l8-1-5-3-4-7h1l2 2 5 5a150 150 0 0 0 31 16h2l3 1h2l7 2 1 1 5 1c1 1 3 2 5 1l-1-1c2 0 3 0 3 2h7l1-1h1l6 2 3 1-1 1-2-1-11-1h-4l-7-2-2-1-2 1h-1l-17-7h-1v1l7 4 3 1 12 4 1-1 13 3 13 1h8l-6-3-6-3v-1l7 3 7 3h1l6 2h3l-10-3-3-2-10-4-8-2v-1l-1-1-11-5-3-2-11-7-8-5-13-8-6-5v-2h1l1 1 10 8 3 2v-1l-5-7 1-1 1 1c2 3 3 6 6 8v1l7 5 4 3c1 2 4 3 6 4l3 2 7 3 9 4 11 3h4l-1-1v-1c1 3 4 2 6 4 0-3-3-4-3-7l2 3v-2l-1-5-8-6-3-2h-4l-2-1-4-2-10-3-9-6v-2l4 2 2 1 5 3 9 4h3l-6-7-2-4-4-6h2v1c2 5 6 9 10 13l9 7 4 2v1l2 2v-8l1-3c1-2 5-4 8-2l3 1v-1l-1-1-4-5-7-10 1-1h5l1 2v3l5 10 2 2 4 5v-1l-3-5-6-12c2 0 2 1 3 2l2 1v-1l-2-1v-1l3 1-1 1 3 3v-1l1-1v-5h1v1l1 6 1 2v2l3 5 3 3v1l-1-1-2-2-1-1c-1 2 2 3 2 5h3v1h-2l1 3h4v3l-3-2c1 2 4 5 5 4l-1-1v-2l-1-3-1-1 1-1h1v2l1 2h1v-1l-1-1v-4h1l1 1v3l2 4-1 2 1-2v-1c3-1 3-2 2-4l3-2 2-2 1-1v-1l1-2v-4h1v3c2 0 3-1 4-3l2-4 1-1 5-8c2-3 4-5 5-9l1-2v-12l-1-8v5h-1l-1-7h3l3 1c0 2 0 2 2 1-1 2 0 3-2 4v4l1 1v1l1 1 1-1h1l-8 16-2 5-3 5-5 6v1l5-3 2-1h3l-1-1 1-2h3l2-2 2-4h1l1 1-1 2 3 1 2 1h1l5-4c3-5 5-9 6-14 2-5 2-9 2-13 2 0 3-1 3-3Zm-41 73h1l2-3 3-3h1l-2 3-9 9-3 2v1l7-5 6-6 5-7 3-7c1 0 1 0 0 0l-4 9-1 2 4-1-3 2-2 1-2 2-1 1-1 1c-1 1-2 1-2 3l-2 1-2 2h-1l1 1 3-2 3-2 3-3 5-4 2-2h1l-1 1v1l-1 1h-1l-1 2-2 3-8 6 4-1c4-2 8-5 11-9l4-4 3-7v-3c2-5 2-10 2-15 0-3-1-6-4-7l-1-1 3 5-1-2c-1-2-2-3-4-3l-4 2-14 8-8 6-5 8-2 8 1 1h1v3l1 2 1 1c-1 1 0 2 1 3v1l-1 3 1-1 8-6 2-1Zm-110-1v-1h-3v-1h-1l-1-1-1 1h-1v-3h-2l-4-2-2-1-4-3-7-2h-7l-7 3-1 1h1l4 1c6 2 11 5 17 6v1h-2l1 1 8 1 4 1 10 1h5l-3-2-1-1h-3Zm113 17-4-1 4 3 1 2 1 1-3-2-4-1-2-1 1 1v3l3 2h11l-3-3h1l2 2h4v-2c2 1 3 1 5-1h1v-2l-8-4h-1l2 2v1l-3-1c1-2 0-2-2-2v-1h-6v1l1 2v1h-1Zm-34-6 1 1 4-1h1l2 1v-1l-3-2-2-2 2 1h1c0 2 3 3 4 2l-1-1 1-1 1 1v-2l1 1 1 1h1l-1-1-1-1v-2l2 1v-2l1 1h1v-1l-1-1h-1l2-1c-1-2 0-4-2-6l-10-9-1-1v1l5 5 3 2-2-1h-1l-1-1a70 70 0 0 0-22-16l-4 1 1 1v1l-1-1-1 1h1l2 5-1-1-2-3 1 13 1 2c1 4 4 7 7 10l1 1 1 1v-3l1 1 4 4c0 2 2 2 3 2h1Zm52-7-1 1-11 3h5l3 1h5l9 1h20l16-4 12-5c4-2 7-5 10-9l7-11 1-1v-2l1-1v-1l-1 1-5 2h-1l-6 3-4 1-17 8-10 4-18 3-8 2-2 1h-2l-2 1h2l7 1h-2l-8 1Zm3 23 5-2c3-1 5-3 6-5l2-4c1-1 2-3 1-4l-1-1-6 2-8 7-6 4-6 2c-2 0-3 0-4 2l-1 1h1l5-2h3l8-3-5 3 5 1 2-1Zm-70-14h-1l-1 1c-3 2-5 5-7 9l-1 4 2-1a191 191 0 0 0 8-6l4-5 1-2h-4Zm140-26-1 2-2 4c-2 1-4 2-4 4h1l9-5 9-4a70 70 0 0 0 25-18l7-11 1-2-1-1h-5l-11 4-8 4-4 3-3 1-5 2-3 1-13 5-7 2-2 1v1h1l14-5 7-3 2 2v3h-1v2l-1 2-2 3c-2 0-2 1-3 3Zm-34 3h1l11-5 8-3 12-5h-1l-6 1-15 6h-2l-6 5-2 1Zm-105 18c-1-2-10-5-12-4l12 4Zm75 4h-9l4 2h3l2-3Zm14-73h-1v2c1 2 1 3-1 4-2 0-3 3-3 4l1-1 1-2h1l3-4-1-3Zm-24 76v1l2 1 1 1 2-1-1-1h-4Zm22-78-2 7c3-2 2-5 2-7Zm-84 80-4 4c1 1 4-2 4-4Zm77-67h1l2-1v-2h-1l-1 1v2Zm-15 63c-2-1-3-2-5-1l5 1Zm1-10-4 1 4-1Zm17-50h-4c2 2 3 2 4 0Zm-10 46 4-1c-1-1-2-1-4 1Zm-13-59h1v-2l-1 2Z" class="cls-1"/><path d="M256 80v-2l2-2 1-3h1l-2 5 3 2 1-1 4-5 4-10v-8l-1-2-1-2-2-1 2-1v1l1-1V38c-1-2-1-5-3-6v-1l2 3c2 5 3 10 2 16v2l2 3c0-1 1-2 2-1l2-4 5-11 1-1c0-1 1-2 2-1 3 0 3 1 4 4l-1 10v1l2-2 3-1c1 1 3 2 2 4v3a475 475 0 0 1-3 12l2-1 9-8 4-3 5-4 2-1c1-1 3-1 3 1v3c-1 6-2 11-6 15l-4 6-7 8-4 4c-1 0-2 1-1 2l-1 1-1 1-9 5v1l1-1c2-1 5-1 7-3l9-3 3-3h6l-1 3v2h1l-2 1h-2v-1l2-3v-1h-1l-3 1-10 5-7 3-14 4h-1l-5-2 2-1 2 2c3 0 5 0 7-2l11-6 7-6a357 357 0 0 0 11-14l1-4 4-6c0-1 0-2-2-2h-2c-4 1-6 4-10 6l-3 3 1-2 4-3 6-4 4-3 2-1 1-2 1 1-1 1-2 2v1c2 1 1 3 0 5l-1 3v1l2-2 3-6c0-1 1-3-1-4l2-4-1-1-1 1-2 2-10 6-8 7v2h1l-1 1-9 9-5 6-4 3-1 1 2-1-2 2-2 2-3 1-4 2-1 1-1 1h-3v-2l1-10c-1-3-2-5-5-6Zm9 14h1l5-3 7-5 9-13 3-7 1-2 1-2 1-5v-6l-4 2-6 6-8 10-6 7-5 5-1 2 1 2-1 5v3l2 1Zm22-49v-5l-3-2-1 1-1 1-6 13-3 8v1l1-1v-1h1l1 1v3c-1 2-1 4-4 5v1c2 0 3-2 4-3l8-10 1-2 2-10Z" class="cls-17"/><path d="m298 88 9-3 5-3 6-3 8-3 6-2c2 0 3 2 2 4l-5 7-8 7-15 8-2 1 1 1c-2-1-2 0-3 1l-4 2-3 1-2 1-4 2-3 1h-4l-1 1h4l2 1-1 1-1-1h-6l-1 1-1-1h-4l-1 2h-1v-4c11 0 21-2 29-10l1 2 2-1 7-3 9-5c3-3 7-5 9-9l5-6v-2h-1c-4 0-7 1-10 3l-9 4-13 5h-2Z" class="cls-17"/><path d="m286 113 1-1 4-2 7-4 3-3c1-1 2-2 4-1h1l1 2-1 10-1 1h-2v-5l2-3-1-2 1-1h-1l-4 5h2v1l-4 4-1 2 1 1v1-1h1l1 2h-5l-7 1-1-1 2-1h1l4-3 6-6 4-6-2 2c-2 1-2 3-5 4l-3 2-4 2-4 3-3 2-6 5-1-1 4-4 4-3 2-2Zm8 4v1l2-1v-1l-2 1ZM287 203v-1h7c5 0 9 0 14-2l6-2 4-1 8-4 1 1-2 1c-3 0-5 2-7 3l-10 4-3 1h-18Z" class="cls-16"/><path d="m307 104-1-2h1l12 1 8 2 1 1 1 2-2 1-3 1c-3 2-7 4-11 4l-7 1v-1h7l1-1 6-2 4-1 3-2h1v-2l-4-1h-5l-9-2-3 1Z" class="cls-14"/><path d="M298 88h2l1 1 2-1-3 3-9 3-6 3-2 1v-1l10-5 1-1v-1l2-2h2Z" class="cls-9"/><path d="m281 205 4 1 1 2-2 2h-7v-1l1-1h6l-1-1h-3l-1-1 1-1h1Z" class="cls-1"/><path d="M277 209v1l-16 1h-1v-1h11l6-1ZM281 205h-2l-5-2 7 2ZM326 192v-1l1 1-1 1v-1Z" class="cls-16"/><path d="M326 193h1v1l-1-1v-1ZM48 154c3 0 6 1 8 3l9 6 10 6h1l-1-1-9-12v-1l6 7c3 5 7 8 12 11v1h-1l1 1 9 4 6 2-1 1-2-1-3-2-10-4-2-1-1 1-3-3-3-1-1-1-13-8-4-4-8-4Z" class="cls-1"/><path d="m46 149 3-2h-4l-6 1h-8l-5-2-1-1h-1 2c2 1 4 2 6 1h15l4-2 1 1 1-1h3v1h-2l1 1h3l-3 1-6 2h-3Z" class="cls-20"/><path d="M46 149h1l2-1 1 2h6l6-1 1 4h-3l-11-1h-5l-1-1 1-2h2Z" class="cls-22"/><path d="M24 145h1l1 1-3-1-6-3c-2-1-2-1-1-3l5-2 12-2h8l-1 1h-4l-9 1-8 2c-1 0-2 0-3 2l1 1 7 3Z" class="cls-15"/><path d="m62 153-1-4 1-2 5 1 2 1 2 2-1 1-4-2-2-1v2l3 4h-1l-3-2Z" class="cls-2"/><path d="M137 216v-1l4 1 8 2-1 1-4-1-4-1-3-2Z" class="cls-16"/><path d="M48 154v3l3 5h-2l-2-5v-2l1-1Z" class="cls-2"/><path d="m148 219 1-1h5v1h-6Z" class="cls-19"/><path d="m40 136 1-1h3l1 1h-5Z" class="cls-22"/><path d="M44 135h-2v-1l2 1Z" class="cls-13"/><path d="M150 219Z" class="cls-6"/><path d="M148 219h1-1ZM271 110v4l-1 1-1 6h-1l1-5-1 1h-1l2-5v-6c1-2-1-3-3-2l-6 4-3 3-4 4-6 7h-1v-1l1-1 1-1 4-4 2-3 2-3v-1c2-5 3-9 3-14v-7l-1-4-4-2-1 2-7 13-3 8-1 2-4 8h-2c-1-1 0-2 1-3l1-4-2 2 2-3 2 2 1-6 1-2 4-7 4-8 1-2 2-3 1-1 1 1h1c3 0 5 3 5 6v12l-1 2-2 5h1l1-1 5-4h1l5 2v8Zm-5-8c1 1 3 2 4 1-1-1-3-2-4-1Z" class="cls-16"/><path d="M255 80h-1 1Z" class="cls-17"/><path d="M154 219v-1h3v1h-3Z" class="cls-16"/><path d="m103 156-1 1-1-1-11-8-7-6-4-2-2 1 1 2v2l2 5 2 2-2 1-3-4-1-1-1-2v-1l-1-2c0-3 1-5 4-5l6 2 1 1h1l-3-6-1-1-1-4v-2l-1-1v-1l1-1 4-1h2l17 11 1 1-4-7-9-18-1-1-2-5 6-1h1c5 1 9 4 13 7l1 1 5 4 2 2 1 1 2 2 4 4v-1h1c1 3 2 5 4 6 0 2 1 3 3 3l-1-1-2-4v-8l1 1c1 0 2 0 2 2l1 3 2 4h1-1c-1-3-2-5-1-7v-1l1 2 1 2 3 6h1v-1l-3-4c0-1 0-2 2-2l4 3v-5c2-1 4 0 5 2l-1-3-2-3-2-2 1-2 2 1 1 1h1c0-1 0-3-2-4l1-1v-6c0-1 0-3 2-4l1-2-1-2-1-7a161 161 0 0 1-2-11c0-3 1-3 3-3v1l-1 1h5-1l-2 1-1 1v9l2 7h-1l1 2 1 2c0 1 0 2 2 1l2 3v-1h1c1 4 2 5 3 5v-3c0-2 1-3 3-4h1c-2 1-2 3-1 4v2l1 2 3-2 1 1v-1l-1-1-2-2 1 1-1 1-1-4 3-3 1 1h1l-1 2 2 1v6l2 2h1l-1-5v-5c2 1 4 3 4 5l1 7 1 1v-4l-1-4h3l1 3h1v3h-2l-3 6 1-1 4-1-1 2c0 1 0 2 2 3v-8h2v-2h1v7c2-2 2-4 1-5l-1-2c2-1 4-2 6-1v1l-1 2-2 3-3 5-3 3 3-1-1 1-1 8 1 6h-2v-3l-2-7-1-2c-2-5-5-10-9-13l-3-1c-1-1-1 0-2 1v4l-3 5-1 1-2 11v12h-1l-1-5-3-5-7-10c-1-1-1-2-3-1v1l1 5h-1v3l2 10h-5l-2 1-6-7c-3-4-8-7-12-9l-4-2-3-1-3 1-1 1 1-2-1-1-1 1c0 1-1 2 1 2l1 3v1h-1l-1-3v12h-2l-4-3-9-7-7-5-3-1-3 1v2l2 4c1 5 4 9 7 13h1l2 3 6 5 2 2Zm-16-14-1-1v1Zm13-18 1 4 4 5 3 4h1l-1-2h1l-1-3v-5l1-3h3l3 1 8 3-2-3-10-9-13-9c-2-2-4-1-6-2 0 4 2 7 4 10l2 4 2 3v1Zm55-17-2-3c-1-1-4 0-4 1l-1 8 1 4 1 8v1l1 1 2 4 4 5 1 1v-3l2-6 2-8v-6l-6-6v-1Zm-15 21c0 3 1 4 3 6 0-3-1-5-3-6Zm36-12v-1l-1-3-1-4-1 2 2 4 1 2Zm-6-4c-1-2-2-2-3-2v2h3Zm-33 27 3 2c0-2-1-2-3-2Zm5-3-3-1c0 2 1 2 3 1Zm3 5v-1l-1-1h-1l2 2Zm16-31c1 1 1 2 2 1l-1-1Z" class="cls-2"/><path d="M85 124c-2-1-3 0-4 1l-1 1-5-4-8-8-5-8-4-7-1-1c0-1 0-3-2-4v-3l-2-7 1-3h1l4 3 6 6 4 5a69 69 0 0 0 16 17c2 1 2 2 1 3h-2c2 2 1 5 2 7l-1 2Z" class="cls-13"/><path d="M96 104h-1l-5 1 1 5h-1l-1-1-1 2h-1c-3-2-5-6-7-10l-2-8v-7l4-6h-1l-1 1-1-3 1-13 4-5c1-1 2 0 3 1l2 4 2 5 2 5 1 3v2c-1 0-1-2-3-2l1 6 2 3-1 1-1-1c0-2-1-4-3-5l1 8-7-9 1 3 2 2 8 15 2 3Z" class="cls-8"/><path d="M109 111c-4-3-8-6-13-7v-1l-1-3v-6c1-1 2-1 2-3a442 442 0 0 1 0-7l2-3h3l2 4 2 4 2 4c2 3 3 5 3 9l-2 7v2ZM64 67l6 11 3 8 1 1 1 3v3l-1-2-1-1-1 1v4l2 4 2 1 1 1c-1-1-3 0-4-2l-6-7-2-2-1-3c-2-1-2-3-3-6l-1-5 1-7c0-1 1-2 3-2Z" class="cls-12"/><path d="M115 84c1-4 2-7 5-10l6-8c1-1 3-2 5-1h3v1h-1v8l-1 5-1 2-3 3-1 1-1-3-1-1-4-2-2 2h-2l-1 3h-1Z" class="cls-13"/><path d="m117 118-2-2-5-4 2-12c1-3 2-6 5-9l3-3 1-2h1v3c-2 0-2 1-3 2v1c-1 5 0 10 1 14l-2 6-1 6Z" class="cls-8"/><path d="m92 112 9 17 4 7-1-1-17-11v-9c0-2 1-3 3-3h2Z" class="cls-12"/><path d="m135 90 1-1h1v1c-2 0-3 0-3 2v1l-1 3-4-4-1-1-1-1-2-1 3-4 2-3h3l1 2v5l1 1Z" class="cls-10"/><path d="M115 84h1v1l1 1v-1l1-4q2 0 2-2l5 2-1 5-3-2 1-2h1l-1-2-1 1c-2 1-1 3-1 4l-2 2-1 2-1 1v-4c-2 1-1 2-1 3v-5Z" class="cls-14"/><path d="M112 78h-1c0-2 0-2-2-1l1-5v-3l2 2 1 3-1 4Z" class="cls-10"/><path d="m92 87 1 2v1c2 2 1 4 1 6h-2l-1-3 1-3 1 3v-3l-1-2v-1Z" class="cls-22"/><path d="m125 89 2 1 1 2h-1l-1-1-2-1h-2c-2 0-2 1-2 2l-1 1v-2c1-1 1-2 3-2h3Z" class="cls-19"/><path d="m111 81 2 1v4l-1 1-1-7Z" class="cls-10"/><path d="M97 88v3c0 2-1 2-2 3l1-5 1-1Z" class="cls-22"/><path d="M110 85v1l-1 4v1l-1-1v-2l2-4Z" class="cls-8"/><path d="M112 94v-7 7ZM80 101v2l-1-2h1Z" class="cls-10"/><path d="m78 103-1-1 1-1v2Z" class="cls-12"/><path d="m113 82 1-1v1h-1Z" class="cls-10"/><path d="m81 130 1 4h-2l-7-1c-4-1-9-4-12-7a89 89 0 0 1-19-18l-2-5-3-6-2-4 1-2c4 0 7 2 9 4 5 4 10 7 14 12l10 10 3 3v1l1 2h2l5 4 1 1h-3l3 2Zm-6 0v-2l-2 1h2v1l4 3 2 1v-1l-1-1-2-1-3-2Zm-30-24a714 714 0 0 1 0 0Zm20 18h-1 1l4 3h1l1-1h-2l-3-2h-2Zm12 4v-1c-1-1-2-2-3-1l3 2Zm-17-7 4 3v-1l-4-3Zm-1 0 1-1-3-2h-1l4 3Zm-3-4v1l-3-3 3 2Zm-12-12h1l-2-1 1 1Zm-1-2-1-1v1Z" class="cls-13"/><path d="m83 135 3 6-2-1-6-2c-3 0-4 2-4 5l-10-1-10-4c-4-1-6-4-9-7-2-2-5-5-6-9l-1-1v-1l2 1 8 3 11 5 12 5 7 1h5Z" class="cls-12"/><path d="M48 121h-1l-3-1-6-1-2 1 2 4-1 2c1 0 2 2 3 1l1 1 3 3 1 2 1 1h-3l-11-6-9-5c-4-3-7-8-10-12l-2-3 2-1c5 0 9 2 13 4a135 135 0 0 0 22 10Z" class="cls-12"/><path d="m69 149-2-1-5-1h-1l-3-1h-3l-1-1 2-1h-3l-1 1-2-1-4 2h-2c0-2-1-3-3-2h-1l1-1h2l1-1h8l-2-2h-1l-1 1-2-1h-1l-1 1v-3l1-2 2 2-1 1 2 1v-2h1l2 1 5 2h1c2 2 4 3 7 2 2 0 3 0 3 2h-4l1 1h1c2 0 3-1 4 1l2-2v1h1l4 2-1 1h-6Z" class="cls-22"/><path d="m33 86 2 2-1 2v3l2 3-1 3-2-2-1-6-1-2 1-2c0-1-2-1-1-2l-1-2 1-2 1 1 8 5c4 2 7 5 10 9l3 3 1 1h-1l-7-6-7-4c-2 0-3-2-4-3l-1-1-2-1ZM45 136v3l-1 2-1-1-1 1h-6l-1-1-1-1h-1v-1h3l1-2h8Z" class="cls-10"/><path d="m36 91-1 2-1-1 1-1h1ZM48 139h1v1l-2-1v-1l1 1Z" class="cls-10"/><path d="M75 145v1h-1l1-1Z" class="cls-22"/><path d="m37 91-1-1h1Z" class="cls-10"/><path d="m242 61 1-1 3-3 1-3c-1-1 1-3 2-3l2 2 1 1-2-2-1 1 1 1c2 1 2 3 3 5v3l-1 1h1v-1h1v10l-6 10-3 4-1 1h-1v-1l-1-3-2-14 2-7v-1ZM225 70c0-3 1-6 3-8l1-4h2l2 1c3 3 4 7 6 10l1 6v4l1 5-1 4c1 2 0 3-1 4l-2-1h-1v4l-1-2v-1l-2-6v-1l-3-10-4-4-1-1Z" class="cls-11"/><path d="M226 53v-1h-1v2l-1 1-1-1-3-3-1-3-1-6v-6h1l3-1 5 4 6 9 2 4h-1l-1-1h-1v6l-1-2v-4h-1v-1l-1 1c-2 0-2 1-2 2h-1Z" class="cls-25"/><path d="m235 114-2 3v-5l-2-5-2-2v-2h-2l-3 3 4-1-5 4-2 1 1 1-4 5-5 8-1-1v-1l2-2h-1v-2l-1 1-1 4-1-1v-5l1-4 1-1v2h1v-2h-1v-3c2-2 3-4 3-7 0 1 0 3 2 4l-1 7h-1l-1 1h1v2l2-2 6-8 4-5h3l1 1 1-2h1v4c-1 1 0 2 1 3l2 2v5Z" class="cls-16"/><path d="m250 85-4 8-4 8-1 2-1 1-1 1-2-3 1-2c-2 0-2 0-1-1 1-5 3-8 6-11l7-3Z" class="cls-25"/><path d="M233 86v5l-2-1v-6l-3-8c-1-4-4-6-8-4l1-1v-1h4l1 1 4 4 3 11Z" class="cls-16"/><path d="M232 57v-6h1l1 1h1c1 2 2 3 1 5 0 1 1 2-1 2-1 1-2 0-2-1l-1-1Z" class="cls-8"/><path d="M234 107c-1-1-2-2-1-3v-4l1 1h1l2 2-2 4h-1Z" class="cls-9"/><path d="m231 90 2 1v9h-2V90Z" class="cls-19"/><path d="M226 53h3v1l-1 2-1-1-1-1v-1Z" class="cls-8"/><path d="m239 63-1-7 1 2a77 77 0 0 1 0 5Z" class="cls-11"/><path d="M242 61c-1 0-2-1-1-2l-1-2v-2l2 5v1Z" class="cls-9"/><path d="M231 58h-2v-3h1l1 3Z" class="cls-8"/><path d="m239 54-1 1-1-1 1-1 1 1Z" class="cls-11"/><path d="m229 51 1-1 1 1c-1 1-2 0-2-1Z" class="cls-8"/><path d="M233 99v-1 1ZM193 111v-1h-1l-2-1-4-1-1-1v2l-2-1V98l1-2 1-1 1 3v3l1 1 1 2 2 4v-7l1-4 2 2h-1v9h1V99h1l1-3v-3l-4-11v-1h1l1 2 3 7 1 2v4h1l1-2 1-1 1 1v8h1l1-3 2-2 2 2 1-5 2-2 3-9 1 1v4c-2 1-2 3-3 5v2l-1 1-1 8 1-4h3v2l-2 1h2c0 4-2 7-4 10l-3-1h-3c0-2-2-4-4-6v1h-1v-2l2 1 2 2 2 2-3-6-3-1-1 1-3 4v1h1l-3 3Zm13-7c-2 1-2-1-3-2v1c0 2 0 2 2 2v4c1-1 2-4 1-5Z" class="cls-16"/><path d="m214 82-4 9-2 2-4-4-7-8-2-4h1c1 1 3 2 3 4l2 2-3-6c-2-2-2-4-3-7v-4c2-1 4 1 6 1l5 4 5 5 3 4v2ZM196 89l-2-7-2-2-3-4-3-1c-2-1-4-1-5 1l-2-2-3-6 1-2h2l6 3 11 11 6 9 1 2h-2l-5-2Z" class="cls-25"/><path d="m201 67-3-1-3-1c-1-1-2 0-2 1v6h-1l-5-6-2-6-2-4-1-1 1-2 4 1 5 4 5 5 3 2 2 2h-1Zm-16-10v1l4 5c0-2-2-4-4-6ZM224 70h-3l-1-2-2-4V53l1-1h2l5 7v3l-2 8ZM208 94l-1 4-1-2-2 2-1 3h-1l-1-1v-7l-1-1-1 1-1 2-1-4 1-1 6 2 4 1ZM179 78l-1 6c-1 1-2 0-2-1l-2-4-1-2 2 1-2-2v-1h1l4 2 1 1Zm-2 2h-1 1Zm-1-1h-1 1Z" class="cls-11"/><path d="M220 71v1l-3 4-1-1v-8l-1-2 2 1 3 5Z" class="cls-9"/><path d="M196 66c-2 1-2 3-1 5l3 6 3 6-2-2-2-4h-1l-3-6 1-3 1-2h1Z" class="cls-8"/><path d="m217 76 3-4-3 6h1c-2 0-2 2-2 3l-1 2-1-1v-2l3-4ZM181 76c1-2 3-2 5-1l3 1 3 4h-1c0-1 0-2-2-3l-2-1-4-1-1 1h-1Z" class="cls-19"/><path d="m214 71-1-1-1-1v-1h1l1 2v1ZM195 66l-1 2-1-2 2-1Z" class="cls-25"/><path d="M225 52h1-1ZM226 54v1-1Z" class="cls-14"/><path d="m149 98 1 2h-2l-4 4-2 3-1-1-4-5h-1l-1-1 1-1c1-1 0-3-1-4h2v2l1 1 3-2c0 1 0 2-1 1l-1 1-2 3 3-1c2-2 3-3 3-5h1l-1 3-1 1h1v-1h1l1-2 1-3 1 1v4l-1 1-1 2 2-1 2-3Z" class="cls-15"/><path d="m138 95 2-5 1-1h1v1l-1 4-1 1-2 1v-2Z" class="cls-15"/><path d="M142 95c1 2 0 4-2 5 0 1-2 2-3 1l2-3h1l1-2 1-1Z" class="cls-10"/><path d="m133 96 1-3v-1c1-2 1-2 3-1l-3 3 1 2-1 1-1-1Z" class="cls-15"/><path d="m134 97 1-1v-1c1 1 2 3 1 4v1l-2-3ZM138 95v2l2-2 1 1-3 2-1-1v-2l1-1ZM143 98v1h-1l1-1ZM145 96l-1 2 1-2ZM144 95h-1l1-1v1Z" class="cls-10"/><path d="m183 75 3 1 3 1h-5l-1 1h1v2l-1-1v1l1 9-1 2 1 5-1 2v9h-1c1-2 1-2-1-3h-1v-3l-1-3-1-4 1 2 2 5 1 2V80l-1 1v11h-2l-1-2 3-12 2-3Z" class="cls-4"/><path d="M178 95a46 46 0 0 0 1 7l-1 1v1h3l1 3-1-2h-1v1l-3 1c-1-3-1-5-3-7l-7-12-4-6 1 1h4-1v3l3 3 2-5v1l-1 4v2l2 4h3l2-1Z" class="cls-19"/><path d="m181 92 1-6v-6 13l-1-1Z" class="cls-20"/><path d="M182 101v2l-1-2h1ZM174 95l-1 1-2-5 3 2v2Z" class="cls-22"/><path d="M174 95v-2l2 2h-2Z" class="cls-16"/><path d="m163 83 5 5 7 11 2 8 1 4v4l-1-1-1-7c0-2-2-4-4-5v5l1 4v1h-1l-2-2v-6l-2-1 1-2-2-8-3-6v2h-1c0-1 1-3-1-3l-1 2v1c-2-1-1-2 0-3h-2v2l2 5 1 5 1 4c-2 0-3 1-3 4v3c-1-1-2-1-3-5h-1v1l-2-3c-2 1-2 0-2-1l-1-3v-2l-2-7v-8l1-2h3v-1l-3 1h-2l1-1 6-1c3 0 6 2 8 4v1Zm-4 11 3 7v-2l-2-4-1-1v-3l-2-5-2-5v1l2 7 2 5Zm-8-6c-1 1 4 14 5 15l-5-15Zm2 1c0 1 0 0 0 0l-2-8h-1v1l1 2c0 1 2 3 1 4l1 2Z" class="cls-3"/><path d="m288 120 7-2h2c-1 2 0 2 1 3l-8 16-7 11-7 8a329 329 0 0 1-28 22l-12 3 1-1 5-2 12-8 10-8 10-11 1-2 2-2c3-2 5-6 8-10l4-6 2-3 2-3h1v-1 1l-3 4-14 16-3 3-1 2-12 10c-3 4-7 6-12 9l-10 5-6 4-4 2-2 1v-1l8-4 3-2 1-1 10-6 4-2 1-1 5-3 1-2 4-2 1-1-3 1-2 2-2 2-5 3-9 6-7 4-12 6-2 1v-1l4-3 1-1 6-3 8-5 3-1-1-1-2 2-4 1 2-1 3-3h-2l1-1 2-2 1-1v-2l4-4 16-18 5-4a176 176 0 0 1 18-13Zm-34 41 2-1v-1l-2 2h-1 1Zm-3 2-2 1-4 2v1l6-5h2-1l-1 1Zm9-6-3 1h1l2-1Zm-4 2v1l1-1h-1Zm5-3h-1 1ZM248 123l5-8 4-4 3-3 6-4c2-1 4 0 4 3l-1 5-2 5-1 7-2 3c0 4-2 6-4 9l-2 4-2 2v2l-3 4-10 11-14 11-6 3h-1l10-8a68 68 0 0 0 16-13l-8 6-8 7-11 7c0-3 1-6 3-7l7-6 7-6h-1l-1 2-5 3-8 7h-1v-6h3v-1l1-1 4-3 1-1v1l1 1v-2h1l1 1 4-4v-1l1-2 4-6 1-1h-3l1 1v1l-1-1c-2 0-2 1-3 2a77 77 0 0 1-7 7h-1l2-3h1l7-7v-2l-2 1-1 1-1 1-1 1-2 2-6 4-1 1-3 3-1 1h-1l1-3 9-8 4-3 8-10 5-6Zm-9 29h-1 1v-1 1Zm9-11 4-6 1-1 5-9 1-3 4-8 1-2h-1l-4 9-2 4-2 3-3 7-1 1-3 4v1l-1 1h1v-1Zm-2 3-6 6h1l3-3 2-3 1-1v-1l-1 2Zm12-29c2-2 3-3 3-5-1 1-1 3-3 3v2l-3 2-2 3-5 7-3 5h1l3-4c2 0 3-1 3-3l3-4 2-2 1-2v-2ZM180 182l-1-2 2-7 5-8 8-6 14-8 4-2c2 0 3 1 4 3l1 2c0-2-1-3-3-5h1c2 2 4 4 4 8 0 5 0 10-2 15l-1 1c0 1-1 2-2 1l1-3c2-3 3-5 3-8l-3 8-1 3-5 6-1 1h-1l-4 1 1-2 4-9-3 7-5 7-7 6c-2 1-3 4-6 5v-1l3-2c3-3 6-5 8-9l3-3v-2h-1v1l-7 7-1 1-8 6h-1l1-2 2-2 1-2h1l2-1-2-1 2-1h1l1-1 3-2h-3l3-4 4-5 1-1-1 1h-1l-6 8-2 2h-1v-1l2-2 2-3c3-1 4-4 5-6l-1 1-4 5-7 7-1 1-2 2-1-1 2-3 2-2-1-1-3 3-1 2v-3l1-1-1-1 1-1 2-5h1-1l-3 7h-1Zm21-4v1-1l1-1 1-2c2-1 2-3 3-5l-3 5-1 2-1 1Zm10-20c2 0 2 0 1 1l-1 3h1l1-4-1-2h-1v1l-1 1-1 4 2-5Zm-4 1 1-1 1-1-2 2Zm0 9-1 1h1v-1Z" class="cls-24"/><path d="m225 189-7-1v-1h2l3 1 3-1h11l3-1h-10l-7 1-1-1 8-1 18-4 10-4 17-8 3-1c3 0 5-1 7-3h1l4-2 2-1v1l-1 1-1 2v1l-8 11c-2 4-5 7-9 9l-12 5-16 4h-20l-9-1h-5v-1h30l1-1 4 1 3-1 13-3 4-3 3-1 1-1 5-3h-3l-5 3-8 4h-1c-2-1-3 0-4 1l-5-1h-7l-3 1-14-1Zm55-13 1 1 8-10-9 9Zm-19 5-13 3v1l13-4Zm-14 4h-1 1ZM112 133v-2l-1-2v-1l1-1 3-1 4 3 6 4 7 6v-1l-6-5-1-1h-1l-2-2v-1c5 2 9 5 12 9l7 7 7 10 4 5 1 2-3-1c-4-2-7 0-9 2v3h-2l-2-1-1-1v-2h1v2l2-1-2-1-2-1-1-1-2-1v-1l-5-4-1-2c-3-1-4-3-5-5l-2-2v-1l-4-5-1-1-2-5v-1Zm24 11 2 3 1 2v1h1-1v-1l-1-2-2-3v-1l-1-1v1h1v1Zm-18-2 4 5h1v-1l-4-4-1-1 1-1-4-4v1l1 2 2 2Zm16 0v-1l-1-1v1l1 1Zm-21-9v1h1l-1-1Zm2 2h-1l1 1v-1Zm-2-2ZM164 123l2-6 1-4 1-1 3 2c4 3 7 7 9 12l1 2 2 8 1 3 1 10v10h-1v-1l-1-2-1-7-2-9v-4l-1-2-1-6-1-3-1-5h-1l1 5v1l-1 4v1l1-5 1-1v4l2 7 1 7 1 4 1 7c-1 0-2 0-1-1v-1l-1-2-1-2v-7l-1 1v3l-1-1 1-4v-4h-1v4l-1 2v3h-1l-2-13-1-3v-4h-1l1 4 1 6v4l1 3v5l1 2h-1l-1-1v1l-1 1-1-1v-4l-1-5-1-7v-11l-1-6h-1v1l1 8 1 9 1 6v3l-1 1c0 1-1 2-2 1l-1-1 1-3-1-3v5l-1 1v5l1 2h-1l-1-1h-1c2 1 1 3 3 3l2 1v1c-1 1 0 1 1 2v2h-1l-1-4h-1l-1 1-1-1-3-2-1-6v-13l2-10 1 2c-1 3 0 5 2 8l-1 4 1 4v-12 2l-1-1v-6l-1-3Zm13 7c-1 1-2 6-1 8l1-8ZM199 107v-2c3 2 4 4 5 7v7l1 5v-10h1v22l-6 9-5 7-1 2v-1 1l-2 4-3 2-1-3-1-4v-6l1-2v-8l-1 2v7l-1-1-1-6-1-6 1-8 1-2v-1l3-5 2-4 2 2v-1l1 2-1 1v4l1-1v-2h1v3l1 5-1 2v2h-1v-3l-1-1v5l-1 2-1 2v-4h-1v20l-1 5 1-7 1-1h3v-2c0-2 1-4 3-4s3-1 4-3v-4l1-4c0-2-2-4-1-6h-1v-5l-2-1v-2l1-3h-2v-1c2-1 2 0 2 1v-1l1-3h-1v-3Zm-6 19v-4 4-1Zm-2 0v4-4l1-5v-3l-1 4v4Zm-1 14v-12 2l-1 6v4l1 1v-1Zm12-16v2l1 2v-10l-1 5v1Zm-5 21-3 7h1l2-7Zm-3-19c2-1 1-4 0-4v4Zm11 6v-3 3Z" class="cls-24"/><path d="m213 124 5-8 4-5 3-2v-1l-3 2h-1l2-2 5-3h1l2 2 2 5v3h-1l-1-2-2-5 1 5v1l1 2v6l-1 2v5c-1 5-3 10-6 14l-5 5 1-2v-3l-1-3 2 1v-1l-1-1h-1v5l-1-2-1 1h-2l4-7 1-3 1-2 1-1v-4h1c0-1 2-3 1-5l1-1 1-2v-2l-1-2-1 2-1 2v1h-1l1-5c-1 2-3 4-3 7 0 1-2 2-1 3-2 0-1 2-1 2l-1 1q0 2-2 2l1 2c-2 0-2 1-2 3v1h-1v1l-1 1v2h-1l-4 6 2 1h1v-3h1l1-1 1-3 1-3 1-1 1-3 2-1-2 6-3 6-3 4-2 2v-1c0-1 1-2-1-2l-1-2 2-5-2 2-2 4-1-1 2-5 8-16Zm7-8v-1l-8 16h1l7-15Zm8 0-1 3-2 5v3l1-1v-2l2-4v-4Zm-20 22c2 0 4-5 4-7l-4 7Zm14 3h1v-1l-1-1v2Zm1-27h1v-2l-1 2Zm-1 28-1 1h1v-1Z" class="cls-4"/><path d="m128 169 3 1 3 1 8 7 1 4v3l-1-3 2 6c-2-1-5 0-5-3h-1l1 2-4-1c-3 0-7-1-10-3l-10-4-7-3-3-2h2l2-1v-1l-1-1v-1h-1v1l-1-2-1 1-2-3v-1l4 2 6 3 1 1h1l2 1 1 1h1c2 2 4 3 7 3 2 0 2 2 3 2h1l3 1h1l-2-1-6-3v1l-5-3v-1l-2-1 2-2 2 2 2 2c0-1-2-2-1-3 1 1 3 1 3-1 1 2 2 3 4 3l2 3-2-3-2-3-1-1Zm6 10 4 6v-1l-4-6Zm0-1h-1 1Zm-9-4 1 1v-1h-1Z" class="cls-21"/><path d="m304 153 4-3 8-4 11-4h5l1 1-1 2-7 11-9 9c-5 4-10 7-16 9l-9 4-9 5h-1c0-2 2-3 4-4l5-2 6-3 3-1 3-1 2-3h-3l6-3 1-3h2l2-3 3-2 6-3v-1l-4 3-2-1h-1l1-2 3-2 1-1-5 2-11 5v-1l2-1 2-2h-1l-3 2v-2l4-1h3-1l-1-1-3 1h-1Zm5-2 2 1h1v-1l2-1h2l2-1v-1h-2l-5 2-2 1ZM66 156l-2-5v-2l2 1 4 2 6 5 13 9 8 4 11 7 3 3 11 5 1 1-3-1-14-4c-7-4-14-6-22-8-4-3-9-6-12-11l-6-7ZM175 192v2h-1l-5-4-5-5-2-2-4-6-3-4-3-3-3-4-1-1 4 5 5 7 4 7 1 1v2c-2-1-5 1-5-2h-1l1 1-2 1-2-2v-1h-1v1h-1l-1-1v-2l-1-3v-2h-2l1-2v-2l-1-3h-1l-2-5-1-1h2l3 6 2 2 1 2v1l3 6 1 1v1l1 1-1-1v-1l-3-5-1-3-1-2-2-4-3-4v-1l3-1 6 3 16 12 1 2v2h-1l-1 1-2-2-2-3-12-11-4-3v1l1 1 5 3 10 10 1 2 1 1 3 4h-2l-1-1c0 2 2 4 4 5l2 2 2 1ZM92 145a55 55 0 0 1-9-17v-2h3l2 1 8 5 9 7 3 2 5 7 4 6 2 4h-1l-2-1-3-1v-1l-3-1-1-1-4-3-8-7h-1l-4-5-2-4-4-4h-1l-1-2h-1l3 5 3 5 2 4 1 3Zm14-2Zm-8-7v1l7 6v-1l-7-6Zm-1-1-1 1h2l-1-1Z" class="cls-24"/><path d="M127 170c0 2-2 2-3 1l-1-2h-1l-1 1-2 2h2v2h-1l-2-2v-1h-1v1l-2-1-3-1-7-4a106 106 0 0 1-14-10l-1-1-5-5-6-6-1-2-1-1 2-1 4 2 7 6a135 135 0 0 0 12 9l10 6 9 4 5 1 1 1v1Zm-7-1 1-1c-2 0-2 1-1 2Z" class="cls-3"/><path d="m326 193-8 4-4 1v-1c2-2 4-2 7-3l1-1h-1l-6 3-4 2-2 1h-5l-6 1h-12l-4-1h1l1-1h1l8 1 7-1 1-1h9l-1-1h-4l-1-1-5-1-7 1v-2h3l4-1 1-1 4-2h1-6l-3-2-1-1 7 1 10 2c5 0 9 1 13 3l1 1Zm-16-1 1 1h7v-1h-8ZM51 162l-3-5v-2l7 3 5 4 13 8v1c0 1 0 2-2 2l1 1h2l3 3h1l5 2 2 1c0 1 0 2 2 1l1 1 1 2-6-2a143 143 0 0 1-31-18l-1-2Zm11 5 3 3v-1c-1 0-1-2-3-2Zm0 0-1-1h-1l2 1Z" class="cls-24"/><path d="m303 158 12-5 4-2v1l-4 2-1 2h2l1 1-5 2-1 1-1 1-4 2-1 1h-1l-2 1-5 3-3 1-1-1h2v-2h-1v-2h1v-1l2-1 1-1 3-2h-2l-4 2-2-2 2-1 1-2 5-2 3-1v3l-2 2h1Zm-5 6-1 2-1 1 1-1 2-1 3-1 4-3-1-1c-1 2-4 4-5 3-1 2-1 2-2 1Zm10-3-1-1h-1l1 1Z" class="cls-18"/><path d="m274 203 5 2h1l-1 1h-5l-10 1h-5l-2-1-5-1-1-2-1-3 7 1h9l7 2h1Z" class="cls-4"/><path d="m146 131-1-4v-2c2 0 3 1 3 2l7 9 3 5 1 6v3l-1-1-3-3c0 1 0 0 0 0h-1l-3-4v1l-1 1v1l-2-6-1-6-1-2Z" class="cls-24"/><path d="M157 218h-8l-8-2h2l9 1c-4-2-8-2-13-3l1-1 4-3c3-2 5-2 8 0h1l3 3 3 1h6l-8 4Zm2-2h-1l-6-3-4-2h1l6 4 4 1Z" class="cls-3"/><path d="M155 205h1l1 1 2 2h-1l1 1 1-1 1-1-1-2 2 1 1 1h2c1-2 1 0 2 1 0-2-1-3-2-3h1l3 2v-1l-2-2 1-1 2-1v2l1-1 4-1v1l-6 8-3 2h-6c-1 1-2 0-3-1l-4-3-2-1 3-2 3 1h-1l-2-2h1Z" class="cls-7"/><path d="m82 153-2-3-2-5v-1l9 9 4 3 1 2 4 3 1 3v2h-1v-2h-1v4l-6-6-1-1c-3-2-4-5-6-8Z" class="cls-24"/><path d="M243 193h-34l-1 1h-6l12-3h18-7v-2h5l10 1h13v1l-6 1-1 1h-3Z" class="cls-3"/><path d="m205 212 6-2 6-3 8-7 6-3 1 1c1 2 0 3-1 4l-2 4c-2 3-4 4-6 5v-1l4-4 1-2h-1c-1 1-3 2-4 1l4-3v-1l-6 5-4 4-8 3h-3l-1-1Zm22-11h1-1Z" class="cls-24"/><path d="m289 118-2 1-2 1-2 1h-1l-6 5-3 4-4 2 2-4h2l2-2 2-3 5-5c2 0 3-2 4-3l4-2 4-3 2-1 1-1c2 0 3-2 5-4l1-1h1l-4 5-6 7-4 3v-2l-1 2Zm4-3-2 1 2-1 2-2v-1l-2 2Z" class="cls-6"/><path d="m134 197-13-2-13-2h-1c-4 0-8-2-11-3l-4-2-7-4v-1l1 1 17 6h5l7 2h4a55 55 0 0 1 14 2l1 2Z" class="cls-4"/><path d="m99 181-6-2-9-4-1-1h2l7 3 16 6 8 2 7 2 8 2 11 4 2 1v1l-7-3-7-2-4-1-12-3-5-1-5-2h-3l-1-1-1-1Z" class="cls-3"/><path d="m301 170 2-1h2-1l-2 3-3 1-3 2-6 2-5 2 2-4 1-2 1-1 4-1 4-2 4-2 4-2h1l1-2h1l3-2h1l-2 3-1-1-2 3-6 3-2 1h2Z" class="cls-18"/><path d="M65 184c-6-1-11-4-17-6l-4-1h-1l1-1 7-3h5l1 1h2l2 2-2-1v1h2l3 1-1 1-1-1-1 1 2 1v3l-1-1h-1c1-1 0-1-1-1l-2-2-1 1-1-1h-5l2 1 2 1h2l3 2h1l4 1 1 1Z" class="cls-24"/><path d="M97 143v1l7 6v1l5 3-1-2h1l1 1c0 2 2 2 3 2l3 2 2 1h1l6 7h-2l-10-4-1-2-3-2h-2l2 1-3-1-1-1-2-4v-1l-3-3-4-5h1Zm14 13h1l-3-2v1l2 1Zm1 0v1h1l-1-1Z" class="cls-21"/><path d="m235 181-5 2-1-1 4-2 5-2 2-1h-2l-2 1h-2l2-1 15-8c5-2 9-6 13-9l9-8-1 1-10 10-12 10-12 7-3 1Zm5-5 10-5-10 5Z" class="cls-24"/><path d="M214 174c1 1 2 0 2-1l1-1v3l-3 7-4 4c-3 4-7 7-12 9l-3 1 7-6 3-3h1l1-1-1-1 1-1h1v-1l1-1v-1h2l-1-1 1-2 3-4Z" class="cls-5"/><path d="m138 172-3-3-10-7c-4-4-7-8-9-13l-1-1-3-9 1 1 3 5c-1 2 1 2 1 3l1 2 2 2 4 6 2 1 2 2 1 1 2 1h1v1l5 5 1 2Z" class="cls-3"/><path d="M230 153v1l-4 3-1 1v1h-3l1-3-1 1c0-2 2-3 3-4l2-1 3-3 1 1 2-2 6-5 2-3 1 1v-1l2-1-1 2-4 5-1 2v1l-4 5-1-1-1-1v2l-1-1v-1 1Z" class="cls-6"/><path d="m269 121 1-6 10 3-4 4-10 9 3-10Z" class="cls-24"/><path d="m89 184-1-2-1-1-2-1v-1h-2l-4-2h-2v-2l-2-2h-1l-1 1-2-1c2 0 3-1 2-2l3 1v1l4 2c-1 2 1 1 1 2v-3l2 1 10 4 4 2v2l-1 1-1-1v-1l-2-1v1l2 2v1h-2l-3-1h-1Zm-1-3v-1l-1-1 1 2Zm-2-2h1l-1-2-1 1 1 1Z" class="cls-21"/><path d="m95 186-1-2-2-2v-1h1l1 1 1 2h1v-3l2 1v1h-1l1 1 4 3v-1l-2-1c3-1 4 2 6 3l-1-2h1l4 1h4l8 4h1-8l-3-2 1 1h-5l-5-2h-1c-2-2-5-1-7-2Zm8 1Z" class="cls-23"/><path d="m238 115 4-9 1-2v1c1 2 3 6 5 6l-1-1 1-1 1-1v-1l2 1-1 1h-1l-1 2-1 4-1 3-3 6-1-3v-3c1-2 0-2-1-3l-2 2v2l-2-1 1-3Zm5-8c-1 1 1 5 3 6l-3-6Zm-1 3c-1 2 1 2 2 4l-2-4Zm-1 1c-1 3 1 3 2 5v-1l-2-4Zm4 3h-1l1 2v-2Z" class="cls-5"/><path d="M148 199a68 68 0 0 0 5 0l-2 2-3 5-2 2-6 4-2 1h-1l2-5c1-3 3-6 7-8l1-1-1 2-3 4-1 1h1l5-7Zm2 2c-2 0-3 1-3 2v1l3-3Z" class="cls-3"/><path d="m103 153 3 3v2l-3-2-3-2-5-5-2-3-1-1-2-5h1l1 2 2 3 4 5v-1l-3-3-1-1-3-5-1-2-3-5-1-2 1 1 3 4 2 3 3 4 1 1v1l3 4 4 4Zm-2 1v-1l-2-3h-1l3 4ZM277 209h-6l-11 1-18-5v-1l15 4h13l10-2 3 1 1 1h-6l-1 1Z" class="cls-7"/><path d="m128 161-2-2-4-5h3l7 5 1 2h2l2 1-1 3-1-1c0 1 1 2 2 1l1 1 2 2-1-1 2-1v4l-7-5-1-1h2v-1l-3-1 1 2-1-1-2-2h-1l-1-1Zm3 1v-1Z" class="cls-21"/><path d="M162 187v-1l1 1 1 1 1 1 1 1 1 1 2 3h-1l-2-1-1-1 1 1 2 2h-3v-1h-1l1 1v1l-3 1c-1 0-2 0-3-2h2l3 1c0-2-1-2-3-2h-1l-3-3 2-1h3l1 1 2 1v-1l-2-1-1-1c-1 0-3 1-4-1h3l1-1Z" class="cls-7"/><path d="m77 149 3 4 5 8-3-2-10-7-1-1 1-1 5-1Z" class="cls-24"/><path d="m254 176 1-1 7-5h2l15-6 6-1h1l-12 4-8 4-11 5h-1v-1Z" class="cls-6"/><path d="m205 202 3 1v-1l-2-2 9 4v1l-1 1h-1c-1 2-3 2-5 1l-4-3-1-2h-1l-1 1v-1c0-1 1-2 2-1h1l1 1Z" class="cls-7"/><path d="m146 170 1 1 1 3v1l-1 2h2v2l1 4h-1l1 1v1l-3-3 1 1 2 4 3 4v1l-1-1c-3-3-6-6-7-10l-1-2 2-4-1-2 1-1v-2Z" class="cls-5"/><path d="m241 166 2-1-3 3-2 2h-1l-3 2-2 1-4 4-4 1-1 1v-1l2-2 3-2c2 0 2-1 2-3 4 0 6-3 8-5l6-6 1-1v2l-1 1h-1l-4 4-1 1h1l2-2Z" class="cls-6"/><path d="m103 166 2 4 1-1 1 2v-1l1-1v1l1 2v1l-2 1h-2c-2-1-5-2-6-4v-3h-1 1l1 1v-1l1-2v-1l2 2Zm5 6v1-1Z" class="cls-3"/><path d="M223 205c1 1 3 0 4-1h1l-1 2-4 4v1l-5 2 2-3-4 2 1 2h-6l6-4h1l3-3v-1l2-1Z" class="cls-18"/><path d="m147 145-1-10v-3 1l1 5 2 7 1 2v1l6 12 3 5v1l-4-5v-1l-1-2h-1v-1l-4-8-1-1 1 2h-1v-3l-1-2Z" class="cls-7"/><path d="m300 119-1-2h-1v-1c1-1 2 0 2-2l2-2 1 1v1l-1 5-2 5c0 3-3 4-4 7h-1l2-3v-2l1-3 1-4 1-1Z" class="cls-9"/><path d="M171 181c1 1 1-1 1-1l2 1 1 1v-1h-1l-3-3-5-5v-1l1 1 10 9 2 6-2 1v-2l-2-1-2-3v-1h-2l-1-1Z" class="cls-18"/><path d="M209 112c2-3 4-6 4-10v-3l-1-3-1-2 1-2 1 2c2 2 2 4 2 6l2 2v2l1 1-1 1c-2-1-2-2-2-4v1l-3 6v3l-1 2c-2 0-2 0-2-2Z" class="cls-5"/><path d="m202 208 3 2h-11l-3-2v-2l-1-2 2 1 1 1a18 18 0 0 0 5 4v-1l-6-4 4 1 3 3h1-1l-1-2 1-1 1 1 2 1Z" class="cls-7"/><path d="m161 153 4 3h1v-1h1l1 4 1 1v-1l1 5-3-4 2 5-1-1-3-3c-2-1-3-2-3-4v-2l-1-2Zm5 7 1-1-1-1-1 1v1l1 1v-1Z" class="cls-21"/><path d="m284 198-1 1h-1l-1 1h3v1l-4-1-1-1-4-1-1-2v-1c1 0 1 0 0 0l-1-1v-1l1 1h4v-1h-1 2v1c1 1 3-1 5 1h-9l1 1 5 1 3 1Z" class="cls-10"/><path d="m273 151-9 9-13 9-15 8-2 1-1 1v-1l6-4 11-5 12-8 11-11 2-2v1l-2 2Z" class="cls-2"/><path d="M203 145h1v1l1-1v-1l2 3v1l-1-1-2 1 1 2v1l1 1h-4l-2 1-4 3h-1l1-1 4-6 3-5Zm0 2-2 2 1 1 1-3Zm-2 3c-1 1-2 1-1 2l1-2Z" class="cls-23"/><path d="M246 121v1c-1 3-7 10-8 9l1-1 3-5 1-1v-1l5-8 1-4h1c1 1-1 3-1 4l-2 6Z" class="cls-3"/><path d="m190 185-2 1v2h-2l-1 3-1 1v-1c-1-1-2-2-1-3l2-3 2 2 1-1-2-1 7-8-2 3-2 2v2l1-1 1-2 7-8h1l-4 5-3 4-2 3Z" class="cls-20"/><path d="m295 156-1 1-1 2-7 3-14 4h-1v-1l2-1 7-2 13-5 2-1Z" class="cls-7"/><path d="m250 200 1 4 1 1-2-1h-1l1 1v1l-3-1h-2l-1-1-6-2-1-1h2l4 1v-3l2 4c1-1 2-2 3 0v-1l-1-2h3Z" class="cls-13"/><path d="m123 187-7-2-8-2-16-7-7-2h-1v-1c7 2 15 4 21 8l15 4 3 1v1Z" class="cls-16"/><path d="m273 151 2-2-1 3-10 10-10 8-12 8-5 3-1 1-1-1 3-1 12-7 12-10 10-10 1-1Z" class="cls-15"/><path d="m112 140 3 8h-2l-5-7h3v-1l-1-4 1-1 1 4Z" class="cls-19"/><path d="M284 201v-1h24l-14 2-7-1h-3Z" class="cls-3"/><path d="m295 186 1 1 3 2h-5l-2-1h2v-1h-13v-1h14Z" class="cls-25"/><path d="M207 181h1v1l-2 2-5 4c-1 1-2 3-4 3l-2 2-1-1 2-1 2-1 2-2-1-1 1-1 2-2 2-1 3-2Zm-5 6h-1 1Z" class="cls-18"/><path d="m159 195-4-4-1-1-2-3 1-1 2 3 1 1-1-3 2-1-1-1h1c0 3 3 1 5 2h-3l-1 1 1 2-2 1 3 3-1 1Z" class="cls-23"/><path d="M150 148v-4l1-1 3 2 1 1 3 3h1v2h-1l-2-1v-1l-3-1 2 2-1 1-1-1-3-2Z" class="cls-9"/><path d="m294 189 3 1 2-1h2l-3 1-6 1h-5c-1-1-2 0-3 1h-1l-2-1c0-1 0-2-1-1v-1l4 1h6l4-1Z" class="cls-10"/><path d="M84 186h1l3 2c1 0 3 0 3 2l-5-1-10-1-4-1v-1h6l4 1 2-1Z" class="cls-7"/><path d="m169 165-2-5 3 4-1-5v-4l1 1v2l1 5 1 1 1 1h1c1 0 2 0 1-1v-1l1 1h2l1 1h-1l-3 1-1 1v-1l-2-2-1 1 1 1-1-1v2l2 1-2 1-2-4Z" class="cls-10"/><path d="m101 165-1 2v1l-1-1h-1v1c2 0 2 1 1 2l-3-2-1-2v-2h1v2h1v-2l-1-3 5 3Z" class="cls-21"/><path d="M146 170v2l-1 1 1 3-2 3-1-13 2 3v1h1Z" class="cls-24"/><path d="M78 186h-6l-6-1-1-1h4l-1-1-1-1-5-3-1-1v-1l2 1 2 2 4 2 1 2v1h2l6 1v-1l-1-1h3l-2 2Z" class="cls-15"/><path d="m169 194-2-3-1-1v-1l-1-2-1-1 5 4 5 4v1h-2l-3-2Z" class="cls-14"/><path d="M162 206h-2l-2-1c-1-1-2-1-1-2v-1l-1-1h1l2 1c1 1 1 0 1-1l2 1-1 1h5l1 1 2 3-3-2c0-1-1-1-1 1h-2l1-1v-1h-2l-1 1 1 1Zm-1-2h-2 2Z" class="cls-15"/><path d="M205 202h-1c0-2 0-2-1-1-1-1-2 0-2 1l-2-1-2-2v1l5 5h-1l-1-1-2-1v-1l-1-2v-1h5l1 1c2 0 2 0 2 2Z" class="cls-25"/><path d="M58 173c2 0 5 0 6 2l5 3 2 1 4 2h-3l-3-2h-2v-1l-2-1-3-2-4-2v-1Z" class="cls-6"/><path d="M230 130v-6l1-2v-1l1-6h1v1c-1 5-1 9-3 13Z" class="cls-18"/><path d="m183 167-2 2c1 2 0 4-2 4s-2-1-1-2l1-1v-4h1l1 1h1l1-1 1 1Z" class="cls-10"/><path d="m280 190 1 1h-4l-1-1v2h-1v-1 2h1v1l-2-1h-1c0-2-1-1-2-1v-1l3-2c1 0 2-2 4-1l-1 1-2 1h-1 6Z" class="cls-25"/><path d="m68 180 1-1c2 2 4 4 6 4h1v-1h-1v-1h2v3l-5-1-3-2v1l3 1 1 1-1 1h-2v-1c1 0 0 0 0 0l-1-2v-2l-1-1Z" class="cls-9"/><path d="M230 171c0 2 0 3-2 3l-2 2-3 2v1l-4-1 2-2c1 1 2 1 2-1l2-1 3-2 2-1Z" class="cls-13"/><path d="m153 186-1 1 2 3v3l-1-1v-1l-3-4-2-3-1-2 3 3v-1l1 1h1l1 1Z" class="cls-20"/><path d="m280 207-10 1h-11v-1h5l10-1h5l1 1Z" class="cls-19"/><path d="M215 143c1 2 2 0 2 1 1 1 2 2 3 1v1l-1 2h-1l-2-1-3-1 1-2 1-1Z" class="cls-23"/><path d="M274 196c0 1 2 0 1 2-4-2-8-1-12-1l-1 1-1-1 3-1h10Z" class="cls-25"/><path d="m235 142 1-1 1-1 1-1-1 2-2 2-3 3-1 1-4 4v-3l4-3 2-2c1 0 2 0 2-2Z" class="cls-21"/><path d="M225 191h-8l-2-1 8-1 2 1v1Z" class="cls-23"/><path d="M171 181v2l2-1v1l2 3 2 1v2l-3-2-4-5 1-1Z" class="cls-7"/><path d="m169 165 2 4 1 2h-1l-1-1-1-2-1-1h-2c0-2-3-3-2-5l1 1 2 2 1 1v-1h1Z" class="cls-23"/><path d="m156 201 1 1v1c-1 1 0 1 1 2l2 1v2l-1 1-2-1h2l-1-2h-1l-1-1-1-3-2 2v-2h1v-1l2 1v-1Z" class="cls-8"/><path d="M201 205h1l3 2-2-3h1s0 1 0 1l4 3h1v1h-4l-2-2-2-2Zm6 4v-1h-1l1 1Z" class="cls-5"/><path d="m222 186 1 1 7-1h10-3l-4 1h-13l2-1Z" class="cls-14"/><path d="m273 193-1 1c-1-1 0 0-1 1l-8-1 6-1c0-1 0-2 2-1h-1l1 1h2Z" class="cls-18"/><path d="M175 192h-2l-1-2 1-2 3 1 1 2v1l-2-1v1Z" class="cls-25"/><path d="M223 180v1l-9 4h1l2-2 2-1h1v-1l-1-1h4Z" class="cls-13"/><path d="m177 191-1-2-3-1-1 2 1 1-2-2 1-3 2 2v-1l3 2h1l1 2h-2Z" class="cls-22"/><path d="M178 170c-1 2-1 3 1 3v1h-1l-2-4v-3l-1-1 3-1v5Z" class="cls-23"/><path d="m232 165 8-7 8-7-1 1c-3 4-7 8-12 11l-3 2v-1Z" class="cls-20"/><path d="m205 212 1 1-5 2h-1l1-1 4-2Z" class="cls-9"/><path d="m289 172-1 1c1-2 1-3 3-3l2-3 1-2 1 1v1l-2 1 1 1-1 1-4 2Z" class="cls-10"/><path d="M147 150h1a312 312 0 0 0 5 9v1l-6-10Z" class="cls-4"/><path d="m172 168-1-1-1-2 2 1-1-2 2 2 1 1v3l1 2h-1l-1-2v-2h-1Z" class="cls-18"/><path d="m149 194-12-4c2-1 11 2 12 4Z" class="cls-21"/><path d="m224 198-2 2h-3l-4-2h9Z" class="cls-25"/><path d="M58 173h1l3 2 3 2h-2l-2-1h-2v-1h2l-2-1h-2l-1-1 2-1Z" class="cls-10"/><path d="m133 164 1 1 6 5h1l-1 1-1-1v2l-1-1-1-2-5-5-1-1h2Z" class="cls-22"/><path d="m261 199-11-1v-1l9 1h2v1Z" class="cls-7"/><path d="m62 179 5 3 1 1 1 1h-4v-2h-2v-1l-1-2Z" class="cls-23"/><path d="m153 209 4 3c1 1 2 2 3 1h4v1h-5l-3-1-3-3v-1Z" class="cls-19"/><path d="m181 185 1-1 2-4 2 1-2 3-2 2-1-1Z" class="cls-10"/><path d="m238 125 1 3-3 4h-1l-1 2-1 1c0-1 1-4 3-5 1 0 2-2 1-3v-2Z" class="cls-23"/><path d="m213 143 3-5 2-7v1h1l-1 3-4 8h-1Z" class="cls-2"/><path d="M187 158v4l-1 1v-10h1v5Z" class="cls-23"/><path d="M165 195h2l4 2v1h-1l-1-1h-1l-4 1-1-1h3v-1h-1v-2Z" class="cls-13"/><path d="m238 174-3 2-8 4-1 1-1-1 13-6Z" class="cls-16"/><path d="m201 205 2 2h-3c0-2-1-1-2-2l-1-2h1l2 1 1 1Z" class="cls-20"/><path d="m130 190 6 3v1l-3-1h-3v-3Z" class="cls-21"/><path d="M261 199v-1h1l5 1h4-10Z" class="cls-11"/><path d="M156 201h-1l-1 1h-1v1h-1l2-3h3l3 2h-1l-2-1h-1Z" class="cls-6"/><path d="m197 203 1 2c1 1 2 0 2 2l-1-1-1 1-2-2-3-3 4 1Z" class="cls-23"/><path d="m109 159-2-2h2l4 3v1l-4-2Z" class="cls-3"/><path d="m172 171 1 2v2l1 2-5-4 3 1v-3Z" class="cls-14"/><path d="m214 143 2-2 4-8-1 3-4 7-1 1v-1Z" class="cls-15"/><path d="M65 185h1l6 1v1l-8-2h1Z" class="cls-11"/><path d="m144 195 1-1 10 4-3-1-6-1-2-1Z" class="cls-9"/><path d="M208 182v-1l1-1 5-6 1-3h1l-2 3-3 4-1 2-1 2h-1Z" class="cls-16"/><path d="m232 147 3-4 2-2 1-2 2-2v2l-7 8h-1Z" class="cls-22"/><path d="M187 153h-1v6l1 4-1 1h-1v-11l1-2 1 1Z" class="cls-15"/><path d="m169 169 1 1 1 1h-3l-1-3h2Z" class="cls-14"/><path d="M130 192v1l-6-2h-1c0-2 0-2 1-1l3 1h1l2 1Z" class="cls-11"/><path d="m240 190-10-1h-5 15v1Z" class="cls-15"/><path d="m78 186 3-2 1 1v1h2l-1 1-5-1Z" class="cls-13"/><path d="M139 214c4 1 9 1 13 3l-9-2h-4v-1Z" class="cls-16"/><path d="M136 194v-1l6 3v1h-3l-1-1-2-1v-1Z" class="cls-8"/><path d="m217 214-1-2 4-2-2 3-1 1Z" class="cls-13"/><path d="m193 187 7-7v-1l-1 2-5 6h-1Z" class="cls-16"/><path d="m77 149-5 2h-1l-2-2h6l1-1 1 1Z" class="cls-15"/><path d="m295 161 4-2 2-1-1 1-2 2h-2l-1 2v-2Z" class="cls-22"/><path d="m199 187 1 1-2 2-2 1c0-2 1-2 2-3l1-1Z" class="cls-10"/><path d="m205 150-1-2 1-1h1v1l1-1 1 1v1h-1l-2 1Z" class="cls-17"/><path d="M136 195h2l1 1-5 1v-1h1l-2-2h1l2 1ZM194 187l5-6 1-2h1v2h-1l-3 3-2 3h-1Z" class="cls-23"/><path d="m228 148-1 3-2 1 1-2h-1l-2 2 3-3 1-1h1Z" class="cls-6"/><path d="M242 204v1l-4-1-4-1c0 1 0 0 0 0 1-1 4 0 8 1ZM268 117l1-1-1 5-1 1-1 1v-1l2-5Z" class="cls-9"/><path d="m169 194 3 1 1 2c-1 0-4-1-4-3Z" class="cls-5"/><path d="m148 199-5 7h-1l2-1 3-4v-2h1Z" class="cls-22"/><path d="m304 154-1-1h2l3-1 1 1h1v1l-1-1h-2l-3 1Z" class="cls-10"/><path d="M127 170v-1h1l1 1 2 3c-2 0-3-1-3-3Z" class="cls-9"/><path d="m130 192-2-1-1-1-1-1 4 1h-3l2 1h1v1Z" class="cls-22"/><path d="m214 201 4 1v1l-1 1-1-1-2-1v-1Z" class="cls-5"/><path d="m166 204-2-1h-3l1-1h4v1Z" class="cls-23"/><path d="M236 123c0 2 1 5-2 7l2-7Z" class="cls-5"/><path d="M212 122v1l-1 1v-1l1-4 1-1v2l-1 2Z" class="cls-21"/><path d="m136 195-3-1c1 0 0 0 0 0l2 2h-1l-2-2 1-1 3 1v1Z" class="cls-15"/><path d="M237 118h2v3h-2v-3Z" class="cls-13"/><path d="m150 173-2-3-3-5v-1l3 5 2 4Z" class="cls-15"/><path d="m231 158 5-4 1-1h1l-7 6v-1Z" class="cls-20"/><path d="M152 203c-1 2-3 5-5 4l5-4Z" class="cls-21"/><path d="m284 190-4-1v-1l1-1 1 1h2v1Z" class="cls-25"/><path d="M165 196h1v1l-1 1h-2l-1-1 3-1Z" class="cls-20"/><path d="M279 190h-5 1l2-1 1-1 1 2Z" class="cls-15"/><path d="M230 136v-2l1-1h1v1l-2 2h-1Z" class="cls-18"/><path d="m194 192 1 1-3 2-1-1h1l2-2Z" class="cls-10"/><path d="M214 199c-2 0-4 0-5-2l5 2ZM139 215h4l-2 1-4-1 1-1 1 1Z" class="cls-25"/><path d="m72 183 5 1h-4l-1-1Z" class="cls-19"/><path d="m233 179 1-1h2l2-1v1l-5 2v-2Z" class="cls-10"/><path d="M153 160v-2h1l1 2v1l-2-2Z" class="cls-25"/><path d="m84 186-3 1v-1l3-1v1Z" class="cls-7"/><path d="m192 205 6 4v1l-3-2-2-2-1-1h1Z" class="cls-10"/><path d="m108 191-4-1h2l2 1Z" class="cls-13"/><path d="M205 120v4l-1-5h1v1Z" class="cls-20"/><path d="M210 118v4h-1v-5l1 1Z" class="cls-11"/><path d="m268 117-2 5v2h-1l2-7Z" class="cls-20"/><path d="M187 158v-5l1 4-1 1Z" class="cls-15"/><path d="m221 153 1-1h2l-1 2h-2v-1Z" class="cls-7"/><path d="m275 126-2 2h-2l1-1 3-1Z" class="cls-22"/><path d="m215 189-4 1 4-2v1Z" class="cls-8"/><path d="M139 172v-2l1 1 1 3-2-2Z" class="cls-18"/><path d="m215 190 2 1h2-5l1-1Z" class="cls-14"/><path d="M298 121c-2-1-2-1-1-2h1l1 1-1 1Z" class="cls-13"/><path d="m224 153-1-1h-1 1l2-2h1l-1 2-1 1Z" class="cls-21"/><path d="M232 139c-1 1-2 2-4 0h4Z" class="cls-18"/><path d="M222 185c2-2 3-2 4-1l-4 1Z" class="cls-8"/><path d="m155 205 1 1 1 1c-1 0-3 0-3-2v-1l1 1Z" class="cls-10"/><path d="M158 152v1l-3-3h1l2 2Z" class="cls-6"/><path d="M262 198h-3l2-2 1 2Z" class="cls-22"/><path d="m221 207-3 3h-1l4-4Z" class="cls-20"/><path d="m255 144 1-2 2-2c0 2-1 3-3 4ZM208 194l1-1 1 1h1v1l-3-1Z" class="cls-9"/><path d="m88 188-3-2h2l1 2Z" class="cls-13"/><path d="m206 185 1 1-1 1h-1l1-2Z" class="cls-14"/><path d="M175 194v-1l2 1v1h-1l-1-1Z" class="cls-11"/><path d="m229 182 1 1-3 1c0-2 1-2 2-2Z" class="cls-9"/><path d="m272 194 1-1 1 1v1h-1l-1-1ZM183 167v-1l2-1-1 2Z" class="cls-23"/><path d="m130 191-1-1h-2v-1l3 1v1Z" class="cls-8"/><path d="m158 152-2-2 2 1 1 1h-1Z" class="cls-20"/><path d="m209 126 1-2v2h-1Z" class="cls-9"/><path d="m185 165-2 1c0-2 2-1 2-2h1l-1 1Z" class="cls-10"/><path d="M79 184h-1l1-1 1 1h-1Z" class="cls-23"/><path d="m272 194 1 1h-2c1-1 0-2 1-1Z" class="cls-10"/><path d="m226 181 1-1 1 1-2 1v-1Z" class="cls-11"/><path d="M172 180s0 2-1 1v-2l1 1Z" class="cls-7"/><path d="m178 175 1-1c-1 1 0 2-2 2l1-1Z" class="cls-10"/><path d="M180 182v-1l1-1 1 1-2 1Z" class="cls-9"/><path d="M238 201v-2h1l1 1h-1Z" class="cls-14"/><path d="M90 185h3l-3-1Z" class="cls-10"/><path d="M176 168v2-2Z" class="cls-22"/><path d="m280 188-1-1 1-1v2Z" class="cls-10"/><path d="M280 188v-2h1v1l-1 1Z" class="cls-15"/><path d="M218 187v1l-2 1v-1l2-1Z" class="cls-10"/><path d="m299 120-1-1h2v1h-1ZM64 185v1l-1-1h2Z" class="cls-15"/><path d="m166 193-1-1 1 1Z" class="cls-5"/><path d="M173 168v2-2Z" class="cls-10"/><path d="M206 114h-1v-1h1Z" class="cls-9"/><path d="M295 164h-1 1Z" class="cls-22"/><path d="M208 183Z" class="cls-14"/><path d="M156 150h-1l1-1v1Z" class="cls-20"/><path d="M294 164h-1l1-1Z" class="cls-22"/><path d="M213 143Z" class="cls-2"/><path d="M145 170v-1Z" class="cls-5"/><path d="M173 170ZM53 173Z" class="cls-10"/><path d="M168 194Z" class="cls-5"/><path d="M271 110v-8h1l14-4 7-4 10-4 3-1h1l-1 4v1h1l3-1-1-1-1-1 2-3c-2-2-3-1-5-1h-1v1h-3l12-5 9-5c3-1 6-3 10-3l1 1v1l-5 7c-2 3-5 6-9 8l-9 5-6 3-3 1-1-1c-8 8-18 9-28 10Zm34-16-5 6h1c2-1 3-4 4-6Z" class="cls-25"/><path d="M267 100h-2v-1l-2-2h1l1-1 4-2 3-2 2-1 3-2-2 1v-1l4-4 5-5 9-10 1-1 4-2c3-2 6-5 10-6h2c1 0 2 1 1 2l-3 5-2 4-5 8-6 6-6 6-11 7-7 2-3-2-1 1Zm35-26-5 6 5-6Zm1-1Z" class="cls-25"/><path d="m265 94-2-1V82l6-5 6-7 8-9 5-7 5-2v6c-1 2-2 3-1 5l-2 3v1l-4 7c-2 5-6 9-9 13l-6 5-5 3h-2Zm3-2v-1l-3 2v1l3-2Zm1-1h-1 1ZM287 45a24 24 0 0 1-3 12l-8 10-3 3-1-1c3-1 3-3 5-5l-1-2v-1l-1-1h-1v1l-1 1v-1l3-8 6-13 1-1 1-1 3 2v5Z" class="cls-25"/><path d="m294 70-1-1 1-1 7-7 10-7 2-2h1l1 1c0 1 0 3-2 4 2 1 1 3 1 4l-2 6-2 1h-1l2-4c1-1 2-3 0-5v-1l2-2v-1l-2 1-1 2-4 3c-3 0-5 2-6 3l-5 4-1 1Z" class="cls-9"/><path d="m263 97 2 2v1l-5 5h-1l1-5 3-1-2-1c1 0 1-2 2-1ZM265 96l-1 1 1-1Z" class="cls-10"/><path d="M303 88h1-1Z" class="cls-9"/><path d="m280 118-10-3 1-1h1l1-2h4l1 1 1-1h6l1 1-2 1-4 4ZM298 106l-7 4-4 2-2-1-3 1-1-1h1l3-1 3-1 4-2 3-1 3-1Z" class="cls-8"/><path d="m307 104 3-1 9 2h5l3 1 1 2h-1l-3 2-5 1-5 2-1 1h-7l1-10Z" class="cls-11"/><path d="m302 113-2 2h-1l-1-1 4-4v-1h-2l4-6 1 1v3l-2 2-1 3Zm1-5h-1 1Z" class="cls-6"/><path d="m302 113 1-3c1 0 2 1 0 2v1l-1-1ZM299 115h1l-2 1v1h-1l1-2 1-1Z" class="cls-15"/><path d="m294 117 2-1v1l-2 1v-1ZM289 118l1-2v2h-1Z" class="cls-20"/><path d="M299 115h-1v-1l1 1Z" class="cls-9"/><path d="M308 200v-1h1l5-1-6 2Z" class="cls-23"/><path d="M98 183v-1l1-1 1 1h1l-1 2h-1v-2Z" class="cls-8"/><path d="m79 175-3-2 4 2h-1Z" class="cls-3"/><path d="M79 175h2l-1 1 1 1s-2 0-2-2Z" class="cls-15"/><path d="m37 136-1 2h-3v1h1l1 1h1l4 1 2-1 1-1 1 1h2l2 1 1 1h-8l-1 1 1 1-1 2h-1v-1 1h-7c-2 1-4 0-6-2h-2l-7-3h-1c1-2 2-2 3-2l8-2 9-1h1Zm2 6-1-1-6 1-1 1 1 1 7-2ZM58 146h3l1 1-1 2-6 1h-5l-1-1 5-2 4-1Z" class="cls-13"/><path d="m40 146 1-2c2-1 3 0 3 2h-4ZM39 146v-1 1h-1Z" class="cls-10"/><path d="M39 136h-1 1Z" class="cls-22"/><path d="M151 218ZM150 218ZM152 218Z" class="cls-16"/><path d="M247 109v1l-2-4-2-1v-1l3-8 7-13 2-1 3 1 1 4v7c0 5-1 10-3 14v2-5l1-1v-2l-1-3-1-2-1 1 1 1-1 2-2-1-1-2v4h-1v-1h-1v3h-1l-2-2 1 2 1 2 1 1v1l-3-3-1-2h-1l2 3 1 3Zm11-9v-6l-1 2v2l1 2Zm-6-2 1-3-1 1v2Z" class="cls-24"/><path d="m257 104-1 1-2-3h-1v1l1 3h2v4l-2 2h-3v-1h2v-1l-3-4-1 1v-5l4 6 1 1h1v-1c-2-1-2-4-5-5l1-1v-5l1 3h2l2 3h1Z" class="cls-21"/><path d="m251 111 1 1h2l-2 3-4 5-1 1 2-6c0-1 2-2 1-4h2Z" class="cls-11"/><path d="m266 102 4 1c-2 1-3 0-4-1Z" class="cls-13"/><path d="m261 98 2 1-3 1 1-2Z" class="cls-17"/><path d="M247 121h-1 1Z" class="cls-1"/><path d="M269 116Z" class="cls-9"/><path d="M120 92c0-1 0-2 2-2h2l2 1 1 1 8 9v1l11 11c2 1 2 3 2 4h-1l-1-1-2-1-1 2 2 2 2 3c1 1 2 2 1 3-1-2-2-3-5-2h-1l-1-4-3-4-1-1-1 5 2 2 1 2v2c-2 0-2 1-1 2a166 166 0 0 0 2 5h-1l-3-6 1-3h-2l-1-1-1-2 1-2-1-2-1-3-3-6c0-3-2-4-3-6h-1c0-1 0-3-2-4v1c2 2 0 5-2 6v-9c0-2 0-3 2-3h1-4Z" class="cls-24"/><path d="m123 128-8-3-3-1-1-1v1h-2l-2-1-1-2 1-1 2 1c0 1 1 2 2 1l-5-4-3-3-2-2-1 1h-1l-2-2-1-1-2-2 1 2 2 2 8 11 2 3h1v5h-1l-3-4-4-5-2-4-2-4c-1-3-4-6-4-9 2 0 4-1 7 1l12 10 10 8 2 3Zm-17-1-4-5-3-3v1l8 9v-1l-1-1ZM156 108l5 7c2 1 1 3 1 5l-3 8-1 6v3l-1-1-4-5-2-4v-2l2-1-1-5v-5l3-1v5l1 4v4l1 2v2l1-4-1-5-1-2v-4h1l1 7h1l-1-3v-3l-1-1 1-2c1-1 0-1-1-1v-2l-1-2ZM129 121l1 7 2 4v1l-3-2-3-6-2-5 2-1-1-2-1-1-2-10 1 1 1 3 1 2 2 2 2-2v2l-1 1h-1l1 1 1-2 1 1-1 1v4Zm-2-7v1-1Z" class="cls-3"/><path d="M129 114v-2l-2 2-2-2-1-2-1-3-1-1-1-2c3 0 4-3 3-5l-1-1c2 1 2 2 2 4-1 0-2 2-1 4l1-4 2-1 2 6 3 6 1 4-3 4-1-2c2 0 2-2 3-2v-2h-3v-1Z" class="cls-23"/><path d="m150 126-1-1v-8l-1-4 1-8c0-1 3-2 4-1l2 3h-1l-1-1 2 5h-2l-1-5h-1l1 5-1 2v3l-1 4v6Z" class="cls-4"/><path d="M161 89v-1l2 1h1v5l1 2a204 204 0 0 1 1 3l-1-3v-1c0-1 0-2 1-1l1 4 1 3-1-1-3 3 1 4h1v-1l-1-1 2 2v1l-3 2v-2l-1-2c-1-1 0-3 1-4v-3l-2-5-1-5Z" class="cls-5"/><path d="M194 117v-1l-1-2v1l-2-2 1-2 3-2c1-1 1 0 1 1v1l1 1 1-1v-1h2v3l-1 1-1-2-2 1v3l2 3 2 1v4h-1l-1-1-1-2-1-1h1l-2-3v1h-1v-1Z" class="cls-6"/><path d="m142 107 2-3 4-3 2-1c1 1 1 1-1 2l-2 4v7l-2-3-3-3Z" class="cls-8"/><path d="m120 122-2-3 1-7 2-1 1 4 1 5c-1 1-1 2-3 1Z" class="cls-10"/><path d="m187 153-1-1-1-2-1-11h1l2 7v7Z" class="cls-1"/><path d="m130 121 3-4 1 1c-2 1-2 2-1 2l1 3 2 7-3-3-1-4c0-2-1-2-2-2Z" class="cls-5"/><path d="m142 107 3 3 2 3h-1l-11-11v-1h1l1 1 4 4 1 1Z" class="cls-19"/><path d="m108 135 1 2h-1l-3-4-4-6-1-4 1 1 3 5 3 3 1 3Z" class="cls-23"/><path d="m182 116-4 2-1 1 3-6 2-1v4Z" class="cls-1"/><path d="M108 127h-1v-1l-2-2-2-3-2-3 2 1 4 4c0 1 0 0 0 0l2 1-1 3Z" class="cls-21"/><path d="M182 116v-5h1v11c-1-1-2-2-1-3v-3Z" class="cls-3"/><path d="m91 156-4-3-9-9v-1l1 1 6 6 5 5 1 1Z" class="cls-19"/><path d="M186 109h6l1 2c-3-1-5 0-6 1h-2l1-4Z" class="cls-1"/><path d="m150 126 1-4v-2l1-1 1 5-2 1v2l-1-1Z" class="cls-15"/><path d="M186 112h1v1c1 2 1 4-1 5v-6Z" class="cls-4"/><path d="M165 134c-2-2-2-5-2-8v-2l1-1v8l1 1v-2h1l-1 4Z" class="cls-9"/><path d="m161 89 1 5 2 5v3h-1l-1-4-1-5-2-5v-1h2c-1 1-2 1 0 2Z" class="cls-17"/><path d="m112 140-1-4-1-5v-1l1 3 2 7h-1Z" class="cls-6"/><path d="M183 114v-3h-1v-1l1-2 2 1-1 5h-1Z" class="cls-1"/><path d="m123 120-1-5 1 1 1 4 1 4h-1v-2l-1-2ZM107 132l-3-3-3-5h-2l1-1 4 5 3 4h-1Z" class="cls-19"/><path d="M142 123h2v5l-5-3v-1l3 2v-3Z" class="cls-13"/><path d="m123 120 1 2v3l-4-4c2 1 2 0 3-1Z" class="cls-15"/><path d="M140 128c2 1 3 3 3 6-2-2-3-3-3-6Z" class="cls-7"/><path d="m119 129-3-3 2 1 4 2v1l-3-1Z" class="cls-23"/><path d="m183 108-1 2h-1l-1-3v-2h1l1 2 1 1Z" class="cls-8"/><path d="m176 116-1-2-2-5v-1h1l1 4 1 3v1Z" class="cls-9"/><path d="m184 114 1-5v-2l1 2-1 3v2h-1Z" class="cls-6"/><path d="M154 107h2v1l1 2v2l-2-2-1-3Z" class="cls-25"/><path d="m168 101-1-3-1-4h1l2 7h-1Z" class="cls-20"/><path d="M111 128v1l-1-2 2-1h1v1l-1 1Z" class="cls-7"/><path d="m147 138-1-5v-2l1 2 1 6v-1Z" class="cls-16"/><path d="m119 112-1 7-1-1 1-6h1Z" class="cls-15"/><path d="M186 122v1l-3 2v-1l3-3Z" class="cls-1"/><path d="M170 112h-3l-1-1 1-1c1 0 2 0 3 2Z" class="cls-7"/><path d="M107 132h1l1 2-1 1-1-3Z" class="cls-15"/><path d="m137 138 3 3-3-3Z" class="cls-21"/><path d="M149 85v3-3Z" class="cls-10"/><path d="m81 130-4-2h4v1ZM135 124l2-1v3l-2-2Z" class="cls-15"/><path d="M141 136c-2 1-2 1-2-1l2 1Z" class="cls-5"/><path d="M151 97v2l-1-2h1Z" class="cls-15"/><path d="m144 141-1-2 2 1-1 1Z" class="cls-13"/><path d="m161 110 2 1c-1 1-2 1-2-1ZM167 108v-1l1 1v1l-1-1Z" class="cls-15"/><path d="m134 123-1-3 1 2v1Z" class="cls-23"/><path d="m92 145 1 1-1-1Z" class="cls-20"/><path d="M111 124v-1l1 1h-1Z" class="cls-21"/><path d="M111 133h1v1-1Z" class="cls-8"/><path d="M87 142h-1v-1l1 1Z" class="cls-12"/><path d="M98 119Z" class="cls-22"/><path d="M87 142Z" class="cls-12"/><path d="M156 104h1-1Z" class="cls-15"/><path d="M136 131Z" class="cls-5"/><path d="M123 128h1Z" class="cls-3"/><path d="m118 81-1 4h-1v-1l1-3h1Z" class="cls-15"/><path d="m123 116-1-1-1-4-1-5c-1-4-2-9-1-14h5-1c-2 0-2 1-2 3v10l3 10h-1Z" class="cls-16"/><path d="m120 107 1 4-2 1h-1l2-5Z" class="cls-22"/><path d="M136 101h-1l-8-9 1-1 1 1 4 4 1 1 1 3 1 1Z" class="cls-2"/><path d="M45 106ZM65 124l1 1 3 1h2v1h-2l-4-3h-1 1Z" class="cls-20"/><path d="m75 130 3 1 2 1 1 1h-2l-3-3-1-1ZM77 128l-3-2c1-1 2 0 3 1Z" class="cls-15"/><path d="m60 121 4 2v1l-4-3ZM60 121l-4-3 1-1 3 3h-1ZM56 117l-3-2 3 3v-1Z" class="cls-20"/><path d="m75 130-2-1 2-1v2Z" class="cls-15"/><path d="m44 105-1-1 2 1h-1ZM43 103l-1-1 1 1h-1Z" class="cls-20"/><path d="m49 142-1-1 1-1h1l2 2h-3ZM42 143c0-2 1-1 2-1l-1 1h-1ZM46 140h-1 1Z" class="cls-10"/><path d="M233 86Z" class="cls-14"/><path d="m217 106 1-1v-3l1-1v-2l1-4 1-3 1 1-1 3-1 6-1 2 1 1 2-8 1-5v-2l1-4-1-1v3l-1 1v-4h-1l-1-5v-1h1v-3h-1v1l-1 1 1 1-1 1-2-2 3-6c4-2 7 0 8 4l2 8 1 5v13h-1c-1-2-2-2-3-1l-4 5c-3 2-5 5-7 9l-1 2-1-1 1-2v-1l1-7Zm7-22-2-4v3l2 1Z" class="cls-24"/><path d="M229 105h-1l-4 1 3-3h1l1 2Z" class="cls-5"/><path d="M212 112h1v2h-1v-2Z" class="cls-13"/><path d="m222 111 3-2-3 2Z" class="cls-22"/><path d="m212 122 1-2h1l-2 2Z" class="cls-1"/><path d="m216 113-1 2-1-1h1l1-1Z" class="cls-17"/><path d="M184 80v-2h1v-1l1 1v1l-1 1 1 1v1h-1l2 3v-7l2 1 1 3v14l-1 5-1 3-1-2v-4l-1-3v-4l-1-4v-2l-1-4v-1Zm2 6 1 1-1-1Z" class="cls-24"/><path d="m222 88 1 1v-3l1-1v1l-1 4v2l-1 1-1-1c0 1 1 3-1 3h-1l1-2v-1l-1-1-1-1-1-3-1-2v-1l-1 1 2 5 1 3 1 1-1 1-1-3-2-4-1-1 1-4 1-2 2 3 1 3v2l1 1h1l-1-1c0-2 0-4-2-6v-5l1 1v3c2 1 2 3 2 5l1 1Z" class="cls-5"/><path d="m193 99-2-2v-1l-1-9v-4l1-2 4 11 1 1-1 2-1 3h-1Z" class="cls-24"/><path d="m214 87 1 1 2 4 1 3-1 3v-2l-1-3-2-3-1-1 1 5 2 4 1 4-1-2-3-6-1-2 2-5Z" class="cls-14"/><path d="M185 88v7l-1 1-1-5 1-1v-1l1-1Z" class="cls-11"/><path d="M195 109h-1v-2l4-4v6l-2-1-1 1Z" class="cls-5"/><path d="M191 96c-2 0-2 1-2 2v4l1 1v5l-2-4v-3l1-5h1Z" class="cls-13"/><path d="m199 103 2 1 4 5h-1l-1-2-2-2-2-1v-1Z" class="cls-5"/><path d="M193 99v9l-1-1v-8l1-1Z" class="cls-4"/><path d="m206 104-1 5v-4c-2 0-2 0-2-2v-1c1 1 1 3 3 2Z" class="cls-13"/><path d="M212 99h-1l-1 4h-1l2-8v2l1 2Z" class="cls-6"/><path d="m190 103-1-1v-4l2-2v1l-1 4v2Z" class="cls-7"/><path d="m191 81-1 2v3l-1-2v-2l1-1c1-2 0-3-1-3v-1c2 1 2 2 2 3v1Z" class="cls-13"/><path d="m212 99-1-2v-3l1 2 1 3h-1ZM195 109l1-1 2 1v2l-1 1v-2c0-1-1-2-2-1v-1Z" class="cls-22"/><path d="m214 102-1 1h-2v-1h3Z" class="cls-15"/><path d="M198 107v-1h1v2l-1-1Z" class="cls-20"/><path d="M199 103v1h-1v-1h1Z" class="cls-10"/><path d="M194 108Z" class="cls-22"/><path d="M183 106v-1 1Z" class="cls-8"/><path d="M194 108ZM186 58c1 1 3 3 3 5l-4-5h1Z" class="cls-22"/><path d="M177 80h-1 1ZM176 79h-1 1Z" class="cls-17"/><path d="m218 78-1 2 1 3 2 6v2l-1-2v-1l-2-4-1-3c0-1 0-3 2-3Z" class="cls-13"/><path d="m137 102-1-1 1 1Z" class="cls-2"/><path d="m185 88-1 1v1l-1-10v-1l1 1v8Z" class="cls-20"/><path d="M189 78c1 0 2 1 1 3l-1-2-2-1h-1l-1-1h4Z" class="cls-1"/><path d="M180 104h-1l-1-1 1-1 1 2Z" class="cls-20"/><path d="M185 77v1h-2c1 0 0 0 0 0l1-1h1Z" class="cls-10"/><path d="M181 105h-1 1Z" class="cls-2"/><path d="M167 94h-1c-1-1-1 0-1 1v1l-1-2v-2l1-2-1 3-1-4h1v-1l3 6Z" class="cls-23"/><path d="m151 88 5 15c-2-1-6-14-5-15Z" class="cls-15"/><path d="m153 90-1-2c1-2 0-3-1-4l-1-3 1-1v1l2 8Z" class="cls-23"/><path d="m159 94-2-5-2-7v-1l2 5 2 5v2ZM159 94l1 1 2 4v2l-3-8Z" class="cls-1"/><path d="M163 89h-2l1-3c2 0 1 2 1 3Z" class="cls-23"/><path d="M155 81ZM275 149l2-4 14-16 3-4-2 4-3 3-4 6-8 10-2 1ZM228 177l4-4 2-1 3-2h1l4-2 3-2v1l-3 2-8 4-6 4Z" class="cls-1"/><path d="m238 174 6-4 9-5-3 2-11 6-1 1Z" class="cls-15"/><path d="m253 165 5-4 2-1-1 1-4 3-2 1Z" class="cls-9"/><path d="m241 166-2 1h-1l1-1 4-4h1l-2 2-1 1Z" class="cls-15"/><path d="m251 163-6 4v-1l4-3h2Z" class="cls-20"/><path d="m260 160 2-2 3-2-1 1-4 2ZM260 157l-2 2-1-1 3-2v1ZM254 161l2-2v1l-2 1Z" class="cls-9"/><path d="m251 163 1-1h1l-2 1Z" class="cls-20"/><path d="m256 159 1-1v1h-1ZM254 161h-1 1ZM261 156v1-1Z" class="cls-9"/><path d="M294 125Z" class="cls-1"/><path d="M248 127c1-3 2-5 5-7l2-3 3-2v2l-1 2-2 2-3 4c0 2-1 3-3 3l-1-1Z" class="cls-6"/><path d="m258 125 1-4 5-9v-1l-1 3-4 8-1 2ZM252 135l3-7 2-3 1-1-5 10h-1Z" class="cls-20"/><path d="M258 115v-2l3-3c0 2-1 3-3 5Z" class="cls-14"/><path d="m248 127 1 1-3 4h-1l3-5Z" class="cls-10"/><path d="M228 148h-1l6-4-1 1-5 3Z" class="cls-22"/><path d="m246 144-2 3-3 3h-1l6-6ZM248 141v-1l3-5 1-1-4 7Z" class="cls-20"/><path d="m226 157 4-3-4 3Z" class="cls-1"/><path d="m235 142-2 2 2-2Z" class="cls-22"/><path d="m246 144 1-2v1l-1 1Z" class="cls-20"/><path d="M225 158c0-2 1-1 1-1l-1 1Z" class="cls-1"/><path d="m248 141-1 1 1-1Z" class="cls-20"/><path d="m237 140-1 1 1-1Z" class="cls-22"/><path d="M230 153h1-1Z" class="cls-1"/><path d="M239 152ZM239 152l1-1h-1v1ZM239 152h-1 1Z" class="cls-20"/><path d="m190 185 2-3h3l-3 2-1 2-1-1Z" class="cls-23"/><path d="M211 158v-2h1l1 2-1 4h-1l1-2c1-2 0-2-1-2Z" class="cls-9"/><path d="m215 171 3-8c0 3-1 5-3 8Z" class="cls-20"/><path d="m186 185 2 1-1 1-2-2 1-1Z" class="cls-1"/><path d="m193 177 3-4 2-2c-1 2-2 5-5 6Z" class="cls-20"/><path d="M186 191v-3h1l-1 2Z" class="cls-25"/><path d="m181 180-1 1 4-7v1l-2 4-1 1Z" class="cls-15"/><path d="m211 158-1 5h-1v-1l2-4h1Z" class="cls-10"/><path d="m203 175 3-5c-1 2-1 4-3 5Z" class="cls-20"/><path d="M188 188v-2l2 1-2 1Z" class="cls-25"/><path d="m207 159 1-2v1l-1 1Z" class="cls-8"/><path d="m207 168-1 1 1-1ZM202 177l1-2-1 2ZM202 177l-1 1 1-1Z" class="cls-20"/><path d="m209 180-1 1 1-1Z" class="cls-1"/><path d="M199 173v-1h1l-1 1Z" class="cls-20"/><path d="M184 175v-1 1Z" class="cls-15"/><path d="M201 178v1-1ZM201 179h-1 1Z" class="cls-16"/><path d="M253 191v-1c1 0 2 0 1-1l4-1h1l9-4 4-2h3l-4 3h-2l-3 2-13 4Z" class="cls-6"/><path d="m253 191 13-4-4 2-12 4h-4l1-1 6-1Z" class="cls-1"/><path d="M224 193h18l-1 1-17-1Z" class="cls-20"/><path d="M254 190h-14v-1h9l5 1Z" class="cls-9"/><path d="m224 193-12 1v-1h12Z" class="cls-2"/><path d="m280 176 9-9-8 10-1-1Z" class="cls-1"/><path d="m261 181-13 4v-1l13-4Z" class="cls-8"/><path d="M212 193v1h-2l-1-1h3Z" class="cls-15"/><path d="M243 193h3-3Z" class="cls-1"/><path d="m266 187 3-2-3 2ZM269 185h2-2Z" class="cls-20"/><path d="M247 185Z" class="cls-8"/><path d="M125 154h-3l-1-2v-2l-2-2-4-6v-1a20 20 0 0 0 4 4l2 2c1 2 2 4 5 5l1 2h-2Z" class="cls-9"/><path d="m115 142 4 6 2 2-1 1-4-6-3-5-2-7 1 1 2 5h-1l1 1 1 2Z" class="cls-19"/><path d="m118 142-2-3-1-2v-1l4 4-1 1Z" class="cls-25"/><path d="m114 140-1-1h2l4 6v1l-2-2-2-3-1-1Z" class="cls-16"/><path d="m125 154 2 1 4 3 1 1h-1l-6-5Z" class="cls-2"/><path d="M125 133h1a254 254 0 0 1 6 6l-7-6Z" class="cls-13"/><path d="M118 142h1l4 4v1h-1l-4-5Z" class="cls-25"/><path d="m119 129 3 1 2 2 1 1-6-4Z" class="cls-14"/><path d="m137 162 2 1-2 1v-2Z" class="cls-21"/><path d="m137 166-2-2h1l1 2ZM139 167v1l-2-2 2 1Z" class="cls-10"/><path d="M134 161s0 1 0 0l-2-1v-1l3 1Z" class="cls-15"/><path d="m136 144 2 3-2-3Z" class="cls-20"/><path d="M137 162v1h-1l-1-2 2 1Z" class="cls-10"/><path d="m134 141-1-1h1l1 1h-1Z" class="cls-13"/><path d="m138 148 1 1-1-1Z" class="cls-20"/><path d="M114 133v1l-1-1ZM115 134v2l-1-1v-1Z" class="cls-8"/><path d="M139 150h1v1l-1-1ZM136 144l-1-1 1 1Z" class="cls-20"/><path d="M113 133Z" class="cls-8"/><path d="M139 149v1-1ZM136 144Z" class="cls-20"/><path d="M119 129Z" class="cls-14"/><path d="M136 144Z" class="cls-20"/><path d="M132 159Z" class="cls-2"/><path d="M177 164c-1 0-2 1-1-1h-1l-1-3-1-5h1l1 1v-1c-1-1-1-2-2-1l-1-1 2-1-1-2 3 1v5l1 4 1 4Z" class="cls-6"/><path d="m170 156-1-1h-1v-1l-1-1v1c-2 0-2-3-3-4l1 1 1 1h1c0-1 0-2-2-3-1-1 0-1 1-2l1 3 1 2 2 1-1-1 1-1h-1l-1-1h1l1-1h-2v-2l2 1 1 4 2 9-2-1 1-1v-1l-2-2Z" class="cls-23"/><path d="M185 164c0 1-2 0-2 2l-1 1-1-2c2-1 2-4 0-5v-5l-1 1v3c0-1-2-3 0-4v-1l1-1 1 1c1 2 0 5 2 6v-1h1v5Z" class="cls-21"/><path d="M176 145v-3l1-2h1l-1 4v1l1 1v-4l1 1v11l-1 1-1-3v-5c1-1-1-1-1-2Z" class="cls-11"/><path d="M177 164v-4l-1-5-1-4-2-2h2l-1-2v-5l-1-3v-4l-1-6 1 3 2 13v1l1 2v1l1 6 1 5v4ZM184 160c-2-1-1-4-2-5l-1-8-1-4-1-6-1-8-1-3 1 2 1 7 1 2v4l2 8 1 7 1 2v2Z" class="cls-20"/><path d="m178 161-1-6-1-6-1-1v-3h1v2c2 2 0 4 1 5l1 2v4l1 2v1h-1l-1-1Z" class="cls-21"/><path d="m179 160-1-2v-3l1-1v-5l1 2v4c-2 1-1 3-1 4v1Z" class="cls-14"/><path d="m168 150 1 1v1l1 1h-1l-1-1-1-2-1-3-1-2 2 2-1-3h-1l1-1v1l2 1v4Z" class="cls-20"/><path d="m171 152-1-4v-8l1 5v6Z" class="cls-16"/><path d="m169 134-1-8v-10l1 6 1 12h-1Z" class="cls-20"/><path d="m177 130-1 8c-1-2 0-7 1-8Z" class="cls-14"/><path d="M165 134v8-8Z" class="cls-20"/><path d="M177 126h-1l-1 6v-2l1-4 1-1v1Z" class="cls-13"/><path d="M172 152v-2h1l1 2-2 1-1-1Z" class="cls-15"/><path d="M170 144v2l-2 1v-1l1-2h1Z" class="cls-23"/><path d="M178 140h-1c-1-1 1-3 1-4v4Z" class="cls-14"/><path d="M166 144v-6h1v6Z" class="cls-11"/><path d="M169 134h1v6-6c0 1 0 0 0 0Z" class="cls-19"/><path d="M177 125h-1l-1-5h1l1 5Z" class="cls-15"/><path d="m185 150 1 2-1 1v-3Z" class="cls-13"/><path d="M172 130v-1l-1-4h1v5Z" class="cls-10"/><path d="M165 149c2 0 2 1 2 3v-1l-1-2Z" class="cls-15"/><path d="M168 155h1v2c-1-1-2-1-1-2ZM167 154v-1l1 1h-1Z" class="cls-3"/><path d="M174 149h-1 1Z" class="cls-6"/><path d="M171 146v-1 1Z" class="cls-15"/><path d="M169 159Z" class="cls-3"/><path d="M165 144h1l-1 1v-1Z" class="cls-11"/><path d="M169 134c0 1 0 0 0 0Z" class="cls-20"/><path d="m199 124 1 1h1-1l-1 1v4l-1 4 1 1v-2l1-3v-1l1 2v5h-1l1 3c-1 2-2 3-4 3-1 0-3 2-3 4v2h-2c1-2-1-4-1-5l-1-1 1-1-1-5v-1h1l1-2 1-2v-4h1v3h1v-2l1-2h1l1-2h1Z" class="cls-5"/><path d="m202 123 1-5v10l-1-2v-2l-1-1 1-1Z" class="cls-25"/><path d="m198 124-1 2h-1v-5l-1-3v-1l2 3h-1l1 1 1 3Z" class="cls-14"/><path d="M199 119h-1l-2-4 1-2h1v3l1 3Z" class="cls-22"/><path d="M189 140v-10l1-3-1 3v6l1 4h-1Z" class="cls-11"/><path d="M187 147v-1l1-1v-8l1 8-2 2ZM201 131l-1-3v-3h1l1 6-1 5v-5Z" class="cls-8"/><path d="M190 143h1c0 1 2 3 1 5h-2v-2l1 1v-1l-1-4Z" class="cls-13"/><path d="m190 148 1 1-2 8v-1l1-5v-2Z" class="cls-16"/><path d="M191 126v-4l1-4v3l-1 5Z" class="cls-1"/><path d="m197 145-2 7h-1l2-7h1Z" class="cls-10"/><path d="M194 126v-4c1 0 2 2 0 4Z" class="cls-5"/><path d="M194 117v4h-1l1-4Z" class="cls-15"/><path d="M191 126v4-4Z" class="cls-20"/><path d="M191 135h-1v-4h1v4Z" class="cls-8"/><path d="M193 126v-4 4Z" class="cls-20"/><path d="m198 107 1 2v1h-1v-3Z" class="cls-10"/><path d="M198 117v-4l1 1-1 3Z" class="cls-6"/><path d="M201 139v-4 4Z" class="cls-8"/><path d="m205 132-1-3h1v3Z" class="cls-1"/><path d="m191 149-1-1h1v1ZM189 140h1v1l-1-1ZM202 123l-1 1 1-1Z" class="cls-5"/><path d="M194 154v-1 1Z" class="cls-10"/><path d="M191 147h-1v-1 1ZM193 126h-1Z" class="cls-5"/><path d="M205 120v-1 1Z" class="cls-1"/><path d="m220 133 1-4-1-1 1-5-3 5v3l-2 1h-1l-1 2 1-3v-2q2 0 2-2l1-1s-1-2 1-2c-1-1 1-2 1-3 0-3 2-5 3-7l-1 5h1v-1l1-2h2v2l-1 2-1 1c1 2-1 3-1 5h-2l1 1v3l-1 1-1 1Zm2-13-1 1h1v-1Z" class="cls-25"/><path d="m220 116-8 15 8-15Z" class="cls-9"/><path d="M228 116v4l-2 4v3h-1v-3l1-5h1l1-3Z" class="cls-10"/><path d="m209 146-2-1 4-5 1-1-1 3v1l-1 1-1 2Z" class="cls-9"/><path d="M220 145c-1 0-2 0-3-2l1-1 1 2v-5h1l1 2-2-1 1 3v2Z" class="cls-10"/><path d="M211 143v-1l1-3v-2l1-1h1l-1 3-1 3-2 1Z" class="cls-15"/><path d="m232 116-1 5-1 1 1-6-1-2v-1l1 1 1 2Z" class="cls-14"/><path d="M205 144v1l-1 1v-1l2-4 2-2v1l-2 4Z" class="cls-22"/><path d="m208 138 4-7c0 1-2 6-4 7Z" class="cls-9"/><path d="m231 114-1-1-1-5 2 5Z" class="cls-19"/><path d="m209 146 1-2v2h-1Z" class="cls-1"/><path d="m214 135 1-3h1l-1 3h-1Z" class="cls-15"/><path d="M214 135h1l-1 1-1 1v-2h1Z" class="cls-25"/><path d="M226 116h-2l1-2 1 2Z" class="cls-20"/><path d="M222 141v-2l1 1-1 1Z" class="cls-9"/><path d="m223 114 1-2v2h-1c1 0 0 0 0 0Z" class="cls-25"/><path d="m222 142-1 1v-1h1Z" class="cls-9"/><path d="m101 165-5-4-4-3-1-1v-1l7 6 7 4 7 4 3 1v1h-1l-1-1-6-3-4-2-2-1Z" class="cls-1"/><path d="M126 177v-1l6 3 2 1v1h-1l-3-2h-1c-1 0-1-2-3-2Z" class="cls-20"/><path d="m121 170 1-1v1c2-1 2 0 2 1-1 1 1 2 1 3l-2-2-2-2Z" class="cls-10"/><path d="m126 177-7-3h2l5 3Z" class="cls-1"/><path d="M119 174h-1l-1-1-2-2 2 1h1l1 2ZM135 179l3 5-4-5h1Z" class="cls-14"/><path d="m131 173 2 3-2-3Z" class="cls-1"/><path d="M134 178h-1l1-1v1Z" class="cls-14"/><path d="m125 174 1 1-1-1Z" class="cls-10"/><path d="M113 171h1-1Z" class="cls-14"/><path d="m309 151 2-1 5-2h2v1l-2 1h-2l-2 1v1h-1l-2-1Z" class="cls-25"/><path d="M312 161h-1l1-1 5-3 4-3v1l-5 3-4 2ZM303 158h-1l2-2 3-1v-1c0 2-1 2-2 2l-2 2Z" class="cls-1"/><path d="m167 180-2-1-10-11-5-3-1-1 4 2 12 12 2 2Z" class="cls-14"/><path d="m157 177 1 1 4 5v1l-1-1v2l-4-7v-1Z" class="cls-11"/><path d="m172 186-1 3c-2-1-3-2-4-5l1 1 2 1 1-1 1 1Z" class="cls-23"/><path d="m172 186-1-1-4-4v-1l3 2 4 5v1l-3-2Z" class="cls-1"/><path d="M157 177v1l-5-8 3 4 2 3Z" class="cls-16"/><path d="m151 175 1 2 3 5v1l-1-2-3-5v-2 1Z" class="cls-15"/><path d="M153 186v-1 1l2 1 1 3-1-1-3-3Z" class="cls-22"/><path d="m152 170-4-4v-1l1 1 3 4Z" class="cls-15"/><path d="M162 184v-1l2 2v1l-2-2Z" class="cls-14"/><path d="M153 186h-1v-2h1v2Z" class="cls-23"/><path d="m150 184-1-1h1v1Z" class="cls-20"/><path d="m150 173 1 2-1-2Z" class="cls-15"/><path d="m163 187-1-1 1 1Z" class="cls-8"/><path d="m162 186-1-1 1 1Z" class="cls-11"/><path d="M156 184v-1ZM156 184l-1-1 1 1Z" class="cls-15"/><path d="M152 170Z" class="cls-16"/><path d="m90 138 1 2c2 1 2 3 3 5l-2-3-1-2-1-1 2 5-1-2-2-5h1Z" class="cls-20"/><path d="M109 153h-1l1 1-5-3v-1l1-1 4 3Z" class="cls-8"/><path d="M105 150h-1l-7-6v-1l8 7Z" class="cls-16"/><path d="m92 138-2-3-3-4h-1v-1l3 3 3 5Z" class="cls-15"/><path d="m98 137 7 5-7-5Z" class="cls-17"/><path d="M90 138h-1l-3-5h1l3 5Z" class="cls-16"/><path d="M87 133h-1l-3-5h1l1 2 1 1 1 2Z" class="cls-1"/><path d="m92 138 4 5h-1l-3-5Z" class="cls-19"/><path d="m116 158-3-2 3 2ZM113 155c-1 0-3 0-3-2l3 2Z" class="cls-8"/><path d="M95 143h2l-1 1-1-1Z" class="cls-16"/><path d="m86 131-1-1h1v1Z" class="cls-7"/><path d="m110 154-1-1 1 1Z" class="cls-8"/><path d="m97 135 1 1h-1v-1ZM106 143ZM106 143h-1 1Z" class="cls-17"/><path d="M120 170c-1-1-1-2 1-2l-1 2ZM118 173l-1-1v-1h1v2Z" class="cls-21"/><path d="M91 156v1-1Z" class="cls-19"/><path d="m293 195 6-1h1l4 1h1l5 1h-1l-7 1-2 1-7 1-1-1-1-1 1-2h1ZM284 192l3-1h5l6-1 3-1h4-1l-4 2-1 1h-5l-2 1-6-1-2 1s1-1-1-1Z" class="cls-23"/><path d="M284 192v1h8v1h-1l-2 1h-10l1-1 3 1 1-1c-2-1-4 1-5-1v-1l3 1 1-1h1Z" class="cls-7"/><path d="m289 195 2-1h1l1 1-1 1-1 1 1 1 1 1-7-1-1-1h-1 1l3-1s1 1 1-1Z" class="cls-10"/><path d="M289 195c0 2-1 1-1 1l-3 1h-1 1l1 1h-2c0-1-1-2-3-2h-5l-1-1h14ZM309 199l-1 1h-16l6-1h11Z" class="cls-1"/><path d="m309 199 2-1 4-2 6-3h1-1l-7 4-5 2Z" class="cls-20"/><path d="M311 192h7v1h-7v-1Z" class="cls-13"/><path d="m292 193 2-1h5l-4 1h-3Z" class="cls-10"/><path d="M292 200h-6 6Z" class="cls-19"/><path d="M286 200h-2c-1 0-2 1-3-1h1l4 1Z" class="cls-1"/><path d="M292 194h-1 1Z" class="cls-23"/><path d="m76 176 1 1c-1-1-3-2-3-4v1l2 2Z" class="cls-11"/><path d="M83 179h2v1l-2-1Z" class="cls-14"/><path d="M62 167c2 0 2 2 3 2v1l-3-3ZM62 167l-2-1h1l1 1Z" class="cls-9"/><path d="M298 164c1 1 1 1 1-1 2 1 5-1 6-3l1 1-4 3-3 2h-2l-1 1v-1l2-2Z" class="cls-13"/><path d="m305 165-4 2-4 1 5-3 2-1h1Z" class="cls-8"/><path d="m311 161-3 2h-1l-2 1 1-1 4-2h1Z" class="cls-1"/><path d="M297 168v1l-4 2 1-2 3-1Z" class="cls-15"/><path d="m308 161-2-1h1l1 1Z" class="cls-13"/><path d="m147 138 1 1 1 6v1l-2-8Z" class="cls-19"/><path d="M154 146h-1l-2-3v-1l3 4Z" class="cls-15"/><path d="M149 146v-1h1v2l-1-1Z" class="cls-16"/><path d="M155 147v-1 1ZM159 216l-4-1-7-4 4 2 6 3h1Z" class="cls-15"/><path d="M163 206h2c1 0 2 0 2 2-1-1-1-3-2-1h-2l-1-1v-1h1Z" class="cls-10"/><path d="M157 206h1l1 2-2-2Z" class="cls-1"/><path d="M225 191h7-7Z" class="cls-14"/><path d="m223 205-2 1 6-5v1l-4 3ZM227 201h1-1ZM293 115l-2 2v-1l2-2ZM293 115l2-2-2 2Z" class="cls-20"/><path d="m98 183 1 1h1l1-2 3 1 5 2 2 2h-1l-4-1h-1l1 1c-2 0-3-3-6-2l2 1c-2-1-4-1-4-3v-1ZM126 189l1 2-3-1h-1l-1 1-8-4v-1l11 3Z" class="cls-1"/><path d="m114 186-1 1h-2l-2-2 6 1Z" class="cls-14"/><path d="M100 182Z" class="cls-1"/><path d="m305 164 2-1-1 2h-1v-1Z" class="cls-4"/><path d="m289 172 4-2-4 2Z" class="cls-16"/><path d="M301 169c0 2 0 2-2 1l2-1Z" class="cls-24"/><path d="M57 180h-2l-3-2h-1 6l3 1c0 1 0 2 1 1l1 1h-2l-1-1h-2Z" class="cls-23"/><path d="M63 177h2l1 1-1 1 4 2v1l-4-2-2-2v-1Z" class="cls-21"/><path d="m61 182 1-1 1 1c1 0 2-1 2 1l-4-1Z" class="cls-20"/><path d="M57 180h2l1 2-3-2Z" class="cls-14"/><path d="m60 180-3-1v-1l3 1ZM61 181l-1-1 1 1Z" class="cls-20"/><path d="m96 144 4 4 3 4s1 0 0 0l-3-3-4-4v-2Z" class="cls-15"/><path d="m112 157-3-2h1l2 1ZM112 157h1-1Z" class="cls-8"/><path d="m240 176 10-5-10 5ZM238 178v-1l2-1v1l-2 1Z" class="cls-9"/><path d="m209 182 1-2 1 1h-2Z" class="cls-14"/><path d="m116 145 4 5v1l-2-2v1l-1-1-1-4Z" class="cls-25"/><path d="m121 152 1 2 4 5-2-1-4-6h1Z" class="cls-16"/><path d="M121 152h-1l-2-2 2 1 1-1v2Z" class="cls-15"/><path d="m129 162 2 1-2-1Z" class="cls-22"/><path d="m117 149 1 1-1-1Z" class="cls-15"/><path d="m128 161 1 1-1-1ZM128 161Z" class="cls-22"/><path d="m76 176-2-2c2-1 3 0 2 2Z" class="cls-24"/><path d="m88 181-1-1v-1l1 2ZM87 179l-2-1h1l1 1h-1Z" class="cls-10"/><path d="M98 183v1l-1-1h1Z" class="cls-8"/><path d="M103 187Z" class="cls-1"/><path d="M249 104v3l2-1 2 4h-2v-2l-2-1-1-1-1-2h2ZM243 105l2 1 2 4v1l-4-7Z" class="cls-10"/><path d="m247 109-1-3-2-3h1l1 2 3 2-2 2ZM250 111h-1l-2 4v-1l1-3 1-2h1v1l-1 1Z" class="cls-14"/><path d="m243 107 3 6c-1-1-4-5-3-6Z" class="cls-17"/><path d="m247 115-4 8h-1l3-5 2-3Z" class="cls-1"/><path d="m242 110 2 4-2-4Z" class="cls-17"/><path d="m241 112 2 3v1c-1-2-3-2-2-4Z" class="cls-20"/><path d="M250 110v-1l1-1v3h-1v-1Z" class="cls-24"/><path d="M245 114v1l-1-1h1Z" class="cls-17"/><path d="m150 201-3 3v-1l3-2Z" class="cls-10"/><path d="M94 145h1l3 4v1l-4-5ZM101 154l-3-4 3 3Z" class="cls-20"/><path d="m133 164-1-2v-1l2 2h-1ZM131 162l-1-1h1v1Z" class="cls-14"/><path d="m159 190-1-2 4 1 1 1h-4Z" class="cls-1"/><path d="M161 194c2 0 2 0 3 2l-3-1v-1Z" class="cls-22"/><path d="M161 194v1h-2l1-1h1Z" class="cls-14"/><path d="M163 191v-1l2 1h-2Z" class="cls-5"/><path d="m165 195-1-1 1-1v2Z" class="cls-13"/><path d="m165 189-1-1 1 1ZM164 188l-1-1 1 1ZM166 189v1l-1-1h1Z" class="cls-8"/><path d="M204 205h-1l2 2-3-2-5-5v-1l2 2 2 1v1l1 1h1l-1-2h1l1 2ZM208 208l-4-3 4 3Z" class="cls-1"/><path d="m202 203 1 1h-1l-1-1 1-1Z" class="cls-25"/><path d="M203 201c1-1 1-1 1 1l-1-1Z" class="cls-1"/><path d="M203 203h-1v-1h1Z" class="cls-25"/><path d="M108 172v1-1Z" class="cls-21"/><path d="m153 158-5-8v-2l1 1 4 8Z" class="cls-17"/><path d="M174 181h1v1l-1-1Z" class="cls-1"/><path d="m216 98-2-4-1-5 1 1 1 3 1 3 1 2v-2l2-1v3l-1 2v2h-1l-1-4-1-1Z" class="cls-4"/><path d="M217 103h1v2l-1-1v-2Z" class="cls-25"/><path d="M199 209h1c1 0 0 0 0 0h-1Z" class="cls-1"/><path d="M166 160v1l-1-1v-1l1-1v1c1 0 0 0 0 0l-1 1Z" class="cls-22"/><path d="m283 192-1 1-3-1-2 1-1-1v-2l1 1h4l2 1Z" class="cls-15"/><path d="m276 192 1 1 1 1h-2v-2Z" class="cls-15"/><path d="m278 194-1-1v-1l1 1Z" class="cls-21"/><path d="m203 147-1 2h-1l2-2Z" class="cls-1"/><path d="m201 150-2 2 2-2Z" class="cls-15"/><path d="M250 110v1-1Z" class="cls-5"/><path d="M304 200ZM287 200Z" class="cls-10"/><path d="M284 190v-2h8l2 1-4 1h-6Z" class="cls-3"/><path d="M292 188h-9l-2-1v-1l7 1h6v1h-2Z" class="cls-20"/><path d="M202 187h-1 1Z" class="cls-10"/><path d="m170 156 2 2v1l-1 1 2 1v1c-2 0 0 1-1 1h-1l-1-5v-2Z" class="cls-7"/><path d="M178 164v-2l1 1v2l2-2v1l-1 2h-1l-1-1v-1Z" class="cls-5"/><path d="m178 165 1 1-1 1c1 1 2 2 0 3v-5Z" class="cls-1"/><path d="M172 164c1-1-1-2 1-2l1 1v2h-1l-2-1Z" class="cls-23"/><path d="M174 165v-3l1 1v1l-1 1Z" class="cls-1"/><path d="M73 184h4l1 1h-6l1-1Z" class="cls-7"/><path d="M79 184Z" class="cls-1"/><path d="M166 189h-1l-1-1-1-1-1-1-1-1v-2l1 1 2 2 2 1v2Z" class="cls-7"/><path d="M163 206h-1l-1-1 1-1h2v1l-1 1Z" class="cls-6"/><path d="M161 204h-2 2Z" class="cls-7"/><path d="M75 182h1v1h-1c-3 0-4-2-6-4l3 2 3 1Z" class="cls-1"/><path d="m69 181-4-2 1-1-1-1 2 1v1h2v2Z" class="cls-22"/><path d="m180 166 1-2v-1l-2 2v-2l2-1v-1h-2v-1l1-1v-3h1v4c2 1 2 4 1 6v1l-1 1-1-1v-1ZM275 193v-2 1Z" class="cls-15"/><path d="M275 193v-1h1v1l-1-1Z" class="cls-10"/><path d="m72 183-3-1 1-1 2 2Z" class="cls-15"/><path d="m154 202 1-1 1 1v1l-2-1ZM153 203l1-1h-1ZM207 209l-2-1h2l-1 1Z" class="cls-1"/><path d="m220 128 1 2-1 3-4 8-2 2 4-8 1-3v-1l1-3Z" class="cls-5"/><path d="m220 128-1 3v1h-1v-1l1-1v-2h1Z" class="cls-20"/><path d="m305 94-4 6h-1l5-6Z" class="cls-17"/><path d="m302 74-5 6 5-6ZM303 73Z" class="cls-14"/><path d="m268 92-3 1 3-2v1ZM269 91Z" class="cls-17"/><path d="m303 108-1 1v-1h1Z" class="cls-16"/><path d="m39 142-7 1h-1l1-1 6-1 1 1ZM251 102l-1 1c3 1 3 4 5 5v1h-1l-1-1-4-5 1-1h1Z" class="cls-10"/><path d="M256 106h-1l-2-3v-1h1l2 3v1Z" class="cls-12"/><path d="m257 104-1-1-2-2 1-2h1l1 3v2Z" class="cls-9"/><path d="m258 100-1-2v-2l1-2v6Z" class="cls-25"/><path d="M252 98v-3h1l-1 3ZM248 104h-1l-1-2 2 2ZM256 99h-1l-1-1v-1h1l1 2Z" class="cls-21"/><path d="M249 103v-2h1l-1 2Z" class="cls-10"/><path d="m249 103 1-2v1l-1 1Z" class="cls-21"/><path d="M251 111v-1l1 1-1-1Z" class="cls-5"/><path d="m252 111 1-1v1h-1Z" class="cls-11"/><path d="M142 123v3l-3-2v-1l-1-2-2-2 1-4h1l3 4 1 4Z" class="cls-16"/><path d="M133 120c-1 0-1-1 1-2l-1 2Z" class="cls-23"/><path d="M142 123Z" class="cls-13"/><path d="M124 92Z" class="cls-16"/><path d="m103 119-2-1 2 3 2 3-9-11-1-2h2l-1 1 3 2h1l3 4v1Z" class="cls-2"/><path d="m103 118-3-4 1-1 4 5h1l5 4-2-1-2-1-1 1-1-1-2-2Z" class="cls-21"/><path d="M107 128v1l-8-10 3 3 4 4 1 2Z" class="cls-22"/><path d="m103 118 2 2 1 1 1 2v1l-4-5v-1ZM106 118h-1l-4-5 2 2 3 3Z" class="cls-20"/><path d="m99 114-3-2h1l2 2Z" class="cls-15"/><path d="m105 124 2 2-2-2Z" class="cls-17"/><path d="M96 111h-1l-1-2 2 1Z" class="cls-8"/><path d="m107 128-1-1 1 1Z" class="cls-21"/><path d="M106 118Z" class="cls-20"/><path d="M96 111v-1 1Z" class="cls-8"/><path d="M156 116v3l1 3 1 4-1 4v-2l-1-2v-3l-1-4v-4l1 1Z" class="cls-10"/><path d="m156 116-1-1c-1-1 0-1 1-2h-1l-3 1 1-3h2v1h2c1 0 2 0 1 1l-1 3h-1Z" class="cls-25"/><path d="m153 111-1 3v1h-1l1-2v-3l1 1h1Z" class="cls-20"/><path d="M151 116h1v4h-2l1-4Z" class="cls-2"/><path d="m157 116 1 1v2l1 3h-1l-1-7Z" class="cls-13"/><path d="M157 112h-1l-1-2 2 2Z" class="cls-4"/><path d="M124 120v-4l1 1 1 2-2 1Z" class="cls-11"/><path d="M129 119v-3l1-1h1l-1 2-1 2Z" class="cls-22"/><path d="m129 114-1 3-1-2h1l1-1ZM125 117l-1-1h-1 1l1 1Z" class="cls-20"/><path d="M128 115h-1 1ZM127 115v-1 1Z" class="cls-23"/><path d="m129 119 1-2 1-2h1v1c-1 1-1 3-3 3Z" class="cls-7"/><path d="m125 102-1 3c-1-1 0-3 1-3Z" class="cls-24"/><path d="m155 110 1 2h-1v-1l-2-5 1 1 1 3Z" class="cls-2"/><path d="m153 111-1-1-1-4h1l1 5Z" class="cls-19"/><path d="m165 96 1 3-1-3Z" class="cls-15"/><path d="m198 124-1-3v-1l1 3 1 1h-1Z" class="cls-24"/><path d="m222 88-1-1c0-2 0-4-2-5v-2h1l2 5v3Z" class="cls-9"/><path d="M222 93c0-1 0-2 1-1l-1 4-2 8v-2l1-6c1-1 2-2 1-3Z" class="cls-10"/><path d="m224 84-2-1v-3l1 4Z" class="cls-8"/><path d="M218 102v-2l1-2v3l-1 1Z" class="cls-11"/><path d="M219 99v-4h1l-1 4Z" class="cls-25"/><path d="m220 77 1-1v3h-1v-2Z" class="cls-9"/><path d="M220 79v1-1ZM220 77v1-1Z" class="cls-5"/><path d="M190 86v1l1 9h-2v-1l1-2v-7Z" class="cls-15"/><path d="M187 82v3l-2-3h2ZM189 79l1 2-1 1v-3Z" class="cls-4"/><path d="M187 82h-1v-4l1 1v3Z" class="cls-8"/><path d="M186 86c2 0 1 1 1 1l-1-1ZM190 86v1l-1-3 1 2ZM187 81v-3 2l-1 1ZM186 79v2l-1-1 1-1ZM190 93l-1 2 1-2ZM190 89v1-1ZM184 86v-1 1ZM185 78v-1 1ZM184 81Z" class="cls-4"/><path d="m219 94-1-1-1-3h-1a92 92 0 0 1-1-6h1v1l1 2 1 3 1 1v3Z" class="cls-10"/><path d="M219 94v-3l1 1v1l-1 2v-1Z" class="cls-24"/><path d="M216 98Z" class="cls-25"/><path d="M187 78c0 1 0 0 0 0Z" class="cls-8"/><path d="m164 93 1-3c1 2 0 2-1 3Z" class="cls-5"/><path d="m114 140 1 1v1l-1-2Z" class="cls-15"/><path d="m175 163-1-1-1-1v-1l-2-9h1v1l1 2v1l1 5 1 3Z" class="cls-2"/><path d="m173 155-1-1 3 1v1l-1-1h-1Z" class="cls-10"/><path d="m168 147 2-1v2l-2-1ZM168 150v-1h2l-1 1h-1ZM169 152v-1h1l-1 1Z" class="cls-24"/><path d="M167 153Z" class="cls-21"/><path d="M179 161h1l1 1-2 1h-1l-1-1 1-1h1ZM178 161Z" class="cls-14"/><path d="m165 145 1-1 1 3-2-2Z" class="cls-7"/><path d="m200 130-1 3v2l-1-1 1-4h1Z" class="cls-3"/><path d="M200 130h-1v-4l1-1v4ZM201 136v-5 4Z" class="cls-24"/><path d="m220 128-1 2-1 1v-3l3-5-1 5Z" class="cls-3"/><path d="M222 120v1h-1l1-1Z" class="cls-7"/><path d="M224 121h-1 1Z" class="cls-4"/><path d="m277 193-1-1 1 1ZM173 162h1v1l-1-1Z" class="cls-10"/><path d="m181 162-1-1 1-1v2Z" class="cls-7"/><path d="M219 132v-1Z" class="cls-2"/></svg>