<?xml version="1.0" encoding="UTF-8"?>
<svg id="_圖層_1" data-name="圖層 1" xmlns="http://www.w3.org/2000/svg" viewBox="0 0 192 52">
  <defs>
    <style>
      .cls-1 {
        fill: #fff;
      }

      .cls-2 {
        fill: #920000;
      }
    </style>
  </defs>
  <path class="cls-2" d="m11.28,38.23c.56-.15,1.13-.24,1.7-.29-.34-1.92-1.34-3.66-2.83-4.91-1.49-1.25-3.37-1.95-5.32-1.95-.93,0-1.86.17-2.73.48v1.91c.86-.4,1.79-.61,2.73-.61,1.53,0,3.02.53,4.2,1.52,1.18.98,1.97,2.35,2.25,3.85Z"/>
  <path class="cls-2" d="m12.98,13.86c-.57-.06-1.14-.16-1.7-.31-.26,1.52-1.05,2.9-2.23,3.89-1.18.99-2.67,1.54-4.21,1.54-.95,0-1.88-.22-2.73-.63v1.91c.88.32,1.8.48,2.73.48,1.95,0,3.83-.7,5.32-1.96,1.49-1.26,2.49-3,2.82-4.92Z"/>
  <path class="cls-2" d="m9.75,12.98c-.55-.26-1.06-.57-1.55-.94-1.82,1.2-3.92,1.92-6.1,2.08v2.43c.81.54,1.76.83,2.73.84,1.22-.01,2.39-.47,3.29-1.28.9-.81,1.48-1.93,1.62-3.14Z"/>
  <path class="cls-2" d="m4.84,34.41c-.97,0-1.92.3-2.73.84v2.43c2.18.17,4.27.89,6.1,2.08.49-.35,1.01-.67,1.55-.94-.14-1.21-.72-2.32-1.62-3.14-.9-.81-2.08-1.27-3.29-1.28Z"/>
  <path class="cls-2" d="m18.86,4.05c-.01-.66-.15-1.31-.4-1.91h-4.34c-.19,2.31-.98,4.52-2.29,6.42.64.31,1.35.47,2.06.48.66,0,1.3-.12,1.91-.37.61-.25,1.16-.62,1.62-1.08.46-.46.83-1.02,1.08-1.62.25-.61.37-1.26.37-1.91Z"/>
  <path class="cls-2" d="m177.25,9c.71,0,1.42-.17,2.06-.48-1.32-1.9-2.11-4.12-2.29-6.42h-4.34c-.25.61-.39,1.25-.4,1.91,0,.65.12,1.3.37,1.91.25.61.61,1.16,1.08,1.62.46.46,1.01.83,1.62,1.08.61.25,1.25.38,1.91.37Z"/>
  <path class="cls-2" d="m186.32,17.39c.97,0,1.92-.3,2.73-.84v-2.43c-2.18-.17-4.27-.89-6.1-2.08-.49.36-1.01.67-1.55.94.14,1.21.72,2.32,1.62,3.14.9.81,2.08,1.27,3.29,1.28Z"/>
  <path class="cls-2" d="m22.17,4.05c0-.64-.08-1.29-.23-1.91h-1.8c.19.62.3,1.26.31,1.91,0,1.74-.7,3.4-1.93,4.62-1.23,1.23-2.89,1.91-4.63,1.91-1.08,0-2.13-.27-3.08-.78-.39.44-.81.86-1.26,1.24,1.3.83,2.81,1.27,4.36,1.28,2.19-.01,4.29-.89,5.83-2.44,1.55-1.55,2.42-3.65,2.42-5.84Z"/>
  <path class="cls-2" d="m177.26,12.33c1.54,0,3.04-.45,4.34-1.28-.45-.38-.88-.8-1.28-1.24-.94.52-2,.79-3.08.78-1.73,0-3.39-.7-4.62-1.92-1.23-1.22-1.92-2.88-1.92-4.62,0-.65.11-1.29.31-1.91h-1.8c-.15.63-.23,1.27-.23,1.91,0,2.19.88,4.3,2.43,5.85,1.55,1.55,3.65,2.42,5.85,2.43Z"/>
  <path class="cls-2" d="m14.42,39.45h-1.03c-.75.05-1.49.2-2.2.44l-.52.19-.55.27-.57.34c.46.39.89.81,1.28,1.26.7-.38,1.45-.63,2.24-.75h1.05c1.71.05,3.33.77,4.51,1.99,1.19,1.23,1.84,2.87,1.83,4.58,0,.65-.11,1.29-.31,1.91h1.8c.28-1.17.3-2.4.06-3.58-.24-1.18-.74-2.3-1.45-3.27-.72-.97-1.64-1.77-2.7-2.35-1.06-.58-2.23-.92-3.44-.99v-.06Z"/>
  <path class="cls-2" d="m13.9,42.74h-.52c-.19,0-.39.04-.57.1-.32.07-.64.18-.94.32,1.32,1.94,2.1,4.2,2.26,6.54h4.34c.26-.61.39-1.25.4-1.91.01-.66-.11-1.32-.35-1.93-.24-.61-.61-1.17-1.07-1.64-.46-.47-1.02-.84-1.62-1.1s-1.26-.38-1.92-.38Z"/>
  <path class="cls-2" d="m179.87,13.55c-.56.14-1.13.25-1.7.31.34,1.91,1.34,3.65,2.83,4.9,1.49,1.25,3.37,1.94,5.31,1.94.93,0,1.86-.16,2.73-.48v-1.91c-.85.41-1.79.62-2.73.63-1.54,0-3.02-.54-4.2-1.52-1.18-.99-1.97-2.35-2.24-3.87Z"/>
  <path class="cls-2" d="m178.17,37.9c.57.04,1.14.14,1.7.29.27-1.52,1.06-2.89,2.24-3.88,1.18-.99,2.67-1.53,4.21-1.53.94,0,1.88.21,2.73.61v-1.91c-1.13-.41-2.34-.56-3.54-.44-1.2.11-2.36.49-3.39,1.1-1.04.61-1.93,1.44-2.61,2.43-.68.99-1.14,2.12-1.34,3.31v.04Z"/>
  <path class="cls-2" d="m180.48,40.14l-.44-.15c-.73-.28-1.5-.46-2.27-.54h-1.03c-1.21.07-2.39.41-3.46.99-1.07.58-1.99,1.39-2.71,2.37-.72.98-1.21,2.1-1.45,3.29-.24,1.19-.21,2.42.08,3.6h1.8c-.19-.62-.3-1.26-.31-1.91,0-1.69.65-3.31,1.81-4.52,1.16-1.22,2.76-1.94,4.44-2.01h1.15c.78.11,1.54.36,2.24.75.39-.45.82-.88,1.28-1.26l-.57-.34-.55-.25Z"/>
  <path class="cls-2" d="m176.56,13.88c-2.49-.17-4.82-1.28-6.53-3.1-1.7-1.82-2.65-4.23-2.65-6.72,0-.64.07-1.28.19-1.91H23.57c.12.63.18,1.27.19,1.91,0,2.5-.95,4.9-2.65,6.72-1.7,1.82-4.04,2.93-6.53,3.1-.35,2.34-1.52,4.47-3.31,6.02-1.79,1.54-4.07,2.39-6.44,2.4-.93,0-1.85-.14-2.73-.4v7.97c.89-.27,1.81-.4,2.73-.4,2.37,0,4.65.86,6.44,2.4,1.79,1.55,2.96,3.69,3.31,6.03,2.5.17,4.85,1.28,6.56,3.13,1.71,1.84,2.64,4.27,2.62,6.78,0,.64-.07,1.28-.19,1.91h144.01c-.12-.63-.18-1.27-.19-1.91,0-2.5.94-4.9,2.64-6.73,1.7-1.82,4.04-2.93,6.53-3.1.34-2.34,1.52-4.48,3.31-6.03,1.79-1.55,4.08-2.4,6.44-2.4.93,0,1.85.14,2.73.4v-8.05c-.89.27-1.81.4-2.73.4-2.36,0-4.65-.85-6.44-2.4s-2.96-3.68-3.31-6.02Z"/>
  <path class="cls-2" d="m177.88,42.8h-.63c-1.32,0-2.58.52-3.51,1.46-.93.93-1.46,2.2-1.46,3.51,0,.66.15,1.31.4,1.91h4.34c.19-2.31.98-4.52,2.29-6.42-.3-.15-.61-.25-.94-.33-.16-.06-.33-.11-.5-.13Z"/>
  <path class="cls-2" d="m181.4,38.77c.54.27,1.06.58,1.55.94,1.82-1.2,3.92-1.92,6.1-2.08v-2.43c-.7-.48-1.52-.76-2.37-.83-.85-.07-1.7.09-2.47.45-.77.36-1.44.91-1.93,1.61-.49.69-.8,1.5-.88,2.35Z"/>
  <path class="cls-1" d="m190.1,12.06c-2.92,0-5.72-1.16-7.79-3.22-2.07-2.06-3.23-4.87-3.23-7.79V0H12.06v1.05c0,2.92-1.16,5.72-3.22,7.79-2.06,2.06-4.87,3.22-7.79,3.22H0v27.62h1.05c2.92,0,5.72,1.16,7.79,3.22,2.06,2.06,3.22,4.87,3.22,7.79v1.05h167.03v-1.05c0-2.92,1.16-5.72,3.23-7.79,2.07-2.06,4.87-3.22,7.79-3.22h1.05V12.06h-1.05Zm.27,5.51h-.11c-.38.28-.78.52-1.21.71v1.91c.32-.11.63-.24.94-.38l.38-.19v1.76h-.17c-.37.16-.76.29-1.15.4v7.97l1.15.4h.17v1.76l-.38-.17c-.3-.15-.62-.28-.94-.4v1.91c.43.19.83.43,1.21.71h.11v2.37l-.46-.48c-.26-.27-.55-.52-.86-.73v2.43c-2.18.17-4.27.89-6.1,2.08.29.19.56.41.82.63l.27.23-.29.19-.46.31-.42.31-.15.13-.17-.13c-.3-.24-.61-.47-.94-.67-.46.39-.89.81-1.28,1.26.29.15.57.33.84.52l.25.19-.17.25v.1l-.23.27-.23.31-.34.46-.23-.17c-.28-.21-.58-.39-.9-.54-1.32,1.91-2.11,4.13-2.29,6.44h-4.34c.14.31.31.61.5.9l.29.42h-1.91v-.13c-.19-.38-.35-.78-.48-1.19h-1.8c.08.33.18.65.31.96l.13.36h-1.7v-.19c-.13-.37-.23-.74-.31-1.13H23.57c-.07.38-.18.76-.31,1.13v.19h-1.7l.13-.36c.13-.31.23-.63.31-.96h-1.8c-.13.41-.29.8-.48,1.19v.13h-1.91l.29-.42c.15-.29.27-.59.36-.9h-4.34c-.19-2.31-.98-4.52-2.29-6.42-.32.15-.62.33-.9.54l-.23.15-.25-.34-.23-.31-.23-.27-.27-.31.21-.19c.28-.19.57-.36.88-.5-.38-.49-.81-.94-1.26-1.36-.33.2-.64.42-.94.67l-.17.13-.15-.13-.42-.31-.46-.31-.29-.19.27-.23c.26-.23.54-.44.82-.63-1.83-1.2-3.93-1.92-6.12-2.08v-2.43c-.31.21-.6.45-.86.73l-.46.4v-2.14h.11c.37-.28.78-.52,1.2-.71v-1.91c-.32.12-.63.25-.94.4l-.38.17v-1.76h.17l1.15-.4v-8.09c-.39-.11-.77-.24-1.15-.4h-.17v-1.76l.38.19c.31.14.62.27.94.38v-1.91c-.43-.19-.83-.43-1.2-.71h-.11v-2.39l.46.48c.26.27.55.52.86.73v-2.37c2.18-.17,4.27-.89,6.1-2.08-.29-.17-.56-.36-.82-.57l-.27-.23.29-.19c.31-.19.59-.4.88-.61l.15-.13.17.13c.3.23.62.44.96.61.45-.38.88-.8,1.28-1.24-.31-.17-.6-.36-.88-.57l-.23-.17.19-.21.65-.8.15-.23.23.17c.28.2.58.38.9.54,1.31-1.9,2.09-4.12,2.27-6.42h4.34c-.14-.31-.31-.61-.5-.9l-.29-.42h1.91v.15c.19.38.35.77.48,1.17h1.8c-.08-.33-.18-.65-.31-.96l-.04-.36h1.68v.19c.13.37.23.75.31,1.13h144.07c.08-.38.18-.76.31-1.13v-.19h1.68l-.06.36c-.12.31-.23.63-.31.96h1.8c.13-.4.29-.79.48-1.17v-.15h1.91l-.21.42c-.19.28-.36.59-.5.9h4.34c.19,2.31.98,4.52,2.29,6.42.31-.15.61-.33.9-.54l.23-.17.15.23.65.8.19.21-.23.17c-.28.21-.57.4-.88.57.4.44.83.86,1.28,1.24.33-.19.65-.42.94-.67l.17-.13.15.13c.29.21.57.42.88.61l.29.19-.27.29c-.26.23-.53.44-.82.63,1.83,1.18,3.93,1.88,6.1,2.03v2.43c.31-.21.6-.45.86-.73l.46-.54v2.27Z"/>
  <path class="cls-1" d="m14.58,37.89c-.34-2.34-1.52-4.48-3.31-6.03-1.79-1.55-4.08-2.4-6.44-2.4-.93,0-1.85.14-2.73.4l-1.15.4h-.17v1.76l.38-.17c.31-.15.62-.28.94-.4.88-.31,1.8-.47,2.73-.48,1.95,0,3.83.7,5.32,1.95,1.49,1.25,2.49,2.99,2.83,4.91-.58.08-1.15.22-1.7.4-.27-1.52-1.06-2.89-2.24-3.88-1.18-.99-2.67-1.53-4.21-1.53-.95,0-1.88.21-2.73.61-.43.19-.83.43-1.2.71h-.11v2.18l.46-.48c.26-.27.55-.52.86-.73.82-.49,1.77-.74,2.73-.71,1.21,0,2.37.46,3.27,1.26.9.8,1.49,1.9,1.64,3.1-.54.27-1.06.58-1.55.94-.29.19-.56.41-.82.63l-.27.23.29.19.46.31.42.31.15.13.17-.13c.3-.25.62-.47.96-.67l.57-.34.54-.21.52-.19c.71-.26,1.45-.43,2.2-.5h1.03c1.21.07,2.39.41,3.46.99s1.99,1.39,2.71,2.37c.72.98,1.21,2.1,1.45,3.29.24,1.19.21,2.42-.08,3.6-.08.33-.18.65-.31.96l-.13.36h1.7v-.19c.13-.37.23-.74.31-1.13.12-.63.18-1.27.19-1.91.03-2.5-.9-4.92-2.6-6.76-1.69-1.84-4.03-2.96-6.52-3.14Z"/>
  <path class="cls-1" d="m14.11,41.17h-1.05c-.79.16-1.55.45-2.24.88-.31.16-.61.34-.88.55l-.21.19.27.31.23.27.23.31.25.29.23-.17c.28-.21.58-.39.9-.54.3-.15.61-.25.94-.32.19-.06.38-.09.57-.1h.55c.65,0,1.3.12,1.9.37.6.25,1.15.61,1.61,1.07.46.46.83,1.01,1.08,1.61.25.6.38,1.25.38,1.9,0,.66-.15,1.31-.4,1.91-.14.31-.31.61-.5.9l-.29.42h1.91v-.13c.19-.38.35-.78.48-1.19.19-.62.3-1.26.31-1.91.02-1.7-.62-3.34-1.79-4.58-1.17-1.24-2.78-1.96-4.48-2.03Z"/>
  <path class="cls-1" d="m176.57,37.89c-2.5.17-4.85,1.28-6.56,3.13-1.71,1.84-2.64,4.27-2.62,6.78,0,.64.07,1.28.19,1.91.07.38.18.76.31,1.13v.19h1.7l-.13-.36c-.13-.31-.23-.63-.31-.96-.28-1.17-.3-2.4-.06-3.58.24-1.18.74-2.3,1.46-3.27.72-.97,1.64-1.77,2.7-2.35,1.06-.58,2.23-.92,3.44-.99h1.09c.78.05,1.54.21,2.27.48l.44.15.55.27.57.34c.33.2.64.42.94.67l.17.13.15-.13.42-.31.46-.31.29-.19-.27-.23c-.26-.23-.54-.44-.82-.63-.49-.35-1.01-.67-1.55-.94.09-.85.39-1.66.88-2.35.49-.69,1.16-1.25,1.93-1.61.77-.36,1.62-.51,2.47-.45.85.07,1.66.35,2.37.83.31.21.6.45.86.73l.46.48v-2.27h-.11c-1.14-.84-2.52-1.3-3.94-1.32-1.53,0-3.02.53-4.2,1.52-1.18.98-1.97,2.35-2.25,3.85-.56-.15-1.13-.24-1.7-.29.2-1.19.65-2.31,1.34-3.31.68-.99,1.57-1.82,2.61-2.43,1.04-.61,2.2-.98,3.39-1.09,1.2-.11,2.4.04,3.54.44.32.12.63.25.94.4l.38.17v-1.76h-.17l-1.15-.4c-.89-.27-1.81-.4-2.73-.4-2.35,0-4.62.83-6.41,2.36-1.79,1.52-2.97,3.64-3.34,5.96Z"/>
  <path class="cls-1" d="m177.42,41.17h-.48c-1.7.07-3.3.81-4.46,2.04-1.17,1.23-1.81,2.87-1.79,4.57,0,.65.11,1.29.31,1.91.13.41.29.8.48,1.19v.13h1.91l-.29-.42c-.19-.28-.36-.59-.5-.9-.25-.61-.39-1.25-.4-1.91,0-1.32.52-2.58,1.46-3.51.93-.93,2.2-1.46,3.51-1.46h.63c.17.02.33.05.5.1.32.07.64.18.94.33.32.15.62.33.9.54l.23.17.25-.34.23-.31.23-.27v-.1l.17-.25-.25-.19c-.27-.19-.55-.36-.84-.52-.7-.38-1.45-.63-2.24-.75l-.5-.06Z"/>
  <path class="cls-1" d="m189.91,15.83c-.26.27-.55.52-.86.73-.7.48-1.52.76-2.37.83-.85.07-1.7-.09-2.47-.45-.77-.36-1.43-.91-1.93-1.61-.49-.69-.8-1.5-.88-2.35.54-.26,1.06-.58,1.55-.94.29-.17.56-.36.82-.57l.27-.23-.29-.19c-.3-.19-.59-.4-.88-.61l-.15-.13-.17.13c-.29.25-.61.47-.94.67-1.3.83-2.81,1.27-4.36,1.28-1.09,0-2.17-.22-3.18-.64-1.01-.42-1.92-1.04-2.69-1.81-.77-.77-1.38-1.69-1.79-2.7-.41-1.01-.62-2.09-.62-3.18,0-.64.08-1.29.23-1.91.08-.33.18-.65.31-.96l.11-.36h-1.68v.19c-.13.37-.23.75-.31,1.13-.12.63-.18,1.27-.19,1.91,0,2.5.95,4.9,2.65,6.72,1.7,1.82,4.04,2.93,6.52,3.1.35,2.34,1.52,4.47,3.31,6.02,1.79,1.54,4.07,2.39,6.44,2.4.93,0,1.85-.14,2.73-.4.39-.11.77-.24,1.15-.4h.17v-1.76l-.38.19c-.31.14-.62.27-.94.38-.88.32-1.8.48-2.73.48-1.94,0-3.82-.69-5.31-1.94-1.49-1.25-2.49-2.98-2.83-4.9.57-.06,1.14-.16,1.7-.31.26,1.52,1.05,2.9,2.23,3.89,1.18.99,2.67,1.54,4.21,1.54,1.42-.03,2.79-.5,3.94-1.34h.11v-2.43l-.52.54Z"/>
  <path class="cls-1" d="m177.25,10.59c1.08,0,2.13-.27,3.08-.78.31-.17.6-.36.88-.57l.23-.17-.19-.21-.65-.8-.15-.23-.23.17c-.28.2-.58.38-.9.54-.64.31-1.35.47-2.06.48-.65,0-1.3-.12-1.9-.37-.6-.25-1.15-.61-1.61-1.07-.46-.46-.83-1.01-1.08-1.61-.25-.6-.38-1.25-.38-1.9.01-.66.15-1.31.4-1.91.14-.33.3-.64.5-.94l.29-.42h-1.91v.15c-.19.38-.35.77-.48,1.17-.19.62-.3,1.26-.31,1.91,0,1.73.67,3.39,1.89,4.62,1.21,1.23,2.86,1.93,4.59,1.95Z"/>
  <path class="cls-1" d="m14.58,13.88c2.49-.17,4.82-1.28,6.53-3.1,1.7-1.82,2.65-4.23,2.65-6.72,0-.64-.07-1.28-.19-1.91-.08-.38-.18-.76-.31-1.13v-.19h-1.68l.11.36c.13.31.23.63.31.96.15.63.23,1.27.23,1.91,0,1.09-.22,2.17-.64,3.18-.42,1.01-1.04,1.92-1.81,2.69-.77.77-1.69,1.38-2.7,1.79-1.01.41-2.09.62-3.18.62-1.54,0-3.04-.45-4.34-1.28-.33-.19-.65-.42-.94-.67l-.17-.13-.15.13c-.29.21-.57.42-.88.61l-.29.19.25.29c.26.23.53.44.82.63.48.36,1,.68,1.55.94-.15,1.2-.73,2.3-1.64,3.1-.9.8-2.07,1.25-3.27,1.26-.97,0-1.92-.3-2.73-.84-.31-.21-.6-.45-.86-.73l-.46-.54v2.27h.11c.37.28.78.52,1.2.71.85.41,1.79.62,2.73.63,1.53,0,3.01-.53,4.19-1.51,1.18-.98,1.97-2.34,2.25-3.84.56.14,1.13.25,1.7.31-.34,1.91-1.34,3.65-2.83,4.9-1.49,1.25-3.37,1.94-5.31,1.94-.93,0-1.86-.16-2.73-.48-.32-.11-.63-.24-.94-.38l-.38-.19v1.76h.17c.37.16.76.29,1.15.4.89.27,1.81.4,2.73.4,2.35,0,4.63-.84,6.41-2.37,1.79-1.53,2.97-3.64,3.33-5.97Z"/>
  <path class="cls-1" d="m20.45,4.05c0-.65-.11-1.29-.31-1.91-.13-.4-.29-.79-.48-1.17v-.15h-1.91l.21.38c.19.28.36.59.5.9.25.61.39,1.25.4,1.91,0,.65-.13,1.3-.38,1.9-.25.6-.62,1.15-1.08,1.61-.46.46-1.01.82-1.61,1.07-.6.25-1.25.37-1.9.37-.71,0-1.42-.17-2.06-.48-.31-.15-.61-.33-.9-.54l-.23-.13-.15.23-.65.8-.19.21.23.17c.28.21.57.4.88.57.94.52,2,.79,3.08.78,1.74,0,3.4-.69,4.63-1.91,1.23-1.23,1.92-2.89,1.93-4.62Zm-10.36,4.97c.23-.27.46-.54.67-.82.9.69,2,1.07,3.13,1.07.96,0,1.9-.26,2.71-.75.82-.5,1.48-1.21,1.93-2.05.44-.85.64-1.8.58-2.76-.06-.95-.39-1.87-.94-2.66h1.26c.49.92.75,1.95.75,3,0,.82-.16,1.64-.48,2.4s-.78,1.45-1.36,2.04c-.58.58-1.28,1.04-2.04,1.36-.76.31-1.58.47-2.41.47-1.38,0-2.72-.45-3.8-1.3Z"/>
  <path class="cls-1" d="m20.18,4.05c0-1.05-.25-2.08-.75-3h-1.26c.55.78.87,1.7.94,2.66.06.95-.14,1.91-.58,2.76-.44.85-1.11,1.56-1.93,2.05-.82.5-1.76.76-2.71.75-1.13,0-2.24-.38-3.13-1.07-.21.29-.44.55-.67.82,1.09.85,2.44,1.31,3.82,1.3,1.66,0,3.26-.66,4.43-1.84,1.18-1.18,1.84-2.77,1.84-4.43Z"/>
  <path class="cls-1" d="m15.08,29.67c2.09,0,3.78-1.69,3.78-3.78s-1.69-3.78-3.78-3.78-3.78,1.69-3.78,3.78,1.69,3.78,3.78,3.78Z"/>
  <path class="cls-1" d="m175.29,29.67c2.09,0,3.78-1.69,3.78-3.78s-1.69-3.78-3.78-3.78-3.79,1.69-3.79,3.78,1.69,3.78,3.79,3.78Z"/>
</svg>