<?xml version="1.0" encoding="UTF-8"?>
<svg id="_圖層_1" data-name="圖層 1" xmlns="http://www.w3.org/2000/svg" xmlns:xlink="http://www.w3.org/1999/xlink" viewBox="0 0 30 30">
  <defs>
    <style>
      .cls-1 {
        fill: #fff;
      }

      .cls-2 {
        fill: #543118;
      }

      .cls-3, .cls-4 {
        fill: none;
      }

      .cls-4 {
        clip-path: url(#clippath);
      }
    </style>
    <clipPath id="clippath">
      <rect class="cls-3" x="6" y="6" width="18" height="18"/>
    </clipPath>
  </defs>
  <rect class="cls-2" width="30" height="30"/>
  <g class="cls-4">
    <path class="cls-1" d="m23.59,22.19l-4.48-4.48c2.15-2.84,1.94-6.91-.65-9.49-1.37-1.37-3.19-2.12-5.12-2.12s-3.75.75-5.12,2.12c-1.37,1.37-2.12,3.19-2.12,5.12s.75,3.75,2.12,5.12c1.41,1.41,3.27,2.12,5.12,2.12,1.54,0,3.08-.49,4.37-1.47l4.48,4.48c.19.19.45.29.7.29s.51-.1.7-.29c.39-.39.39-1.01,0-1.4Zm-13.97-5.13c-.99-.99-1.54-2.32-1.54-3.72s.55-2.73,1.54-3.72c.99-.99,2.32-1.54,3.72-1.54s2.73.55,3.72,1.54c2.05,2.05,2.05,5.39,0,7.45-2.05,2.05-5.39,2.05-7.45,0Z"/>
  </g>
</svg>