<svg width="32" height="30" viewBox="0 0 32 30" fill="none" xmlns="http://www.w3.org/2000/svg">
<rect width="32" height="30" fill="#920000"/>
<g clip-path="url(#clip0_629_617)">
<path d="M24.5912 22.1946L20.1084 17.7117C22.2602 14.8763 22.0448 10.8056 19.4587 8.21948C18.0915 6.85204 16.2732 6.09888 14.3391 6.09888C12.405 6.09888 10.5867 6.85204 9.21924 8.21948C7.8518 9.58692 7.09863 11.4052 7.09863 13.3393C7.09863 15.2732 7.8518 17.0915 9.21924 18.459C10.6307 19.8707 12.4848 20.5764 14.3391 20.5764C15.8818 20.5764 17.4237 20.086 18.7115 19.1086L23.1943 23.5915C23.387 23.7845 23.6401 23.8809 23.8928 23.8809C24.1455 23.8809 24.3986 23.7845 24.5912 23.5915C24.9771 23.2058 24.9771 22.5802 24.5912 22.1946ZM10.6165 17.0621C9.6219 16.0677 9.07441 14.7457 9.07441 13.3393C9.07441 11.933 9.6219 10.611 10.6165 9.61656C11.6107 8.62215 12.9329 8.07466 14.3391 8.07466C15.7452 8.07466 17.0674 8.62215 18.0618 9.61676C20.1145 11.6694 20.1145 15.0095 18.0618 17.0623C16.009 19.1149 12.669 19.1145 10.6165 17.0621Z" fill="white"/>
</g>
<defs>
<clipPath id="clip0_629_617">
<rect width="18" height="18" fill="white" transform="translate(7 6)"/>
</clipPath>
</defs>
</svg>
