<svg width="30" height="30" viewBox="0 0 30 30" fill="none" xmlns="http://www.w3.org/2000/svg">
<rect width="30" height="30" fill="#CEB96E"/>
<g clip-path="url(#clip0_184_1434)">
<path d="M23.5922 22.1946L19.1093 17.7117C21.2612 14.8763 21.0458 10.8056 18.4597 8.21948C17.0925 6.85204 15.2741 6.09888 13.3401 6.09888C11.406 6.09888 9.58765 6.85204 8.22022 8.21948C6.85278 9.58692 6.09961 11.4052 6.09961 13.3393C6.09961 15.2732 6.85278 17.0915 8.22022 18.459C9.63171 19.8707 11.4858 20.5764 13.3401 20.5764C14.8827 20.5764 16.4246 20.086 17.7125 19.1086L22.1953 23.5915C22.3879 23.7845 22.641 23.8809 22.8937 23.8809C23.1465 23.8809 23.3995 23.7845 23.5922 23.5915C23.9781 23.2058 23.9781 22.5802 23.5922 22.1946ZM9.61749 17.0621C8.62288 16.0677 8.07539 14.7457 8.07539 13.3393C8.07539 11.933 8.62288 10.611 9.61749 9.61656C10.6117 8.62215 11.9339 8.07466 13.3401 8.07466C14.7462 8.07466 16.0684 8.62215 17.0628 9.61676C19.1155 11.6694 19.1155 15.0095 17.0628 17.0623C15.01 19.1149 11.6699 19.1145 9.61749 17.0621Z" fill="white"/>
</g>
<defs>
<clipPath id="clip0_184_1434">
<rect width="18" height="18" fill="white" transform="translate(6 6)"/>
</clipPath>
</defs>
</svg>
