<svg width="45" height="45" viewBox="0 0 45 45" fill="none" xmlns="http://www.w3.org/2000/svg">
<circle cx="22.1538" cy="22.1538" r="22.1538" fill="#0065C2"/>
<path fill-rule="evenodd" clip-rule="evenodd" d="M8.51953 22.2223C8.51953 29.0046 13.4521 34.6223 19.9604 35.7869L20.0411 35.7209C20.0367 35.7201 20.0323 35.7193 20.028 35.7185V26.0589H16.6026V22.2224H20.028V19.2081C20.028 15.7827 22.2202 13.8644 25.3716 13.8644C26.3307 13.8644 27.4268 14.0015 28.386 14.1385V17.6324H26.6047C24.9605 17.6324 24.5495 18.4545 24.5495 19.5506V22.2224H28.1804L27.5639 26.0589H24.5495V35.7185C24.5081 35.7261 24.4666 35.7334 24.4252 35.7405L24.4819 35.7869C30.9902 34.6223 35.9228 29.0046 35.9228 22.2223C35.9228 14.6864 29.7571 8.52069 22.2212 8.52069C14.6853 8.52069 8.51953 14.6864 8.51953 22.2223Z" fill="white"/>
</svg>
