<svg width="45" height="45" viewBox="0 0 45 45" fill="none" xmlns="http://www.w3.org/2000/svg">
<circle cx="22.1538" cy="22.1538" r="22.1538" fill="#00C265"/>
<path d="M35.6279 18.9765L35.6282 18.9765L35.6196 18.9084C35.6195 18.9073 35.6194 18.9064 35.6192 18.9052C35.6191 18.9042 35.619 18.9033 35.6188 18.9023L35.5867 18.6465C35.5802 18.5951 35.5729 18.5366 35.5645 18.4698L35.5577 18.4166L35.544 18.4183C35.2062 16.5769 34.2783 14.8294 32.8412 13.3373C31.4107 11.8524 29.5523 10.68 27.4668 9.94678C25.68 9.31858 23.7842 9 21.8321 9C19.1966 9 16.6371 9.5941 14.4304 10.718C10.1749 12.8852 7.66519 16.8687 8.03613 20.8665C8.22814 22.9352 9.07368 24.9044 10.4814 26.5614C11.8064 28.121 13.5988 29.3795 15.6648 30.201C16.935 30.706 18.191 30.944 19.5209 31.196L19.6765 31.2255C20.0427 31.295 20.1412 31.3904 20.1666 31.4282C20.2135 31.4984 20.189 31.6367 20.1701 31.7129C20.1527 31.7831 20.1348 31.8532 20.1169 31.9234C19.9741 32.4815 19.8264 33.0587 19.9424 33.695C20.0758 34.4265 20.5523 34.8461 21.25 34.8462H21.2501C22.0005 34.8462 22.8546 34.3637 23.4197 34.0445L23.4951 34.002C24.8433 33.2431 26.1134 32.3871 27.0692 31.7261C29.1608 30.2797 31.5316 28.6402 33.3089 26.5192C35.0987 24.3829 35.9418 21.6378 35.6279 18.9765ZM16.6238 23.0238H14.2347C13.8737 23.0238 13.581 22.7432 13.581 22.3972V17.5907C13.581 17.2447 13.8737 16.9641 14.2347 16.9641C14.5957 16.9641 14.8884 17.2447 14.8884 17.5907V21.7706H16.6237C16.9847 21.7706 17.2774 22.0511 17.2774 22.3972C17.2775 22.7432 16.9848 23.0238 16.6238 23.0238ZM19.116 22.3802C19.116 22.7262 18.8234 23.0068 18.4623 23.0068C18.1013 23.0068 17.8086 22.7262 17.8086 22.3802V17.5737C17.8086 17.2276 18.1013 16.9471 18.4623 16.9471C18.8234 16.9471 19.116 17.2276 19.116 17.5737V22.3802ZM25.0251 22.3802C25.0251 22.6517 24.8427 22.8923 24.5733 22.9762C24.5068 22.9968 24.4387 23.0069 24.3715 23.0069C24.1661 23.0069 23.9678 22.9138 23.8423 22.7483L21.4883 19.6407V22.3803C21.4883 22.7263 21.1956 23.0069 20.8346 23.0069C20.4735 23.0069 20.1808 22.7263 20.1808 22.3803V17.7113C20.1808 17.4398 20.3632 17.1992 20.6327 17.1153C20.9022 17.0315 21.1972 17.1234 21.3636 17.3431L23.7177 20.4507V17.5737C23.7177 17.2276 24.0103 16.9471 24.3714 16.9471C24.7324 16.9471 25.0251 17.2276 25.0251 17.5737V22.3802ZM29.7886 22.9081H26.5531C26.1921 22.9081 25.8994 22.6276 25.8994 22.2815V19.8784V17.4751C25.8994 17.129 26.1921 16.8485 26.5531 16.8485H29.6882C30.0492 16.8485 30.3419 17.129 30.3419 17.4751C30.3419 17.8211 30.0492 18.1016 29.6882 18.1016H27.2068V19.2518H29.2205C29.5815 19.2518 29.8742 19.5323 29.8742 19.8784C29.8742 20.2244 29.5815 20.505 29.2205 20.505H27.2068V21.6549H29.7886C30.1496 21.6549 30.4423 21.9355 30.4423 22.2815C30.4423 22.6276 30.1496 22.9081 29.7886 22.9081Z" fill="white"/>
</svg>
