<svg width="50" height="50" viewBox="0 0 50 50" fill="none" xmlns="http://www.w3.org/2000/svg">
<circle cx="25" cy="25" r="25" fill="#CEB96E"/>
<path d="M17.6095 24.2078L30.3383 11.7966C30.5296 11.6077 30.7574 11.457 31.0088 11.3533C31.2602 11.2496 31.5302 11.1948 31.8034 11.1922C32.3553 11.1868 32.8867 11.3939 33.2809 11.7679C33.675 12.1419 33.8996 12.6522 33.9052 13.1865C33.9107 13.7208 33.6969 14.2354 33.3106 14.617L22.0308 25.5892L33.3849 36.5326C33.7788 36.9143 34 37.4319 34 37.9715C34 38.5111 33.7788 39.0287 33.3849 39.4105C33.1923 39.5974 32.9636 39.7456 32.7118 39.8468C32.4599 39.9479 32.19 40 31.9173 40C31.6447 40 31.3747 39.9479 31.1229 39.8468C30.8711 39.7456 30.6423 39.5974 30.4498 39.4105L17.6095 27.0713C17.4132 26.8835 17.258 26.6592 17.1533 26.412C17.0486 26.1647 16.9965 25.8996 17.0002 25.6323C16.999 25.3655 17.0522 25.101 17.1568 24.8541C17.2614 24.6072 17.4152 24.3826 17.6095 24.1934" fill="white"/>
</svg>
