<?xml version="1.0" encoding="UTF-8"?>
<svg id="_圖層_1" data-name="圖層 1" xmlns="http://www.w3.org/2000/svg" viewBox="0 0 519.7 123.1">
  <defs>
    <style>
      .cls-1 {
        fill: none;
        stroke: #ceb96e;
        stroke-miterlimit: 10;
        stroke-width: 2px;
      }

      .cls-2 {
        fill: #ceb96e;
      }
    </style>
  </defs>
  <g>
    <path class="cls-2" d="m44.7,60.3c17.7,3.9,12.2,15.6,6.1,11.4-.9-3.2-3.6-7-6.1-9.7v32.9c0,.5-2.3,2.4-5.8,2.4h-1.3v-30.1c-3.8,3.5-7.8,6.6-12,9l-.8-.8c9-7.9,17.6-20.6,21.4-30.8h-19l-.7-2.2h19.5l4.3-4.1,6.9,6.9c-.7.6-1.5.8-3.5,1-2.1,4.5-5.3,9.2-9.1,13.7v.5Zm-9.9-34.5c18.8,4.2,12.4,17.4,5.8,12.4-.8-4.1-3.9-8.9-6.6-11.9l.8-.5Zm56.1,22s4.8,3.9,7.7,6.6c-.2.8-1,1.2-2.1,1.2h-10.4v40c0,.4-2.2,1.9-5.9,1.9h-1.2v-41.9h-12.3v.8c0,13.8-1.4,30.2-17.3,40.9l-1-.9c9.9-11.4,11.2-25.8,11.2-40.1v-24.7l8.8,3.2c7.1-2.7,14.4-6.3,18.6-9l8.4,7.6c-.8.7-2.5.8-4.6,0-6,1.6-15.2,3.3-24.1,4.1v15.9h19.8l4.3-5.6Z"/>
    <circle class="cls-1" cx="61.7" cy="61.6" r="58.7" transform="translate(-25.5 61.7) rotate(-45)"/>
    <circle class="cls-1" cx="61.7" cy="61.6" r="49.1"/>
  </g>
  <g>
    <path class="cls-2" d="m176,59.4c15.2,6.2,10.1,16.3,4.9,12.2-.6-3.2-2.8-7-4.9-10v33.2c0,.6-2.3,2.4-5.7,2.4h-1.2v-30.8c-3.5,3.3-7.3,6.2-11.3,8.6l-.8-.8c8.6-7.9,16.4-19.9,20-29.8h-17.7l-.7-2.2h18.1l4.2-4,6.9,6.7c-.7.7-1.6.8-3.5,1-2.1,4.2-4.9,8.9-8.6,13.2v.4Zm-8.9-33.6c18.1,4.4,11.2,17,4.9,11.7-.6-3.8-3.2-8.4-5.5-11.3l.6-.4Zm19.7,8.3l-.6-2.2h31.8l4.2-5.4s4.8,3.7,7.7,6.4c-.2.8-1,1.2-2.1,1.2h-41.1Zm35.6,26.1l7.4,5.7c-.5.6-1.7,1.3-3.2,1.6v27.3c0,.5-3.5,1.9-5.8,1.9h-1.2v-4.5h-25.5v2.8c0,.7-2.9,2.2-5.7,2.2h-1.1v-36.2l7.2,3.1h24.4l3.5-3.9Zm-6.2-1.5v-2.8h-18v1.6c0,.6-3.1,2.2-5.8,2.2h-1v-21.4l7.1,2.9h17l3.5-3.8,7.6,5.7c-.5.6-1.7,1.3-3.2,1.6v12.2c0,.5-3.6,1.8-5.9,1.8h-1.2Zm-22.1,7.6v10.3h9.8v-10.3h-9.8Zm0,23.8h9.8v-11.2h-9.8v11.2Zm22.1-36.4v-10.3h-18v10.3h18Zm-6.1,12.6v10.3h9.6v-10.3h-9.6Zm9.6,23.8v-11.2h-9.6v11.2h9.6Z"/>
    <circle class="cls-1" cx="193.5" cy="61.5" r="58.7" transform="translate(13.2 154.9) rotate(-45)"/>
    <circle class="cls-1" cx="193.5" cy="61.5" r="49.1"/>
  </g>
  <g>
    <path class="cls-2" d="m296,78.6c2.5,7.6,1.6,13.3-.5,16.1-1.5,1.9-4.9,2.2-6.2,0-1.1-1.9,0-3.9,1.7-5.4,1.8-1.8,4.1-6.6,3.8-10.8h1.2Zm23.6-9.5s4.1,3.2,6.7,5.6c-.2.8-.9,1.2-2,1.2h-34.5l-.6-2.2h15.3v-9.9h-12.7l-.6-2.2h13.3v-7.6h-6.4v1.2c0,.6-2.6,2-5,2h-.9v-30l6.3,2.8h17.9l3-3.3,6.6,5.1c-.5.5-1.5,1.2-2.9,1.4v21.1c0,.5-3.1,1.9-5.1,1.9h-.9v-2.2h-6.1v7.6h3.8l3.5-4.2s3.9,2.9,6.3,5.2c-.2.8-.9,1.2-2,1.2h-11.6v9.9h4.9l3.7-4.6Zm-14.3-17.4v-19.5h-7.2v19.5h7.2Zm-6.2-16.8c9.1,8.3,4.9,15.6,1.6,12.1,0-3.8-1.5-8.6-2.7-11.8l1.1-.3Zm2.5,44.1c10.4,10.1,3.2,20.1-.9,14.6,1-4.6.7-10.3-.2-14.3l1.1-.2Zm6.6-.5c13.5,8.3,7.2,19.1,2.3,14,.4-4.5-1.4-9.9-3.3-13.6l1-.5Zm2-46.3v19.5h6.8v-13h0c-1.2,2.5-3.3,6.4-5.3,9.6l-1-.4c.8-3.8,1.9-9.9,2.2-12.9l4.2,1.5v-4.2h-6.8Zm6.3,46.1c14.8,7.6,8.6,19.3,3.5,14.1.2-4.5-2-10.1-4.4-13.6l.9-.5Zm28.9-32.1v16h5.2l3.5-4.1,7,5.4c-.5.7-1.3,1.2-3,1.5v29.3c0,.4-2.5,1.9-6,1.9h-1.2v-5.4h-16.8v4.2c0,.5-2.2,1.9-5.6,1.9h-1.2v-37.8l7.8,3.2h3.3V26.2l9.8.9c-.2,1.2-.8,1.9-2.8,2.2v14.7h5.5l3.8-5.1s4.5,3.5,7.1,6.1c-.2.8-1,1.2-2,1.2h-14.3Zm-11.3,18.2v24.1h16.8v-24.1h-16.8Z"/>
    <circle class="cls-1" cx="325.4" cy="61.5" r="58.7" transform="translate(51.8 248.1) rotate(-45)"/>
    <circle class="cls-1" cx="325.4" cy="61.5" r="49.1"/>
  </g>
  <g>
    <path class="cls-2" d="m442.6,59.2c4.6-3.5,8.5-8,11.4-13.1-.9.2-2.1,0-3.2-.7,0-.4-.2-.8-.2-1.1-.5.5-1.3.8-2.5.5-2.2,3.2-6.4,8.7-10.4,12.9-.2,4.5-.5,8.6-1.2,12.3,15.7,9.1,10.2,20.7,4.5,15.6-.5-4-2.7-8.7-5-12.7-1.9,10.3-6,18.1-14.3,24.2l-1-1.2c12.6-14.1,10.8-35.1,10.8-70.1l9.3,1c-.2,1.2-1,1.9-2.8,2.1,0,9.3,0,17.7-.2,25.2,2.1-5,4.2-10.9,5.2-14.2l7.2,3.5c-.9-2.3-2.5-4.7-3.9-6.1l.7-.5c5.9.9,8.5,3.2,9.2,5.2,1.3-3,2.4-6,3.2-9.1h-10.5l-.7-2.2h11l3.9-3.8,6.6,5.7c-.5.7-1.2.9-2.9,1-3.5,10.6-10.9,20.6-23.2,26.6l-.7-1Zm-20.7-19.6c13.2,12.8,7.4,25,2.4,19.4.3-6-1.7-13.8-3.5-19.1l1.1-.3Zm63.7,47.4s4.7,3.6,7.5,6.3c-.2.8-1,1.2-2.1,1.2h-47.4l-.6-2.2h26.5c1.5-4.5,3-10.4,3.8-14.7l9.8,2.5c-.3.8-1.2,1.5-2.9,1.5-1.9,3.2-5.2,7.3-8.5,10.7h9.6l4.2-5.3Zm-9.6-9.4v-2.5h-18.7v1.1c0,.5-2.9,2-5.6,2h-.9v-21.1l6.9,2.9h17.6l3.3-3.6,7.2,5.5c-.5.5-1.8,1.2-3.2,1.5v12.5c0,.5-3.4,1.7-5.5,1.7h-1.1Zm-21.9.5c15.6,6,8.3,17.3,2.7,12-.2-3.9-1.9-8.5-3.5-11.6l.8-.4Zm18.6-31.2s3.9,3.2,6.2,5.6c-.2.8-.9,1.2-2,1.2h-19.8l-.6-2.2h12.7l3.5-4.6Zm3.3,26v-10.8h-18.7v10.8h18.7Zm16.7-33c-.6.7-1.4.9-2.9.4-2.8,1.5-6.1,3.1-8.9,4.2,3.8,3.5,8.3,6.3,12.9,8l-.2.8c-2.5.5-4.5,2.5-5.2,5.7-10.1-5.9-16.1-16.3-19.4-30.8l1.1-.5c1,2.9,2.3,5.6,3.9,8.1,2-2.2,4.4-5.4,6.2-8.3l7,5.1c-.5.8-1.3,1-3.1.5-2.9,1.7-6.2,3.3-9,4.3,1.3,1.9,2.7,3.6,4.2,5.2,2.2-2.2,4.8-5.2,6.9-7.6l6.7,4.9Z"/>
    <circle class="cls-1" cx="457.2" cy="61.5" r="58.7" transform="translate(90.4 341.3) rotate(-45)"/>
    <circle class="cls-1" cx="457.2" cy="61.5" r="49.1"/>
  </g>
</svg>