<?xml version="1.0" encoding="UTF-8"?>
<svg id="_圖層_1" data-name="圖層 1" xmlns="http://www.w3.org/2000/svg" xmlns:xlink="http://www.w3.org/1999/xlink" viewBox="0 0 1024 544.29">
  <defs>
    <style>
      .cls-1 {
        fill: url(#_未命名漸層_429);
      }

      .cls-2 {
        fill: #ceb96e;
      }

      .cls-3 {
        fill: url(#_未命名漸層_403);
        stroke-width: 4px;
      }

      .cls-3, .cls-4 {
        stroke: #ceb96e;
        stroke-miterlimit: 10;
      }

      .cls-4 {
        fill: none;
        stroke-width: 3px;
      }
    </style>
    <linearGradient id="_未命名漸層_403" data-name="未命名漸層 403" x1="514.37" y1="138.22" x2="514.37" y2="1155.69" gradientUnits="userSpaceOnUse">
      <stop offset="0" stop-color="#eae6db"/>
      <stop offset=".14" stop-color="#eae6db"/>
      <stop offset="1" stop-color="#eae6db"/>
    </linearGradient>
    <linearGradient id="_未命名漸層_429" data-name="未命名漸層 429" x1="514.33" y1="163.71" x2="514.33" y2="44.04" gradientUnits="userSpaceOnUse">
      <stop offset="0" stop-color="#eae6db"/>
      <stop offset=".35" stop-color="#ded4af"/>
      <stop offset=".78" stop-color="#d2c080"/>
      <stop offset="1" stop-color="#ceb96e"/>
    </linearGradient>
  </defs>
  <path class="cls-2" d="m513.62.08C170.76,76.32,50.93,333.93,15.42,440.29c-8.68,26.01-13.05,53.27-13.05,80.69v675.3h1024v-675.3c0-27.42-4.37-54.68-13.05-80.69C977.82,333.93,857.99,76.32,515.13.08c-.5-.11-1.02-.11-1.52,0Z"/>
  <path class="cls-3" d="m36.51,1162.15v-641.17c0-23.92,3.8-47.44,11.29-69.88,15.24-45.65,52.01-134.89,127.02-219.58,87.25-98.52,201.46-164.64,339.56-196.61,138.1,31.97,252.31,98.09,339.56,196.61,75.01,84.69,111.78,173.93,127.02,219.58,7.49,22.45,11.29,45.96,11.29,69.88v641.17H36.51Z"/>
  <path class="cls-4" d="m737.56,171.38c33.06,24.17,63.37,51.78,90.82,82.77,70.99,80.15,105.77,164.57,120.19,207.76,6.33,18.96,9.54,38.83,9.54,59.08v607.04H70.64v-607.04c0-20.24,3.21-40.12,9.54-59.08,14.42-43.19,49.2-127.6,120.19-207.76,26.72-30.17,56.14-57.13,88.18-80.83"/>
  <path class="cls-1" d="m514.33,163.22c55.16,0,99.87-39.99,99.87-89.32,0-2.81-.15-5.58-.43-8.32-29.7-11.61-62.55-21.37-98.89-28.59-.36-.07-.73-.07-1.09,0-36.34,7.23-69.19,16.99-98.89,28.59-.28,2.74-.44,5.52-.44,8.32,0,49.33,44.71,89.32,99.87,89.32Z"/>
  <g>
    <g>
      <path class="cls-2" d="m356.06,68.45c-.21.22-.24.53-.28.83.01.44.11.69.51.99.27.34.57.38.83.28l22.73-.8c-.03-.87.08-1.79.31-2.75l-22.99.89c-.43.01-.77.28-1.11.55Z"/>
      <path class="cls-2" d="m352.97,70.75c.43-.01.69-.11,1.03-.37.34-.27.33-.71.31-1.14-.01-.43-.24-.65-.46-.86-.22-.21-.57-.38-.88-.41l-21.87.78c-.43.01-.64.23-.85.46-.34.27-.37.58-.36,1.01.01.44.11.69.33.91.27.34.7.33,1.14.32l21.61-.68Z"/>
      <path class="cls-2" d="m325.74,80.81c-.29.4-.33.71-.31,1.14.01.44.11.69.41.73.27.34.45.42.88.41l30.64-3.09c.43-.01.69-.1.98-.5.21-.22.24-.53.23-.96-.01-.44-.28-.78-.46-.86-.22-.21-.57-.38-1.01-.37l-30.6,3.22c-.43.01-.69.11-.77.28Z"/>
      <path class="cls-2" d="m321.52,83.23c.21-.22.37-.58.36-1.01-.01-.44-.24-.65-.51-.99-.18-.08-.53-.25-.96-.24l-13.44,1.52c-.43.01-.77.28-.85.46-.21.22-.24.53-.23.96.01.44.11.69.46.86.27.34.57.38,1.01.37l13.31-1.47c.43-.01.77-.28.85-.46Z"/>
      <path class="cls-2" d="m393.87,126.25c-.46-.86-.87-1.59-1.33-2.45l-31.65,15.93c-.34.27-.55.49-.58.8-.16.35-.2.66.07,1,.22.21.45.42.72.77.43-.01.74.03,1.08-.25l31.7-15.8Z"/>
      <path class="cls-2" d="m396.92,131.01l-4.56,2.69c-.34.27-.55.49-.54.93-.08.18-.12.48.15.82.27.34.49.55.8.59.18.08.61.07,1-.07l4.69-2.73c-.59-.81-1.13-1.5-1.54-2.23Z"/>
      <path class="cls-2" d="m403.71,139.24c-.62-.51-1.16-1.19-1.83-1.83l-18.62,12.5c-.34.27-.68.54-.71.85-.16.35-.02.74.25,1.08.22.21.45.42.88.41.3.04.61.07.99-.07l19.04-12.95Z"/>
      <path class="cls-2" d="m386.87,137.02l-3.29,1.78c-.21.22-.42.45-.41.88-.21.22-.12.48.15.82.27.34.54.68.72.77.3.04.74.02,1.12-.12l2.93-1.95c.34-.27.68-.54.76-.72.12-.48.15-.79-.12-1.13-.27-.34-.57-.38-.88-.41-.27-.34-.66-.2-.99.07Z"/>
      <path class="cls-2" d="m379.11,144.53c.34-.27.5-.62.58-.8.16-.35.2-.66.06-1.05-.27-.34-.62-.51-.93-.54-.22-.21-.66-.2-.99.07l-26.59,15.41c-.34.27-.55.49-.54.93-.21.22-.12.48.15.82.27.34.54.68.72.77.3.04.69-.1,1.08-.24l26.47-15.36Z"/>
      <path class="cls-2" d="m380.85,152.11c-.48-.12-.78-.15-1.12.12l-17.89,12.09c-.34.27-.68.54-.66.98-.21.22-.07.61.2.95.27.34.49.55.93.54.18.08.61.07,1-.07l17.89-12.09c.34-.27.5-.62.62-1.11.08-.18.12-.48-.15-.82-.27-.34-.62-.51-.8-.59Z"/>
      <path class="cls-2" d="m386.65,110.4c-.2-.95-.48-1.73-.81-2.64l-26.95,9.23c.28.78.44,1.6.51,2.6l27.26-9.19Z"/>
      <path class="cls-2" d="m390.05,118.55c-.46-.86-.74-1.64-1.07-2.54l-16.15,6.47c-.39.14-.6.36-.89.76-.16.35-.2.66.07,1,.09.26.32.47.72.77.18.08.61.07,1.04.06l16.28-6.52Z"/>
      <path class="cls-2" d="m384.13,103.11c-.24-.65-.52-1.42-.72-2.38l-27.67,8.46c.46.86.87,1.59,1.02,2.41l27.36-8.5Z"/>
      <path class="cls-2" d="m374.21,78.27l5.23-.44c-.03-.87-.05-1.74.05-2.66l-5.62.58c-.3-.04-.56.06-.77.28-.34.27-.33.71-.31,1.14.01.44.24.65.41.73.27.34.57.38,1.01.37Z"/>
      <path class="cls-2" d="m380.17,86.22c-.15-.82-.18-1.69-.38-2.65l-34.94,5.69c-.43.01-.77.28-.98.5-.29.4-.33.71-.18,1.09-.03.31.19.52.59.81.27.34.57.38,1.01.37l34.9-5.82Z"/>
      <path class="cls-2" d="m363.89,98.74c.4.29.7.33.96.24l16.91-4.4c-.15-.82-.36-1.78-.69-2.68l-16.91,4.4c-.39.14-.6.36-.89.76-.03.31-.07.61.03.87.01.44.24.65.59.81Z"/>
      <path class="cls-2" d="m360.16,98.49c-.18-.08-.4-.3-.67-.64-.35-.17-.66-.2-.96-.24l-19.45,5.03c-.34.27-.68.54-.84.89-.21.22-.24.53-.15.79.01.43.24.65.64.94.3.04.61.07,1-.07l19.49-4.9c.3.04.51-.19.81-.59.16-.35.15-.79.14-1.22Z"/>
      <path class="cls-2" d="m363.22,78.89c.27.34.45.42.88.41l3.63-.44c.43-.01.82-.15.98-.5.08-.18.29-.4.28-.83-.01-.44-.28-.78-.51-.99-.18-.08-.53-.25-.83-.28l-3.8.36c-.43.01-.64.23-.72.41-.34.27-.37.58-.36,1.01.01.44.28.78.46.86Z"/>
      <path class="cls-2" d="m339.46,90.48c-.35-.17-.66-.2-.91-.11l-4.53.77c-.43.01-.77.28-.85.46-.29.4-.33.71-.36,1.01.01.44.24.65.63.94.18.08.61.07,1.04.06l4.4-.72c.3.04.51-.19.81-.59.21-.22.25-.53.15-.79-.01-.43-.11-.69-.38-1.04Z"/>
      <path class="cls-2" d="m350.76,113.5c-.36-.6-.69-1.51-.9-2.46l-35.48,11.01c-.39.14-.6.36-.76.72-.04.31-.07.61.07,1-.03.31.19.52.54.68.35.17.66.2.91.11l35.61-11.06Z"/>
      <path class="cls-2" d="m353.55,121.58c-.51-.99-.66-1.81-.77-2.51l-35.15,11.92c-.43.01-.77.28-.89.76-.08.18-.12.48.03.87.01.44.24.65.67.64.22.21.53.25.83.28l35.28-11.97Z"/>
      <path class="cls-2" d="m368.33,127.34c.34-.27.55-.49.58-.8.16-.35.2-.66.1-.92-.01-.43-.24-.65-.72-.77-.4-.3-.7-.33-.91-.11l-18.6,7.36c-.43.01-.64.23-.89.76-.21.22-.2.66.07,1,.09.26.32.47.67.64.22.21.66.2,1.04.06l18.64-7.23Z"/>
      <path class="cls-2" d="m344.71,136.09c.03-.31.07-.61.1-.92-.14-.39-.41-.73-.85-.72-.35-.17-.66-.2-.87.02l-23.69,9.36c-.43.01-.77.28-.94.63-.16.35-.2.66-.06,1.05.09.26.32.47.84.72.22.21.53.25.91.11l23.82-9.41c.34-.27.55-.49.71-.85Z"/>
      <path class="cls-2" d="m334.19,104.43c-.35-.17-.66-.2-1.09-.19l-24.83,6.26c-.39.14-.6.36-.89.76-.03.31-.07.61.03.87.01.44.28.78.59.81.4.29.7.33.96.24l24.91-6.43c.3.04.52-.19.68-.54.34-.27.33-.71.31-1.14-.22-.21-.45-.42-.67-.64Z"/>
      <path class="cls-2" d="m329.25,94.05c.34-.27.33-.71.31-1.14.08-.18-.14-.39-.41-.73-.35-.17-.66-.2-1.09-.19l-6.34.99c-.39.14-.73.41-1.06.68-.16.35-.2.66-.1.92.01.44.24.65.59.81.27.34.57.38.88.41l6.55-1.21c.43-.01.64-.23.68-.54Z"/>
      <path class="cls-2" d="m314.12,96.92c.3.04.51-.19.81-.59.34-.27.37-.58.23-.97-.01-.44-.24-.65-.46-.86-.35-.17-.66-.2-.96-.24l-4.96.78c.2.95.36,1.78.38,2.65l4.96-.78Z"/>
      <path class="cls-2" d="m304.05,114.09c.16-.35.2-.66.1-.92-.14-.39-.36-.6-.59-.81-.4-.3-.7-.33-.96-.24l-15.62,3.93c-.08.18-.03.31-.12.48-.1.92-.12,1.66-.27,2.45l16.65-4.3c.3.04.51-.19.81-.59Z"/>
      <path class="cls-2" d="m289.36,100.96c-.11-.69-.26-1.52-.21-2.57l-3.76.49c-.26.09-.47.32-.81.59-.16.35-.33.71-.36,1.01.14.39.41.73.76.9.22.21.53.25.96.24l3.41-.65Z"/>
      <path class="cls-2" d="m312.82,135.38c.34-.27.55-.49.76-.72.34-.27.33-.71.18-1.09-.22-.21-.45-.42-.67-.64-.27-.34-.7-.33-1.04-.06l-34.81,11.65.9,2.46,34.68-11.6Z"/>
      <path class="cls-2" d="m315.32,146.65c.03-.31-.19-.52-.72-.77-.35-.17-.66-.2-.87.02l-15.94,6.25c.62.51,1.16,1.19,1.57,1.92.18.08.22.21.27.34l14.99-6.05c.34-.27.55-.49.63-.67.16-.35.2-.66.06-1.05Z"/>
      <path class="cls-2" d="m309.67,123.92c-.18-.08-.48-.12-.91-.11l-35.09,10.87.94,2.59,34.92-10.96c.43-.01.77-.28.93-.63.21-.22.2-.66.06-1.05-.27-.34-.49-.55-.84-.72Z"/>
      <path class="cls-2" d="m347.74,161.24c-.14-.39-.36-.6-.67-.64-.48-.12-.74-.02-1.08.25l-11.68,6.75c-.39.14-.47.32-.5.62-.16.35-.15.79.12,1.13.09.26.32.47.8.59.18.08.43-.01.82-.15l11.81-6.79c.34-.27.55-.49.63-.67-.01-.44.02-.74-.25-1.08Z"/>
      <path class="cls-2" d="m356.54,144.98c.21-.22.42-.45.58-.8.03-.31.07-.61-.2-.95-.01-.44-.24-.65-.67-.64-.35-.16-.66-.2-.87.02l-4.11,1.93c-.34.27-.68.54-.76.72-.12.48-.15.79,0,1.18.22.21.45.42.93.54.22.21.66.2.99-.07l4.1-1.93Z"/>
      <path class="cls-2" d="m347.19,149.71c.21-.22.42-.45.58-.8.03-.31.07-.61-.15-.82-.01-.44-.28-.78-.72-.77-.35-.17-.66-.2-.87.02l-5.94,2.9c-.34.27-.55.49-.63.67-.24.53-.28.83-.06,1.05.14.39.36.6.85.72.35.16.66.2.99-.07l5.94-2.9Z"/>
      <path class="cls-2" d="m332.96,153.86l-4.44,2.2c.46.86.92,1.72,1.2,2.5l4.4-2.33c.26-.09.47-.32.76-.72-.01-.43.02-.74-.15-.82-.27-.34-.54-.68-.72-.77-.53-.25-.83-.28-1.04-.06Z"/>
      <path class="cls-2" d="m308.61,169.04l3.2-1.61c-.46-.86-.87-1.59-1.15-2.37l-3.2,1.61c-.39.14-.6.36-.58.8-.29.4-.33.7-.06,1.05.22.21.45.42.72.77.43-.01.74.02,1.08-.25Z"/>
    </g>
    <g>
      <path class="cls-2" d="m388.33,160.84c-.04.3.11.57.26.84.27.35.49.5.99.5.42.12.69-.03.84-.26l17.92-14.01c-.53-.69-.99-1.49-1.37-2.41l-18.07,14.24c-.34.26-.46.68-.57,1.1Z"/>
      <path class="cls-2" d="m387.18,164.52c.34-.26.5-.49.61-.91.11-.42-.15-.76-.42-1.11-.27-.34-.57-.39-.88-.43-.31-.04-.69.03-.95.18l-17.23,13.48c-.34.26-.38.57-.42.87-.12.42.04.69.3,1.03.27.35.49.5.8.54.42.12.76-.15,1.11-.41l17.08-13.26Z"/>
      <path class="cls-2" d="m371.06,188.67c0,.49.15.76.42,1.11.27.35.49.5.76.35.42.12.61.08.95-.18l22.97-20.51c.34-.26.5-.49.5-.98.04-.3-.11-.57-.38-.92-.27-.35-.69-.46-.88-.43-.3-.04-.69.03-1.03.3l-22.86,20.59c-.34.26-.5.49-.46.68Z"/>
      <path class="cls-2" d="m369.07,193.1c.04-.3-.04-.69-.3-1.03-.27-.34-.57-.38-.99-.5-.19.04-.57.11-.92.37l-9.98,9.13c-.34.26-.46.68-.42.87-.04.3.11.57.38.92.27.34.5.5.88.43.42.12.69-.03,1.03-.3l9.9-9.01c.34-.26.46-.68.42-.87Z"/>
      <path class="cls-2" d="m452.9,185.38c-.88-.43-1.64-.77-2.52-1.2l-16.24,31.49c-.12.42-.15.72,0,.99.08.38.23.65.65.77.31.04.61.08,1.03.2.34-.26.61-.41.73-.83l16.36-31.41Z"/>
      <path class="cls-2" d="m458.16,187.44l-2.11,4.85c-.12.42-.15.72.11,1.07.04.19.19.46.61.58.42.12.72.16.99,0,.19-.04.53-.3.76-.64l2.19-4.97c-.95-.31-1.79-.55-2.55-.9Z"/>
      <path class="cls-2" d="m468.49,190.11c-.8-.04-1.64-.28-2.55-.4l-7.71,21.06c-.11.42-.23.84-.08,1.1.08.38.42.61.84.73.3.04.61.08.95-.18.27-.15.53-.3.76-.64l7.79-21.67Z"/>
      <path class="cls-2" d="m453.55,198.21l-1.61,3.37c-.04.3-.08.61.19.95-.04.3.19.46.61.58.42.12.84.24,1.03.2.27-.15.61-.41.84-.75l1.23-3.3c.12-.42.23-.83.19-1.03-.19-.46-.34-.73-.76-.84-.42-.12-.69.03-.95.18-.42-.12-.65.22-.76.64Z"/>
      <path class="cls-2" d="m451.7,208.85c.12-.42.04-.8,0-.99-.07-.38-.23-.65-.57-.88-.42-.12-.8-.04-1.07.11-.31-.04-.65.22-.76.64l-12.46,28.1c-.11.42-.15.72.11,1.07-.04.3.19.46.61.58.42.12.84.24,1.03.2.27-.15.5-.49.73-.83l12.38-27.98Z"/>
      <path class="cls-2" d="m457.56,213.96c-.46.19-.73.34-.84.75l-7.37,20.3c-.12.42-.23.84.04,1.18-.04.3.3.54.72.65.42.12.72.16,1.07-.11.19-.04.54-.3.77-.64l7.37-20.3c.12-.42.04-.8-.15-1.26-.04-.19-.19-.46-.61-.58-.42-.12-.8-.04-.99,0Z"/>
      <path class="cls-2" d="m437.73,176.81c-.72-.65-1.41-1.11-2.21-1.65l-16.38,23.31c.69.46,1.29,1.04,1.94,1.8l16.65-23.46Z"/>
      <path class="cls-2" d="m445.27,181.4c-.88-.43-1.56-.89-2.36-1.43l-9.26,14.73c-.23.34-.27.64-.27,1.14.08.38.23.65.65.77.23.15.53.19,1.03.2.19-.04.53-.3.88-.56l9.34-14.84Z"/>
      <path class="cls-2" d="m431.41,172.38c-.57-.39-1.26-.85-1.98-1.5l-17.41,23.11c.88.43,1.64.78,2.25,1.35l17.14-22.96Z"/>
      <path class="cls-2" d="m408.78,158.11l3.97-3.43c-.53-.69-1.06-1.38-1.52-2.18l-4.2,3.77c-.27.15-.42.38-.46.68-.12.42.15.76.42,1.11.27.35.57.39.76.35.42.12.69-.03,1.03-.3Z"/>
      <path class="cls-2" d="m418.27,161.05c-.61-.57-1.14-1.26-1.87-1.92l-24.93,25.14c-.34.26-.46.68-.5.99,0,.49.15.76.49.99.15.27.46.31.95.31.42.12.69-.03,1.03-.3l24.81-25.22Z"/>
      <path class="cls-2" d="m412.47,180.75c.5,0,.76-.15.92-.37l11.09-13.5c-.61-.58-1.33-1.23-2.13-1.77l-11.09,13.49c-.23.34-.27.64-.27,1.14.15.27.3.53.53.69.27.34.57.39.95.31Z"/>
      <path class="cls-2" d="m409.3,182.74c-.19.04-.5,0-.91-.12-.38.07-.65.22-.92.37l-12.78,15.5c-.11.42-.23.84-.15,1.22-.04.3.11.57.34.73.27.34.57.39,1.07.39.27-.15.53-.3.76-.64l12.89-15.42c.27-.15.31-.45.31-.95-.08-.38-.34-.73-.61-1.07Z"/>
      <path class="cls-2" d="m400.26,165.09c.42.12.61.08.95-.18l2.68-2.49c.34-.26.57-.6.5-.99-.04-.19,0-.49-.26-.84-.27-.34-.69-.46-.99-.5-.19.04-.57.11-.84.26l-2.87,2.53c-.34.26-.38.57-.35.76-.11.42.04.69.3,1.03.27.34.69.46.88.43Z"/>
      <path class="cls-2" d="m387.85,188.42c-.38.07-.65.22-.8.45l-3.21,3.28c-.34.26-.46.68-.42.87,0,.49.15.76.3,1.03.27.34.57.39,1.07.39.19-.04.53-.3.88-.56l3.13-3.17c.27-.15.31-.45.31-.95.04-.3-.11-.57-.34-.73-.27-.34-.5-.5-.91-.62Z"/>
      <path class="cls-2" d="m410.52,200.41c-.65-.27-1.45-.81-2.17-1.46l-22.23,29.77c-.23.34-.27.65-.19,1.03.15.27.3.53.65.77.15.27.46.31.84.24.38-.07.65-.22.8-.45l22.31-29.88Z"/>
      <path class="cls-2" d="m417.53,205.3c-.99-.5-1.6-1.08-2.09-1.58l-21.43,30.31c-.34.26-.46.68-.27,1.14.04.19.19.46.53.69.27.34.57.39.91.12.31.04.57-.11.84-.26l21.51-30.42Z"/>
      <path class="cls-2" d="m432.87,201.27c.12-.42.15-.72,0-.99-.08-.38-.23-.65-.46-.8-.27-.34-.57-.39-1.03-.2-.5,0-.76.15-.8.45l-10.72,16.88c-.34.26-.38.57-.27,1.14-.04.3.23.65.65.77.23.15.53.2.91.12.31.04.65-.22.88-.56l10.83-16.81Z"/>
      <path class="cls-2" d="m418.9,222.24c-.15-.27-.3-.54-.46-.8-.34-.23-.76-.35-1.11-.08-.38.07-.65.22-.69.53l-13.67,21.5c-.34.26-.46.68-.38,1.06.08.38.23.65.57.88.23.15.53.19,1.11.09.3.04.57-.11.8-.45l13.74-21.62c.11-.42.16-.72.08-1.1Z"/>
      <path class="cls-2" d="m391.78,202.8c-.38.07-.65.22-.99.49l-16.41,19.65c-.23.34-.27.65-.27,1.14.15.27.3.54.53.69.27.34.69.46.95.31.5,0,.76-.15.92-.37l16.37-19.84c.27-.15.31-.45.23-.84.12-.42-.15-.76-.42-1.11-.3-.04-.61-.08-.91-.12Z"/>
      <path class="cls-2" d="m381.69,197.32c.12-.42-.15-.76-.42-1.11-.04-.19-.34-.23-.76-.35-.38.07-.65.22-.99.49l-4.55,4.53c-.23.34-.35.76-.46,1.18.07.38.23.65.46.8.27.34.57.39.95.31.42.12.69-.03.95-.18l4.59-4.83c.34-.26.38-.57.23-.83Z"/>
      <path class="cls-2" d="m371.13,208.53c.27-.15.31-.45.31-.95.12-.42-.04-.69-.38-.92-.27-.34-.57-.39-.88-.43-.38.07-.65.22-.92.37l-3.56,3.55c.72.65,1.33,1.23,1.86,1.92l3.56-3.55Z"/>
      <path class="cls-2" d="m373.07,228.34c-.08-.38-.23-.65-.46-.8-.34-.23-.65-.27-.95-.31-.5,0-.76.15-.92.37l-10.33,12.36c.04.19.15.27.19.46.46.8.87,1.41,1.22,2.14l10.94-13.27c.27-.15.31-.45.31-.95Z"/>
      <path class="cls-2" d="m353.47,226.35c-.5-.5-1.1-1.07-1.67-1.95l-2.75,2.6c-.15.23-.19.53-.31.95.08.38.15.76.3,1.03.34.23.76.35,1.14.28.31.04.57-.11.92-.37l2.37-2.53Z"/>
      <path class="cls-2" d="m392.69,240.41c.12-.42.15-.72.19-1.03.12-.42-.15-.76-.49-.99-.3-.04-.61-.08-.91-.12-.42-.12-.76.15-.88.56l-21.31,29.89,2.17,1.46,21.24-29.77Z"/>
      <path class="cls-2" d="m401.33,248.05c-.15-.27-.46-.31-1.03-.2-.38.07-.65.22-.69.53l-9.23,14.42c.8.04,1.64.28,2.4.63.19-.04.31.04.42.12l8.58-13.71c.12-.42.15-.72.12-.91-.08-.38-.23-.65-.57-.88Z"/>
      <path class="cls-2" d="m383.4,232.99c-.19.04-.46.19-.8.45l-22,29.43,2.29,1.54,21.81-29.39c.34-.26.46-.68.38-1.06.04-.3-.23-.65-.57-.88-.42-.12-.72-.16-1.11-.09Z"/>
      <path class="cls-2" d="m436.14,240.8c-.34-.23-.65-.27-.92-.12-.46.19-.61.41-.73.83l-5.48,12.32c-.23.34-.19.53-.04.8.07.38.34.73.76.84.23.15.53.19.99,0,.19-.04.34-.26.57-.6l5.56-12.44c.12-.42.15-.72.12-.91-.27-.35-.42-.61-.84-.73Z"/>
      <path class="cls-2" d="m433.7,222.48c.04-.3.08-.61,0-.99-.15-.27-.3-.54-.72-.65-.27-.34-.57-.39-.91-.12-.38.07-.65.22-.69.53l-2.18,3.98c-.11.42-.23.83-.19,1.03.19.46.34.73.68.96.31.04.61.08,1.07-.11.3.04.65-.22.76-.64l2.18-3.98Z"/>
      <path class="cls-2" d="m428.91,231.8c.04-.3.08-.61,0-.99-.15-.27-.3-.54-.61-.58-.27-.35-.69-.46-1.03-.2-.38.07-.65.22-.69.53l-3.1,5.84c-.12.42-.15.72-.12.91.11.57.26.84.57.88.34.23.65.27,1.11.08.38-.07.65-.22.76-.64l3.1-5.83Z"/>
      <path class="cls-2" d="m419.85,243.52l-2.3,4.39c.88.43,1.75.85,2.44,1.31l2.18-4.47c.15-.23.19-.53.19-1.03-.27-.34-.42-.61-.61-.58-.42-.12-.84-.24-1.03-.2-.57.11-.84.26-.88.56Z"/>
      <path class="cls-2" d="m409.07,270.11l1.65-3.18c-.88-.43-1.64-.77-2.32-1.24l-1.65,3.18c-.23.34-.27.64,0,.99,0,.49.15.76.57.88.3.04.61.08,1.03.2.34-.26.61-.41.73-.83Z"/>
    </g>
    <g>
      <path class="cls-2" d="m468.74,216.62c.15.27.43.4.71.52.42.12.69.11,1.1-.18.41-.15.54-.43.53-.7l6.26-21.87c-.84-.24-1.68-.63-2.52-1.14l-6.25,22.14c-.12.41.03.82.18,1.23Z"/>
      <path class="cls-2" d="m469.97,220.28c.12-.42.11-.69-.04-1.09-.15-.41-.57-.53-.99-.65-.42-.12-.69.02-.96.17-.27.15-.54.43-.66.71l-6.02,21.04c-.12.41.02.68.17.95.15.41.43.53.85.65.42.12.69.11.96-.03.41-.15.53-.57.66-.98l6.03-20.76Z"/>
      <path class="cls-2" d="m471.13,249.28c.29.4.57.53.99.65.42.12.69.11.82-.17.41-.15.54-.29.66-.71l6.53-30.1c.12-.41.11-.69-.18-1.09-.15-.27-.43-.4-.85-.52-.42-.12-.83.03-.96.17-.27.15-.54.43-.66.85l-6.39,30.09c-.12.41-.11.69.03.82Z"/>
      <path class="cls-2" d="m472.12,254.04c-.15-.27-.43-.53-.85-.65-.42-.12-.69.02-1.1.18-.13.14-.4.43-.52.84l-2.71,13.25c-.12.41.03.82.17.95.15.27.43.4.84.52.42.12.69.11.96-.17.41-.15.54-.43.66-.85l2.71-13.11c.12-.41-.03-.82-.17-.95Z"/>
      <path class="cls-2" d="m535.4,198.52c-.96.17-1.78.34-2.74.51l5.37,35.02c.15.41.3.67.58.8.29.26.57.39.97.24.27-.15.54-.29.95-.44.12-.41.25-.69.1-1.1l-5.23-35.03Z"/>
      <path class="cls-2" d="m540.87,197.1l1.15,5.17c.15.41.3.67.72.8.14.13.42.26.83.11.41-.15.68-.3.81-.58.13-.14.26-.56.24-.97l-1.15-5.3c-.95.31-1.77.61-2.59.78Z"/>
      <path class="cls-2" d="m550.79,193.19c-.67.44-1.49.74-2.3,1.18l6.13,21.57c.15.41.31.81.58.94.29.26.7.25,1.11.1.27-.15.54-.29.66-.71.13-.28.26-.56.24-.97l-6.43-22.11Z"/>
      <path class="cls-2" d="m543.47,208.52l.68,3.68c.15.27.29.54.71.66.15.27.42.26.83.11.41-.15.82-.3.95-.44.13-.28.25-.69.24-1.1l-.95-3.39c-.15-.41-.3-.81-.45-.94-.42-.26-.7-.39-1.11-.23-.41.15-.54.43-.66.71-.41.15-.39.56-.24.97Z"/>
      <path class="cls-2" d="m548.23,218.21c-.15-.41-.44-.67-.58-.8-.28-.26-.57-.39-.98-.38-.41.15-.67.44-.8.71-.27.15-.39.56-.24.97l6.43,30.05c.15.41.3.67.72.8.15.27.42.26.83.11.41-.15.82-.3.95-.44.13-.28.11-.69.1-1.1l-6.43-29.92Z"/>
      <path class="cls-2" d="m555.97,218.9c-.26.42-.39.7-.24,1.11l5.97,20.75c.15.41.31.81.72.93.15.27.56.25.97.1.41-.15.68-.3.8-.71.13-.14.26-.56.24-.97l-5.97-20.75c-.15-.41-.44-.67-.86-.93-.14-.13-.42-.26-.83-.11-.41.15-.67.44-.81.58Z"/>
      <path class="cls-2" d="m518.09,200.5c-.97-.1-1.8-.07-2.76-.04l.45,28.48c.83-.03,1.66.08,2.63.32l-.32-28.76Z"/>
      <path class="cls-2" d="m526.89,199.78c-.96.17-1.79.2-2.75.23l1.16,17.36c.01.41.16.68.45,1.08.28.26.57.39.97.24.27,0,.55-.16.95-.44.13-.14.26-.56.38-.97l-1.17-17.5Z"/>
      <path class="cls-2" d="m510.38,200.63c-.69.02-1.51.05-2.48-.05l-.5,28.93c.96-.17,1.78-.34,2.61-.23l.37-28.65Z"/>
      <path class="cls-2" d="m483.69,202.39l1.2-5.11c-.84-.25-1.67-.49-2.51-.87l-1.18,5.52c-.13.28-.12.55.03.82.15.41.57.53.99.65.42.12.69-.02.82-.17.41-.15.54-.43.66-.85Z"/>
      <path class="cls-2" d="m493.09,199.19c-.83-.11-1.67-.35-2.64-.46l-5.39,34.99c-.12.42.03.82.18,1.09.29.4.57.53.98.51.28.13.55-.02.95-.31.41-.15.54-.43.66-.84l5.25-34.99Z"/>
      <path class="cls-2" d="m499.97,218.54c.4-.29.53-.57.52-.84l1.04-17.44c-.83-.11-1.8-.21-2.76-.18l-1.04,17.44c.01.41.16.68.45,1.08.28.13.56.25.84.24.42.12.69-.02.95-.31Z"/>
      <path class="cls-2" d="m498.58,222.01c-.13.14-.4.29-.81.44-.27.28-.39.56-.52.84l-1.23,20.05c.15.41.3.81.59,1.08.15.27.43.4.7.39.42.12.69-.02,1.09-.31.13-.28.26-.56.24-.97l1.36-20.05c.13-.28-.02-.55-.31-.95-.29-.26-.7-.39-1.12-.51Z"/>
      <path class="cls-2" d="m480.89,213.04c.41-.15.54-.29.66-.71l.7-3.59c.12-.41.11-.83-.18-1.09-.14-.13-.29-.4-.71-.52-.42-.12-.83.03-1.1.18-.13.14-.4.43-.53.7l-.83,3.73c-.12.41.02.68.17.82.15.41.43.53.85.65.42.12.83-.03.96-.17Z"/>
      <path class="cls-2" d="m484.57,239.22c-.27.28-.39.56-.39.84l-.67,4.55c-.12.42.03.82.17.95.29.4.57.53.85.66.42.12.69-.02,1.09-.31.13-.14.26-.56.38-.97l.67-4.41c.13-.28-.02-.55-.31-.95-.15-.27-.43-.4-.7-.39-.42-.12-.69-.11-1.1.04Z"/>
      <path class="cls-2" d="m509.95,235.59c-.68.16-1.65.2-2.62.09l-.49,37.15c.01.41.16.68.45.94.28.13.56.25.97.24.28.13.55-.02.82-.3.27-.28.39-.56.38-.84l.48-37.29Z"/>
      <path class="cls-2" d="m518.49,235.42c-1.1.18-1.93.07-2.62-.05l.48,37.11c-.12.42.03.82.45,1.08.14.13.42.26.84.24.42.12.69-.02.81-.44.27-.15.4-.43.53-.7l-.48-37.25Z"/>
      <path class="cls-2" d="m528.54,223.15c-.15-.41-.3-.67-.58-.8-.29-.26-.57-.39-.84-.38-.42-.12-.69.02-.95.44-.4.29-.53.57-.38.84l1.25,19.96c-.12.42.02.68.45,1.08.15.27.57.39.97.24.28,0,.55-.16.81-.44.27-.15.4-.56.38-.97l-1.12-19.96Z"/>
      <path class="cls-2" d="m529.56,248.33c-.28-.13-.56-.25-.84-.38-.41.01-.82.17-.94.58-.27.28-.39.56-.25.83l1.58,25.43c-.12.42.03.82.31,1.09.28.26.57.39.98.38.28,0,.55-.16.95-.58.27-.15.4-.43.38-.84l-1.59-25.57c-.15-.41-.3-.67-.58-.94Z"/>
      <path class="cls-2" d="m496.2,248.54c-.27.28-.39.56-.52.98l-1.72,25.54c.01.41.16.68.45,1.08.28.13.56.25.84.24.42.12.83-.03.95-.31.4-.29.53-.57.52-.84l1.58-25.68c.13-.28-.02-.55-.3-.81-.15-.41-.57-.53-.99-.65-.27.15-.54.29-.81.44Z"/>
      <path class="cls-2" d="m484.81,250.04c-.15-.41-.57-.53-.99-.65-.14-.13-.41.01-.82.17-.27.28-.4.56-.52.98l-1.02,6.34c.01.41.17.82.32,1.22.28.26.57.39.84.38.42.12.69-.02.95-.31.41-.15.54-.43.66-.71l.87-6.61c.12-.42-.02-.68-.3-.81Z"/>
      <path class="cls-2" d="m482.86,265.31c.13-.28-.02-.55-.31-.95-.15-.41-.43-.53-.85-.52-.42-.12-.69.02-.96.17-.27.28-.39.56-.52.84l-.79,4.96c.97.1,1.8.21,2.64.46l.79-4.96Z"/>
      <path class="cls-2" d="m496.07,280.19c-.29-.26-.57-.39-.84-.38-.41.01-.68.16-.95.31-.4.29-.53.57-.52.84l-1.09,16.07c.14.13.28.13.42.26.84.38,1.54.63,2.24,1.02l1.05-17.16c.13-.28-.02-.55-.31-.95Z"/>
      <path class="cls-2" d="m479.04,290.11c-.69-.11-1.52-.22-2.5-.6l-.7,3.72c0,.27.16.54.31.95.29.26.57.53.85.66.41-.01.82-.17,1.09-.45.27-.15.4-.42.52-.84l.43-3.44Z"/>
      <path class="cls-2" d="m519.04,278.43c-.15-.41-.3-.67-.45-.94-.15-.41-.57-.53-.98-.51-.27.15-.54.29-.81.44-.41.15-.53.57-.38.97l.32,36.71,2.62-.09-.32-36.57Z"/>
      <path class="cls-2" d="m530.52,279.53c-.28-.13-.55.02-.95.44-.27.28-.39.56-.25.83l1.01,17.09c.67-.44,1.49-.74,2.31-.9.13-.14.27-.15.41-.15l-1.12-16.13c-.15-.41-.3-.67-.44-.81-.29-.26-.56-.39-.98-.38Z"/>
      <path class="cls-2" d="m507.16,277.89c-.13.14-.26.42-.38.84l-.5,36.74,2.75-.1.37-36.6c.12-.41-.03-.82-.31-1.08-.15-.27-.57-.39-.98-.38-.41.15-.68.3-.95.58Z"/>
      <path class="cls-2" d="m554.42,253.21c-.41.01-.68.16-.81.44-.26.42-.25.69-.1,1.1l2.81,13.19c.01.41.16.54.44.67.28.26.7.39,1.11.24.28,0,.55-.16.81-.58.13-.14.12-.41.11-.83l-2.81-13.33c-.15-.41-.3-.67-.44-.81-.42-.12-.7-.25-1.11-.1Z"/>
      <path class="cls-2" d="m541.68,239.82c-.15-.27-.29-.54-.58-.8-.28-.13-.56-.25-.97-.1-.42-.12-.69.02-.81.44-.27.28-.39.56-.25.83l.57,4.5c.15.41.3.81.45.94.42.26.7.39,1.12.37.27-.15.54-.29.8-.71.27-.15.39-.56.24-.97l-.57-4.5Z"/>
      <path class="cls-2" d="m543.28,250.17c-.15-.27-.29-.54-.58-.8-.28-.13-.56-.26-.83-.11-.42-.12-.83.03-.95.44-.27.28-.39.56-.25.83l.92,6.54c.15.41.3.67.44.81.43.4.71.52.98.38.41-.01.68-.16.95-.58.27-.28.39-.56.24-.97l-.92-6.54Z"/>
      <path class="cls-2" d="m542.84,264.99l.72,4.91c.96-.17,1.92-.34,2.75-.37l-.86-4.9c0-.27-.16-.54-.45-.94-.42-.12-.7-.25-.83-.11-.41.15-.82.3-.95.44-.4.43-.53.7-.38.97Z"/>
      <path class="cls-2" d="m549.74,292.83l-.54-3.54c-.96.17-1.78.34-2.61.37l.54,3.54c.01.41.16.68.58.8.29.4.57.53.98.38.27-.15.54-.29.95-.44.12-.42.25-.69.1-1.1Z"/>
    </g>
    <g>
      <path class="cls-2" d="m566.58,214.48c.28.13.58.07.88,0,.41-.15.63-.32.78-.79.24-.36.18-.66.01-.88l-7.79-21.37c-.82.29-1.72.48-2.71.56l7.95,21.59c.14.41.51.65.87.89Z"/>
      <path class="cls-2" d="m569.73,216.72c-.14-.41-.31-.62-.67-.86-.36-.24-.77-.09-1.18.05-.41.15-.54.42-.68.7-.13.28-.18.66-.12.96l7.5,20.56c.14.41.42.54.7.67.36.24.66.18,1.07.03.41-.15.63-.32.76-.59.24-.36.1-.77-.05-1.18l-7.33-20.34Z"/>
      <path class="cls-2" d="m587.71,239.5c.47.15.77.09,1.18-.05.41-.15.63-.32.57-.62.24-.36.27-.56.12-.96l-12.41-28.19c-.14-.41-.31-.62-.78-.78-.28-.13-.58-.07-.99.08-.41.15-.65.51-.68.7-.13.28-.18.66-.04,1.07l12.52,28.1c.14.41.31.62.51.65Z"/>
      <path class="cls-2" d="m591.32,242.77c-.28-.13-.66-.18-1.07-.03-.41.15-.54.42-.78.79-.02.19-.07.58.07.99l5.6,12.31c.14.41.51.65.7.67.28.13.58.07.99-.08.41-.15.63-.32.68-.7.24-.36.18-.66.04-1.07l-5.51-12.2c-.14-.41-.51-.65-.7-.67Z"/>
      <path class="cls-2" d="m609.87,160.66c-.68.7-1.24,1.32-1.92,2.02l24.93,25.18c.36.24.64.37.94.31.39.05.69-.02.93-.38.13-.28.27-.56.51-.92-.14-.41-.2-.71-.57-.95l-24.82-25.27Z"/>
      <path class="cls-2" d="m613.46,156.3l3.96,3.51c.36.24.64.37,1.05.22.19.02.49-.04.74-.4.24-.36.37-.64.31-.94.02-.19-.12-.6-.37-.93l-4.05-3.61c-.59.81-1.07,1.53-1.64,2.15Z"/>
      <path class="cls-2" d="m619.19,147.3c-.29.75-.77,1.47-1.17,2.31l17.64,13.84c.36.24.72.48,1.02.42.39.05.71-.21.95-.57.13-.28.27-.56.12-.96-.06-.3-.12-.6-.37-.92l-18.2-14.11Z"/>
      <path class="cls-2" d="m622.28,164l2.71,2.57c.28.13.55.26.96.11.28.13.49-.04.74-.4.24-.36.48-.72.51-.92-.06-.3-.2-.71-.46-1.03l-2.76-2.19c-.36-.24-.72-.48-.92-.5-.49.04-.8.1-1.04.46-.24.36-.18.66-.12.96-.24.36.01.69.37.92Z"/>
      <path class="cls-2" d="m631.82,169.05c-.36-.24-.75-.29-.94-.31-.39-.05-.69.02-1.01.27-.24.36-.29.75-.23,1.05-.13.28.01.69.37.93l22.87,20.53c.36.24.64.37,1.05.22.28.13.49-.04.74-.4.24-.36.48-.72.51-.92-.06-.3-.31-.62-.57-.95l-22.79-20.42Z"/>
      <path class="cls-2" d="m638.49,165.05c.04.49.1.79.46,1.03l17.03,13.28c.36.24.72.48,1.13.33.28.13.6-.12.84-.49.24-.36.37-.64.23-1.05.02-.19-.12-.6-.37-.93l-17.03-13.28c-.36-.24-.75-.28-1.24-.25-.19-.02-.5.04-.74.4-.24.36-.29.75-.31.94Z"/>
      <path class="cls-2" d="m597.03,172.43c-.84.49-1.5,1-2.26,1.59l17.11,22.78c.65-.51,1.39-.91,2.32-1.29l-17.17-23.08Z"/>
      <path class="cls-2" d="m603.73,166.68c-.68.7-1.33,1.21-2.09,1.81l11.14,13.36c.25.32.53.46,1,.61.39.05.69-.02.93-.38.22-.17.35-.45.51-.92.02-.19-.12-.6-.26-1.01l-11.23-13.47Z"/>
      <path class="cls-2" d="m590.87,177.08c-.54.42-1.19.93-2.04,1.42l16.6,23.7c.68-.7,1.24-1.32,1.98-1.72l-16.54-23.4Z"/>
      <path class="cls-2" d="m570.31,194.19l-2.03-4.84c-.82.29-1.64.59-2.54.77l2.29,5.16c.06.3.23.52.51.65.36.24.77.09,1.18-.05.41-.15.54-.42.57-.62.24-.36.18-.66.04-1.07Z"/>
      <path class="cls-2" d="m576.03,186.07c-.73.4-1.56.7-2.4,1.18l16.21,31.48c.14.41.51.65.78.78.47.15.77.09,1.1-.16.3-.06.43-.34.59-.81.24-.36.18-.66.04-1.07l-16.32-31.39Z"/>
      <path class="cls-2" d="m592.98,197.68c.16-.47.1-.77-.07-.99l-9.41-14.72c-.74.4-1.58.89-2.34,1.48l9.41,14.72c.25.32.53.46,1,.61.3-.06.6-.12.82-.29.41-.15.54-.42.59-.81Z"/>
      <path class="cls-2" d="m593.89,201.31c-.02.19-.16.47-.4.83-.05.39.01.69.07.99l10.79,16.94c.36.24.72.48,1.11.52.28.13.58.07.8-.1.41-.15.54-.42.7-.9-.06-.3-.12-.6-.37-.93l-10.68-17.02c-.06-.3-.34-.43-.81-.59-.39-.05-.8.1-1.21.25Z"/>
      <path class="cls-2" d="m574.31,204.45c.24-.36.27-.56.12-.96l-1.54-3.31c-.14-.41-.4-.73-.78-.78-.19-.02-.47-.15-.88,0-.41.15-.65.51-.78.79-.02.19-.07.58-.01.88l1.52,3.51c.14.41.42.54.61.56.36.24.66.18,1.07.03.41-.15.65-.51.68-.7Z"/>
      <path class="cls-2" d="m592.67,223.47c-.05.39.01.69.18.9l2.13,4.07c.14.41.51.65.7.67.47.15.77.09,1.07.03.41-.15.54-.42.7-.89.02-.19-.12-.6-.27-1.01l-2.05-3.96c-.06-.3-.34-.43-.81-.59-.28-.13-.58-.07-.8.1-.41.15-.63.32-.87.68Z"/>
      <path class="cls-2" d="m611.07,205.61c-.46.53-1.22,1.13-2.06,1.61l21.44,30.34c.25.32.53.45.92.5.3-.06.6-.12.93-.38.3-.06.43-.34.48-.72.05-.39-.01-.69-.18-.9l-21.52-30.45Z"/>
      <path class="cls-2" d="m617.88,200.45c-.78.79-1.52,1.19-2.15,1.5l22.2,29.75c.14.41.51.65,1,.61.19.02.49-.04.82-.29.41-.15.54-.42.4-.83.13-.28.07-.58.01-.88l-22.29-29.85Z"/>
      <path class="cls-2" d="m618.8,184.62c-.36-.24-.64-.37-.94-.31-.39-.05-.69.02-.91.19-.41.15-.54.42-.51.92-.16.47-.1.77.18.9l12.75,15.41c.14.41.42.54,1,.61.28.13.69-.02.93-.38.22-.17.35-.45.4-.83.13-.28-.01-.69-.26-1.01l-12.64-15.5Z"/>
      <path class="cls-2" d="m634.43,204.38c-.3.06-.6.12-.9.19-.33.25-.57.62-.42,1.03-.05.39.01.69.29.82l16.23,19.64c.14.41.51.65.89.69.39.05.69-.02,1.01-.27.22-.17.35-.45.42-1.03.13-.28.07-.58-.18-.9l-16.31-19.75c-.36-.24-.64-.37-1.02-.42Z"/>
      <path class="cls-2" d="m607.56,224.17c-.05.39.01.69.16,1.09l13.62,21.68c.25.32.53.45,1,.61.3-.06.6-.12.82-.29.41-.15.65-.51.59-.81.16-.47.1-.77-.07-.99l-13.81-21.7c-.06-.3-.34-.43-.72-.48-.36-.24-.77-.09-1.18.06-.13.28-.27.55-.4.83Z"/>
      <path class="cls-2" d="m599.22,232.07c-.36-.24-.77-.09-1.18.05-.19-.02-.33.25-.57.62-.05.39.01.69.16,1.1l2.9,5.73c.25.32.62.56.98.8.39.05.69-.02.9-.19.41-.15.54-.42.59-.81.24-.36.18-.66.12-.96l-3.18-5.86c-.14-.41-.42-.54-.72-.48Z"/>
      <path class="cls-2" d="m606.63,245.58c-.06-.3-.34-.43-.81-.59-.36-.24-.66-.18-.99.08-.41.15-.54.42-.68.7-.05.39.01.69.07.99l2.28,4.48c.84-.49,1.58-.89,2.4-1.18l-2.28-4.48Z"/>
      <path class="cls-2" d="m626.06,249.85c-.39-.05-.69.02-.9.19-.33.25-.46.53-.59.81-.16.47-.1.77.07.99l8.56,13.64c.19.02.3-.06.49-.04.9-.19,1.62-.39,2.41-.49l-9.24-14.5c-.06-.3-.34-.43-.81-.59Z"/>
      <path class="cls-2" d="m618.11,267.88c-.63.32-1.36.72-2.38.99l1.63,3.42c.17.22.45.35.81.59.39.05.77.09,1.07.03.33-.25.57-.62.62-1,.13-.28.07-.58-.07-.99l-1.67-3.04Z"/>
      <path class="cls-2" d="m643.6,234.92c-.36-.24-.64-.37-.92-.5-.36-.24-.77-.09-1.1.16-.13.28-.27.55-.4.83-.24.36-.1.77.27,1.01l21.84,29.51,2.06-1.61-21.75-29.4Z"/>
      <path class="cls-2" d="m653.54,229.07c-.3.06-.43.34-.51.92-.05.39.01.69.29.82l10.87,13.23c.29-.75.77-1.47,1.34-2.09.02-.19.13-.28.24-.36l-10.38-12.39c-.36-.24-.64-.37-.83-.39-.39-.05-.69.02-1.01.27Z"/>
      <path class="cls-2" d="m633.67,241.47c-.02.19.04.49.18.9l21.19,30.02,2.17-1.7-21.21-29.82c-.14-.41-.51-.65-.89-.69-.28-.13-.69.02-1.01.27-.24.36-.37.64-.42,1.03Z"/>
      <path class="cls-2" d="m657.4,193.72c-.33.25-.46.53-.4.83.04.49.2.71.57.95l10.03,9.02c.25.32.45.35.75.28.39.05.8-.1,1.04-.46.22-.17.35-.45.31-.94.02-.19-.14-.41-.4-.73l-10.11-9.13c-.36-.24-.64-.37-.83-.39-.41.15-.71.21-.95.57Z"/>
      <path class="cls-2" d="m639.22,190.38c-.28-.13-.55-.26-.94-.31-.3.06-.6.12-.84.49-.41.15-.54.42-.4.83-.05.39.01.69.29.82l3.11,3.31c.36.24.72.48.92.5.49-.04.8-.1,1.12-.35.13-.28.27-.56.23-1.05.13-.28-.01-.69-.37-.92l-3.11-3.31Z"/>
      <path class="cls-2" d="m646.61,197.82c-.28-.13-.55-.26-.94-.31-.3.06-.6.12-.74.4-.41.15-.65.51-.51.92-.05.39.01.69.29.82l4.59,4.75c.36.24.64.37.83.39.58.07.88,0,1.01-.27.33-.25.46-.53.42-1.03.05-.38-.01-.69-.37-.92l-4.59-4.75Z"/>
      <path class="cls-2" d="m654.96,210.06l3.47,3.54c.68-.7,1.35-1.4,2-1.91l-3.58-3.46c-.17-.22-.45-.35-.92-.5-.41.15-.71.21-.74.4-.24.36-.48.72-.51.92-.07.58-.01.88.27,1.01Z"/>
      <path class="cls-2" d="m676.91,228.53l-2.52-2.55c-.68.7-1.24,1.32-1.89,1.83l2.52,2.55c.25.32.53.46.94.31.47.15.77.09,1.01-.27.13-.28.26-.56.51-.92-.14-.41-.2-.71-.57-.95Z"/>
    </g>
    <g>
      <path class="cls-2" d="m644.48,155.25c.3-.06.51-.28.72-.51.25-.36.32-.62.17-1.1-.02-.43-.24-.64-.51-.72l-18.86-12.72c-.49.72-1.11,1.4-1.87,2.05l19.13,12.79c.36.25.79.23,1.22.21Z"/>
      <path class="cls-2" d="m648.34,155.2c-.36-.25-.62-.32-1.05-.3-.43.02-.68.38-.92.74-.25.36-.19.66-.13.96.06.3.24.64.47.85l18.15,12.22c.36.25.66.19.96.13.43-.02.64-.25.89-.61.25-.36.32-.62.27-.93-.02-.43-.37-.68-.73-.93l-17.89-12.15Z"/>
      <path class="cls-2" d="m676.28,163.07c.47-.15.68-.38.92-.74.25-.36.32-.62.1-.83-.02-.44-.11-.61-.47-.85l-26.61-15.51c-.36-.25-.62-.32-1.09-.17-.3.06-.51.28-.75.64-.25.36-.23.79-.13.97.06.3.24.64.6.89l26.65,15.38c.36.25.62.32.79.23Z"/>
      <path class="cls-2" d="m681.12,163.59c-.3.06-.64.25-.89.61-.25.36-.19.66-.17,1.1.09.17.28.51.64.76l11.76,6.67c.36.25.79.23.96.13.3-.06.51-.28.75-.64.24-.36.32-.63.13-.97-.02-.44-.24-.64-.6-.89l-11.63-6.63c-.36-.25-.79-.23-.96-.13Z"/>
      <path class="cls-2" d="m647.87,86.26c-.13.97-.23,1.8-.36,2.76l34.97,5.72c.43-.02.73-.08.94-.3.34-.19.55-.42.53-.85-.06-.3-.11-.61-.13-1.04-.36-.25-.58-.45-1.02-.43l-34.93-5.85Z"/>
      <path class="cls-2" d="m648.2,80.62l5.27.51c.43-.02.73-.08.98-.44.17-.09.38-.32.36-.76-.02-.44-.07-.74-.3-.95-.09-.17-.45-.42-.85-.53l-5.4-.54c0,1,.03,1.87-.06,2.71Z"/>
      <path class="cls-2" d="m647.55,69.97c.21.78.24,1.65.41,2.55l22.41.83c.43-.02.87-.04,1.07-.27.34-.19.45-.59.44-1.02-.06-.3-.11-.61-.47-.85-.22-.21-.45-.42-.85-.53l-23.01-.72Z"/>
      <path class="cls-2" d="m659.87,81.67l3.71.49c.3-.06.6-.11.85-.47.3-.06.38-.32.36-.76-.02-.43-.04-.87-.13-1.04-.22-.21-.58-.45-.98-.57l-3.52-.15c-.43.02-.87.04-1.03.13-.38.32-.59.55-.57.99.02.43.24.64.47.85.02.44.41.55.85.53Z"/>
      <path class="cls-2" d="m670.56,80.14c-.43.02-.77.21-.94.3-.34.19-.55.42-.66.81.02.44.21.78.43.98.06.3.41.55.84.53l30.57,3.17c.43-.02.73-.08.98-.44.3-.06.38-.32.36-.76-.02-.44-.04-.87-.13-1.04-.22-.21-.62-.32-1.01-.43l-30.44-3.13Z"/>
      <path class="cls-2" d="m673.6,72.99c.32.38.54.59.98.57l21.58.74c.43-.02.87-.04,1.11-.4.3-.06.42-.45.4-.89-.02-.43-.07-.74-.43-.98-.09-.17-.45-.42-.85-.53l-21.58-.74c-.43.02-.77.21-1.15.53-.17.09-.38.32-.36.76.02.43.21.78.3.95Z"/>
      <path class="cls-2" d="m644.4,103.33c-.4.89-.62,1.68-.89,2.61l27.23,8.37c.23-.79.59-1.55,1.12-2.4l-27.45-8.58Z"/>
      <path class="cls-2" d="m646.44,94.74c-.13.96-.36,1.76-.63,2.69l16.87,4.26c.4.11.7.06,1.17-.1.34-.19.55-.42.53-.85.08-.26.02-.57-.13-1.04-.09-.17-.45-.42-.81-.66l-17-4.3Z"/>
      <path class="cls-2" d="m642.14,110.71c-.19.66-.42,1.46-.81,2.35l27.36,9.42c.13-.97.23-1.8.59-2.55l-27.13-9.21Z"/>
      <path class="cls-2" d="m635.57,136.64l-4.49-2.72c-.49.72-.98,1.44-1.6,2.12l4.89,2.83c.23.21.49.28.79.23.43-.02.68-.38.92-.74.25-.36.19-.66.1-.83-.02-.44-.24-.64-.6-.89Z"/>
      <path class="cls-2" d="m635.42,126.7c-.36.76-.85,1.48-1.25,2.37l31.61,15.94c.36.25.79.23,1.09.17.47-.15.68-.38.79-.78.21-.23.15-.53,0-1-.02-.43-.24-.64-.6-.89l-31.65-15.81Z"/>
      <path class="cls-2" d="m655.96,126.14c-.15-.47-.37-.68-.64-.76l-16.26-6.38c-.36.76-.76,1.65-1.02,2.57l16.26,6.38c.4.11.7.06,1.17-.1.21-.23.41-.45.49-.72.25-.36.19-.66,0-1Z"/>
      <path class="cls-2" d="m658.83,128.53c.09.17.15.47.17.91.19.34.41.55.64.76l18.69,7.36c.43-.02.87-.04,1.2-.23.3-.06.51-.28.58-.55.24-.36.19-.66.04-1.14-.23-.21-.45-.42-.85-.53l-18.65-7.49c-.23-.21-.53-.15-1,0-.34.19-.58.55-.83.91Z"/>
      <path class="cls-2" d="m644.83,142.59c-.02-.43-.11-.61-.47-.85l-3.19-1.78c-.36-.25-.75-.36-1.09-.17-.17.09-.47.15-.72.51-.25.36-.23.79-.17,1.1.09.17.28.51.51.72l3.29,1.95c.36.25.66.19.83.09.43-.02.64-.25.89-.61.25-.36.23-.8.13-.97Z"/>
      <path class="cls-2" d="m670.86,147.18c.19.34.41.55.68.62l4.12,2.04c.36.25.79.23.96.13.47-.15.68-.38.89-.61.25-.36.19-.66.04-1.14-.09-.17-.45-.42-.81-.66l-3.98-2c-.23-.21-.53-.15-1,0-.3.06-.51.28-.59.55-.24.36-.32.62-.3,1.06Z"/>
      <path class="cls-2" d="m675.25,121.92c-.06.7-.32,1.63-.72,2.52l35.18,11.94c.4.11.7.06,1.04-.13.21-.23.41-.45.53-.85.21-.23.15-.53-.04-.87-.19-.34-.41-.55-.68-.62l-35.31-11.98Z"/>
      <path class="cls-2" d="m677.74,113.74c-.17,1.1-.53,1.85-.85,2.48l35.44,11.02c.36.25.79.23,1.17-.1.17-.09.38-.32.49-.72.25-.36.19-.66-.17-.91-.06-.3-.28-.51-.51-.72l-35.58-11.05Z"/>
      <path class="cls-2" d="m669.17,100.39c-.43.02-.73.08-.94.3-.34.19-.55.42-.62.68-.25.36-.19.66.13,1.04.15.47.37.68.68.62l19.37,4.98c.36.25.66.19,1.17-.1.3-.06.55-.42.53-.85.08-.27.02-.57-.17-.91-.06-.3-.41-.55-.81-.66l-19.33-5.11Z"/>
      <path class="cls-2" d="m693.43,107.2c-.21.23-.41.45-.62.68-.11.4-.1.83.26,1.08.19.34.41.55.71.49l24.67,6.35c.36.25.79.23,1.13.04.34-.19.55-.42.66-.81.08-.27.02-.57-.26-1.08-.06-.3-.28-.51-.68-.62l-24.81-6.39c-.43.02-.73.08-1.07.27Z"/>
      <path class="cls-2" d="m683.32,138.99c.19.34.41.55.77.79l23.76,9.53c.39.11.7.06,1.17-.1.21-.23.42-.46.49-.72.25-.36.23-.79,0-1-.15-.47-.37-.68-.64-.76l-23.93-9.44c-.23-.21-.53-.15-.87.04-.43.02-.68.38-.92.74.06.3.11.61.17.91Z"/>
      <path class="cls-2" d="m681.23,150.29c-.43.02-.68.38-.92.74-.17.09-.11.4-.1.83.19.34.41.55.77.79l5.71,2.93c.4.11.83.09,1.26.07.34-.19.55-.42.62-.68.25-.36.19-.66,0-1-.02-.44-.24-.64-.47-.85l-6.01-2.87c-.36-.25-.66-.19-.87.04Z"/>
      <path class="cls-2" d="m695.15,156.86c-.23-.21-.53-.15-1,0-.43.02-.64.25-.75.64-.25.36-.19.66-.13.96.19.34.41.55.64.76l4.47,2.28c.4-.89.76-1.65,1.25-2.37l-4.47-2.29Z"/>
      <path class="cls-2" d="m713.39,148.9c-.34.19-.55.42-.62.68-.11.4-.06.7,0,1,.15.47.37.68.64.76l14.95,6c.17-.1.21-.23.38-.32.62-.68,1.08-1.27,1.66-1.82l-16-6.3c-.23-.21-.53-.15-1,0Z"/>
      <path class="cls-2" d="m717.56,168.16c-.32.62-.68,1.38-1.34,2.2l3.33,1.81c.26.08.56.02,1,0,.34-.19.68-.38.89-.61.11-.4.1-.83-.09-1.17-.06-.3-.28-.51-.64-.76l-3.14-1.47Z"/>
      <path class="cls-2" d="m718.81,126.51c-.43.02-.73.08-1.03.13-.43.02-.68.38-.79.78.05.3.11.61.17.91.02.43.37.68.81.66l35.01,11.04.72-2.52-34.88-11Z"/>
      <path class="cls-2" d="m723.4,115.93c-.21.23-.15.53.13,1.04.19.34.41.55.71.49l16.57,4.32c-.21-.78-.24-1.65-.14-2.48-.09-.17-.06-.3-.02-.43l-15.68-3.92c-.43.02-.73.08-.9.17-.34.19-.55.42-.66.81Z"/>
      <path class="cls-2" d="m714.62,137.64c.09.17.32.38.68.62l34.78,11.83.76-2.65-34.69-11.66c-.36-.25-.79-.23-1.13-.04-.3.06-.55.42-.66.81.02.44.07.74.26,1.08Z"/>
      <path class="cls-2" d="m705.75,85.07c-.11.4-.06.7.17.91.32.38.58.45,1.02.43l13.41,1.41c.39.11.56.02.77-.21.34-.19.58-.55.57-.98.08-.26.02-.57-.3-.95-.09-.17-.36-.25-.75-.36l-13.55-1.44c-.43.02-.73.08-.9.17-.25.36-.45.59-.44,1.02Z"/>
      <path class="cls-2" d="m689.08,93.05c-.3.06-.6.11-.94.3-.21.23-.42.45-.4.89-.25.36-.19.66.17.91.19.34.41.55.71.49l4.46.85c.43-.02.86-.04,1.04-.13.38-.32.59-.55.7-.95-.06-.3-.11-.61-.43-.98-.06-.3-.41-.55-.85-.53l-4.46-.85Z"/>
      <path class="cls-2" d="m699.43,94.72c-.3.06-.6.11-.94.3-.21.23-.42.45-.36.76-.25.36-.23.8.13,1.04.19.34.41.55.71.49l6.51,1.15c.43-.02.73-.08.9-.17.51-.28.72-.51.66-.81.11-.4.06-.7-.26-1.08-.19-.34-.41-.55-.85-.53l-6.51-1.15Z"/>
      <path class="cls-2" d="m713.38,99.72l4.89.83c.13-.96.27-1.93.5-2.73l-4.93-.7c-.26-.08-.56-.02-1.03.13-.25.36-.45.59-.36.76.02.44.03.87.13,1.04.28.51.51.72.81.66Z"/>
      <path class="cls-2" d="m741.99,101.76l-3.54-.58c-.13.97-.23,1.8-.46,2.59l3.54.58c.4.11.7.06.94-.3.47-.15.68-.38.66-.81-.06-.3-.11-.6-.13-1.04-.36-.25-.58-.45-1.02-.43Z"/>
    </g>
  </g>
</svg>