<?xml version="1.0" encoding="UTF-8"?>
<svg id="_圖層_1" data-name="圖層 1" xmlns="http://www.w3.org/2000/svg" xmlns:xlink="http://www.w3.org/1999/xlink" viewBox="0 0 1024 259.81">
  <defs>
    <style>
      .cls-1 {
        fill: #ceb96e;
      }

      .cls-2 {
        fill: url(#_未命名漸層_403);
        stroke-width: 4px;
      }

      .cls-2, .cls-3 {
        stroke: #ceb96e;
        stroke-miterlimit: 10;
      }

      .cls-3 {
        fill: none;
        stroke-width: 3px;
      }
    </style>
    <linearGradient id="_未命名漸層_403" data-name="未命名漸層 403" x1="514.37" y1="-406.07" x2="514.37" y2="611.4" gradientUnits="userSpaceOnUse">
      <stop offset="0" stop-color="#eae6db"/>
      <stop offset=".14" stop-color="#eae6db"/>
      <stop offset="1" stop-color="#eae6db"/>
    </linearGradient>
  </defs>
  <path class="cls-1" d="m513.62-544.21C170.76-467.97,50.93-210.36,15.42-104,6.74-77.99,2.37-50.73,2.37-23.31v675.3h1024V-23.31c0-27.42-4.37-54.68-13.05-80.69-35.51-106.36-155.34-363.98-498.19-440.21-.5-.11-1.02-.11-1.52,0Z"/>
  <path class="cls-2" d="m36.51,617.86V-23.31c0-23.92,3.8-47.44,11.29-69.88,15.24-45.65,52.01-134.89,127.02-219.58,87.25-98.52,201.46-164.64,339.56-196.61,138.1,31.97,252.31,98.09,339.56,196.61,75.01,84.69,111.78,173.93,127.02,219.58,7.49,22.45,11.29,45.96,11.29,69.88v641.17H36.51Z"/>
  <path class="cls-3" d="m737.56-372.91c33.06,24.17,63.37,51.78,90.82,82.77,70.99,80.15,105.77,164.57,120.19,207.76,6.33,18.96,9.54,38.83,9.54,59.08v607.04H70.64V-23.31c0-20.24,3.21-40.12,9.54-59.08,14.42-43.19,49.2-127.6,120.19-207.76,26.72-30.17,56.14-57.13,88.18-80.83"/>
</svg>