<svg width="50" height="50" viewBox="0 0 50 50" fill="none" xmlns="http://www.w3.org/2000/svg">
<circle cx="25" cy="25" r="25" transform="rotate(180 25 25)" fill="#543118"/>
<path d="M33.3905 26.7922L20.6617 39.2034C20.4704 39.3923 20.2426 39.543 19.9912 39.6467C19.7398 39.7504 19.4698 39.8052 19.1966 39.8078C18.6447 39.8132 18.1133 39.6061 17.7191 39.2321C17.325 38.8581 17.1004 38.3478 17.0948 37.8135C17.0893 37.2792 17.3031 36.7646 17.6894 36.383L28.9692 25.4108L17.6151 14.4674C17.2212 14.0857 17 13.5681 17 13.0285C17 12.4889 17.2212 11.9713 17.6151 11.5895C17.8077 11.4026 18.0364 11.2544 18.2882 11.1532C18.5401 11.0521 18.81 11 19.0827 11C19.3553 11 19.6253 11.0521 19.8771 11.1532C20.1289 11.2544 20.3577 11.4026 20.5502 11.5895L33.3905 23.9287C33.5868 24.1165 33.742 24.3407 33.8467 24.588C33.9514 24.8353 34.0035 25.1004 33.9998 25.3677C34.001 25.6345 33.9478 25.899 33.8432 26.1459C33.7387 26.3928 33.5848 26.6174 33.3905 26.8066" fill="white"/>
</svg>
