<svg width="1130" height="281" viewBox="0 0 1130 281" fill="none" xmlns="http://www.w3.org/2000/svg">
<path d="M11.2695 200.908H1123.24L1025.43 242.99H109.08L11.2695 200.908Z" fill="#71541A"/>
<path d="M896.97 56.562H237.54C237.54 56.562 124.405 153.849 11.2695 200.908C24.7917 209.506 541.337 223.081 567.48 223.081C593.623 223.081 1109.72 209.506 1123.69 200.908C1010.56 153.849 897.42 56.562 897.42 56.562H896.97Z" fill="url(#paint0_linear_1425_1386)"/>
<path d="M896.97 56.562C896.97 56.562 956.918 108.147 1033.09 154.301C1086.28 185.523 1123.24 177.831 1123.24 177.831V200.908C1121.44 202.266 1109.72 203.171 1090.79 204.528C1010.11 170.591 880.293 56.562 880.293 56.562H896.519H896.97Z" fill="url(#paint1_linear_1425_1386)"/>
<path d="M896.969 56.562C896.969 56.562 915.9 72.8519 946.099 95.4767C972.693 115.839 1005.6 117.196 1005.6 117.196V136.654H980.806C926.718 96.8342 880.742 56.562 880.742 56.562H896.969Z" fill="url(#paint2_linear_1425_1386)"/>
<path d="M237.54 56.562C237.54 56.562 177.592 108.147 101.417 154.301C48.23 185.523 11.2695 177.831 11.2695 177.831V200.908C13.0725 202.266 24.7917 203.171 43.7227 204.528C124.405 171.044 253.767 56.562 253.767 56.562H237.54Z" fill="url(#paint3_linear_1425_1386)"/>
<path d="M237.542 56.562C237.542 56.562 218.611 72.8519 188.411 95.4767C161.818 115.839 128.914 117.196 128.914 117.196V136.654H153.705C207.793 96.8342 253.768 56.562 253.768 56.562H237.542Z" fill="url(#paint4_linear_1425_1386)"/>
<path d="M426.399 56.562H423.695L335.801 216.746C336.702 216.746 337.604 216.746 338.505 216.746L426.399 56.562Z" fill="#CEB96E"/>
<path d="M448.035 56.562H445.33L370.508 217.651C371.409 217.651 372.311 217.651 373.212 217.651L448.035 56.562Z" fill="#CEB96E"/>
<path d="M470.12 56.5619H467.415L405.664 218.555C406.566 218.555 407.467 218.555 408.368 218.555L470.12 56.1094V56.5619Z" fill="#CEB96E"/>
<path d="M557.565 56.562H554.86L547.648 222.628C548.55 222.628 549.451 222.628 550.353 222.628L557.565 56.562Z" fill="#CEB96E"/>
<path d="M535.477 56.562H532.773L512.039 221.723C512.941 221.723 513.842 221.723 514.743 221.723L535.477 56.562Z" fill="#CEB96E"/>
<path d="M513.841 56.562H511.137L476.43 220.818C477.331 220.818 478.233 220.818 479.134 220.818L513.841 56.562Z" fill="#CEB96E"/>
<path d="M491.754 56.562H489.049L440.82 219.913C441.722 219.913 442.623 219.913 443.525 219.913L491.754 56.562Z" fill="#CEB96E"/>
<path d="M97.3594 207.696C98.7116 207.696 99.6131 207.696 100.965 207.696L273.598 56.562H269.992L97.3594 207.696Z" fill="#CEB96E"/>
<path d="M295.232 56.562H291.626L130.262 209.053C131.614 209.053 132.515 209.053 133.868 209.053L295.232 56.562Z" fill="#CEB96E"/>
<path d="M316.868 56.562H313.262L163.617 210.863C164.519 210.863 165.871 210.863 166.772 210.863L316.868 56.562Z" fill="#CEB96E"/>
<path d="M338.956 56.5619H335.801L197.875 211.768C198.776 211.768 200.129 211.768 201.03 211.768L338.956 56.1094V56.5619Z" fill="#CEB96E"/>
<path d="M382.675 56.562H379.52L265.934 214.483C266.835 214.483 267.737 214.483 269.089 214.483L382.675 56.562Z" fill="#CEB96E"/>
<path d="M404.312 56.5619H401.157L300.191 215.388C301.093 215.388 301.994 215.388 302.896 215.388L403.861 56.1094L404.312 56.5619Z" fill="#CEB96E"/>
<path d="M360.591 56.562H357.436L231.68 213.126C232.581 213.126 233.933 213.126 234.835 213.126L360.591 56.562Z" fill="#CEB96E"/>
<path d="M667.091 56.562H664.387L726.138 219.008C727.039 219.008 727.941 219.008 728.842 219.008L667.091 57.0145V56.562Z" fill="#CEB96E"/>
<path d="M798.706 56.562H795.551L933.477 212.221C934.378 212.221 935.73 212.221 936.632 212.221L798.706 57.0145V56.562Z" fill="#CEB96E"/>
<path d="M820.793 56.562H817.188L967.283 210.863C968.185 210.863 969.537 210.863 970.438 210.863L820.793 56.562Z" fill="#CEB96E"/>
<path d="M777.073 56.562H773.918L899.674 213.126C900.575 213.126 901.928 213.126 902.829 213.126L777.073 56.562Z" fill="#CEB96E"/>
<path d="M842.879 56.562H839.273L1000.64 209.506C1001.99 209.506 1002.89 209.506 1004.24 209.506L842.879 57.0145V56.562Z" fill="#CEB96E"/>
<path d="M864.965 56.562H861.359L1033.99 207.696C1035.34 207.696 1036.25 207.696 1037.6 207.696L864.965 56.562Z" fill="#CEB96E"/>
<path d="M754.987 56.562H751.832L865.418 214.483C866.319 214.483 867.221 214.483 868.573 214.483L754.987 56.562Z" fill="#CEB96E"/>
<path d="M689.177 56.562H686.473L761.295 217.651C762.197 217.651 763.098 217.651 764 217.651L689.177 56.562Z" fill="#CEB96E"/>
<path d="M623.372 56.562H620.668L655.375 220.818C656.276 220.818 657.178 220.818 658.079 220.818L623.372 56.562Z" fill="#CEB96E"/>
<path d="M584.157 222.628C585.059 222.628 585.96 222.628 586.862 222.628L579.65 56.562H576.945L584.157 222.628Z" fill="#CEB96E"/>
<path d="M645.005 56.562H642.301L690.53 219.913C691.431 219.913 692.333 219.913 693.234 219.913L645.005 56.562Z" fill="#CEB96E"/>
<path d="M732.901 56.562H729.746L830.711 215.841C831.613 215.841 832.514 215.841 833.416 215.841L732.451 57.0145L732.901 56.562Z" fill="#CEB96E"/>
<path d="M601.283 56.562H598.578L619.312 221.723C620.214 221.723 621.115 221.723 622.016 221.723L601.283 56.562Z" fill="#CEB96E"/>
<path d="M711.263 56.562H708.559L796.452 216.746C797.354 216.746 798.255 216.746 799.157 216.746L711.263 56.562Z" fill="#CEB96E"/>
<path d="M871.73 38.0093H258.727V56.5616H871.73V38.0093Z" fill="#DFB460"/>
<path d="M220.863 56.5618C220.863 56.5618 204.186 35.2945 219.06 14.0272C223.568 7.69221 232.583 7.23971 237.541 13.1222C237.541 13.1222 231.23 33.4845 259.176 38.0094V56.5618H221.314H220.863Z" fill="#71541A"/>
<path d="M909.141 56.5618C909.141 56.5618 925.818 35.2945 910.944 14.0272C906.436 7.69221 897.422 7.23971 892.464 13.1222C892.464 13.1222 898.774 33.4845 870.828 38.0094V56.5618H908.69H909.141Z" fill="#71541A"/>
<path d="M394.395 255.208L382.225 267.878H365.998L353.828 255.208V238.918H394.395V255.208Z" fill="#71541A"/>
<path d="M265.483 255.208L253.764 267.878H237.537L225.367 255.208V238.918H265.483V255.208Z" fill="#71541A"/>
<path d="M152.801 255.208L140.631 267.878H124.404L112.234 255.208V238.918H152.801V255.208Z" fill="#71541A"/>
<path d="M522.858 255.208L510.688 267.878H494.461L482.742 255.208V238.918H522.858V255.208Z" fill="#71541A"/>
<path d="M651.315 255.208L639.596 267.878H623.369L611.199 255.208V238.918H651.315V255.208Z" fill="#71541A"/>
<path d="M780.227 255.208L768.057 267.878H751.83L739.66 255.208V238.918H780.227V255.208Z" fill="#71541A"/>
<path d="M908.688 255.208L896.518 267.878H880.291L868.121 255.208V238.918H908.688V255.208Z" fill="#71541A"/>
<path d="M1025.43 255.208L1013.26 267.878H997.032L985.312 255.208V238.918H1025.43V255.208Z" fill="#71541A"/>
<defs>
<linearGradient id="paint0_linear_1425_1386" x1="567.029" y1="64.2544" x2="567.029" y2="209.506" gradientUnits="userSpaceOnUse">
<stop stop-color="#FFD27A"/>
<stop offset="1" stop-color="#926C21"/>
</linearGradient>
<linearGradient id="paint1_linear_1425_1386" x1="880.744" y1="130.319" x2="1123.24" y2="130.319" gradientUnits="userSpaceOnUse">
<stop stop-color="#71541A"/>
<stop offset="1" stop-color="#B88F3E"/>
</linearGradient>
<linearGradient id="paint2_linear_1425_1386" x1="-4.86761e-05" y1="96.8342" x2="1005.15" y2="96.8342" gradientUnits="userSpaceOnUse">
<stop stop-color="#71541A"/>
<stop offset="1" stop-color="#B88F3E"/>
</linearGradient>
<linearGradient id="paint3_linear_1425_1386" x1="253.767" y1="7.80187e-06" x2="11.2695" y2="7.80187e-06" gradientUnits="userSpaceOnUse">
<stop stop-color="#71541A"/>
<stop offset="1" stop-color="#B88F3E"/>
</linearGradient>
<linearGradient id="paint4_linear_1425_1386" x1="253.768" y1="96.8342" x2="128.914" y2="96.8342" gradientUnits="userSpaceOnUse">
<stop stop-color="#CDA962"/>
<stop offset="1" stop-color="#B88F3E"/>
</linearGradient>
</defs>
</svg>
