<svg width="14" height="8" viewBox="0 0 14 8" fill="none" xmlns="http://www.w3.org/2000/svg">
<path d="M6.425 7.71318L0.471809 1.72315C0.381167 1.63314 0.308909 1.52593 0.25916 1.40763C0.209411 1.28933 0.183146 1.16226 0.181864 1.03368C0.179275 0.773989 0.278606 0.523895 0.458004 0.338413C0.637402 0.152931 0.882172 0.0472541 1.13847 0.044631C1.39476 0.0420079 1.64159 0.142653 1.82465 0.324425L7.08762 5.63258L12.3368 0.289457C12.5199 0.10411 12.7682 1.46895e-08 13.027 1.16028e-08C13.2858 8.51617e-09 13.5341 0.10411 13.7172 0.289457C13.8069 0.380079 13.878 0.487724 13.9265 0.606231C13.975 0.724737 14 0.851777 14 0.980076C14 1.10838 13.975 1.23542 13.9265 1.35392C13.878 1.47243 13.8069 1.58007 13.7172 1.6707L7.79855 7.71318C7.70846 7.80557 7.6009 7.87859 7.48229 7.92786C7.36369 7.97713 7.2365 8.00164 7.10833 7.99992C6.98032 8.00046 6.85346 7.97542 6.73502 7.92621C6.61658 7.87701 6.50888 7.80462 6.4181 7.71318" fill="#9B9B9B"/>
</svg>
