<?xml version="1.0" encoding="UTF-8"?>
<svg id="_圖層_1" data-name="圖層 1" xmlns="http://www.w3.org/2000/svg" viewBox="0 0 256 256">
  <defs>
    <style>
      .cls-1 {
        fill: #920000;
      }
    </style>
  </defs>
  <path class="cls-1" d="m128,2.8C59,2.8,2.8,59,2.8,128s56.2,125.2,125.2,125.2,125.2-56.2,125.2-125.2S197,2.8,128,2.8Zm-16.3,181.8c3.2,0,5.7,2.5,5.7,5.7s-2.5,5.7-5.7,5.7h-46.1c-.7,0-1.4-.2-2.1-.4,0,0-.1-.1-.2-.1-.6-.3-1.2-.6-1.6-1.1,0,0,0,0-.1,0-.1,0-.1-.2-.2-.2-.4-.4-.7-.9-1-1.4,0-.2-.1-.3-.2-.5,0-.3-.2-.5-.3-.7,0-.4-.1-.7-.1-1.2v-46.1c0-3.2,2.6-5.7,5.7-5.7s5.7,2.5,5.7,5.7v32.4l36.5-36.5c2.2-2.2,5.8-2.2,8,0,2.2,2.2,2.2,5.8,0,8.1l-36.4,36.4h32.3Zm78.6-67c-3.2,0-5.7-2.6-5.7-5.7v-32.4l-36.5,36.5c-1.1,1.1-2.6,1.7-4,1.7s-2.9-.6-4-1.7c-2.2-2.2-2.2-5.8,0-8.1l36.5-36.5h-32.3c-3.2,0-5.7-2.5-5.7-5.7s2.5-5.7,5.7-5.7h46.1c.7,0,1.3.2,2,.4.1,0,.2.1.3.2.3.1.6.2.9.4.2.2.5.5.7.7.5.5.9,1.2,1.2,1.8q0,0,0,.1c.2.6.4,1.3.4,2.1v46.2c.1,3.2-2.4,5.7-5.6,5.7Z"/>
</svg>