<?xml version="1.0" encoding="UTF-8"?>
<svg id="_圖層_1" data-name="圖層 1" xmlns="http://www.w3.org/2000/svg" viewBox="0 0 120 120">
  <defs>
    <style>
      .cls-1 {
        fill: #3a3a3a;
      }
    </style>
  </defs>
  <path class="cls-1" d="m4.8,32.8h63.4c1.6,5.9,7,10.3,13.4,10.3s11.8-4.4,13.4-10.3h20.1c1.9,0,3.5-1.6,3.5-3.5s-1.6-3.5-3.5-3.5h-20.1c-1.6-5.9-7-10.3-13.4-10.3s-11.8,4.4-13.4,10.3H4.8c-1.9,0-3.5,1.6-3.5,3.5s1.6,3.5,3.5,3.5Zm76.8-10.3c2.5,0,4.7,1.3,5.9,3.3.6,1,1,2.2,1,3.5s-.4,2.5-1,3.5c-1.2,2-3.4,3.3-5.9,3.3s-4.7-1.3-5.9-3.3c-.6-1-1-2.2-1-3.5s.4-2.5,1-3.5c1.2-2,3.4-3.3,5.9-3.3Z"/>
  <path class="cls-1" d="m115.2,56.5H46.9c-1.6-5.9-7-10.3-13.4-10.3s-11.8,4.4-13.4,10.3H4.8c-1.9,0-3.5,1.6-3.5,3.5s1.6,3.5,3.5,3.5h15.3c1.6,5.9,7,10.3,13.4,10.3s11.8-4.4,13.4-10.3h68.2c1.9,0,3.5-1.6,3.5-3.5s-1.6-3.5-3.5-3.5Zm-81.6,10.3c-2.5,0-4.7-1.3-5.9-3.3-.6-1-1-2.2-1-3.5s.4-2.5,1-3.5c1.2-2,3.4-3.3,5.9-3.3s4.7,1.3,5.9,3.3c.6,1,1,2.2,1,3.5s-.4,2.5-1,3.5c-1.2,2-3.4,3.3-5.9,3.3Z"/>
  <path class="cls-1" d="m115.2,87.2h-20.1c-1.6-5.9-7-10.3-13.4-10.3s-11.8,4.4-13.4,10.3H4.8c-1.9,0-3.5,1.6-3.5,3.5s1.6,3.5,3.5,3.5h63.4c1.6,5.9,7,10.3,13.4,10.3s11.8-4.4,13.4-10.3h20.1c1.9,0,3.5-1.6,3.5-3.5s-1.6-3.5-3.5-3.5Zm-33.5,10.3c-2.5,0-4.7-1.3-5.9-3.3-.6-1-1-2.2-1-3.5s.4-2.5,1-3.5c1.2-2,3.4-3.3,5.9-3.3s4.7,1.3,5.9,3.3c.6,1,1,2.2,1,3.5s-.4,2.5-1,3.5c-1.2,2-3.4,3.3-5.9,3.3Z"/>
</svg>