<svg width="23" height="39" viewBox="0 0 23 39" fill="none" xmlns="http://www.w3.org/2000/svg">
<path d="M0.82015 17.6206L17.9502 0.818473C18.2075 0.562649 18.5141 0.358708 18.8525 0.218299C19.1908 0.0778899 19.5541 0.00375996 19.9219 0.00014203C20.6645 -0.00716471 21.3797 0.273183 21.9101 0.77951C22.4406 1.28584 22.7428 1.97667 22.7503 2.70003C22.7578 3.42339 22.47 4.12003 21.9502 4.63669L6.77015 19.4907L22.0502 34.3058C22.5802 34.8226 22.8779 35.5233 22.8779 36.2539C22.8779 36.9844 22.5802 37.6851 22.0502 38.2019C21.791 38.4549 21.4832 38.6556 21.1443 38.7926C20.8054 38.9295 20.4421 39 20.0752 39C19.7082 39 19.3449 38.9295 19.006 38.7926C18.6671 38.6556 18.3593 38.4549 18.1002 38.2019L0.820151 21.4972C0.555929 21.243 0.347114 20.9394 0.206213 20.6046C0.0653126 20.2699 -0.00477445 19.9109 0.000150842 19.5492C-0.00141577 19.1879 0.0702078 18.8298 0.210917 18.4956C0.351625 18.1613 0.558655 17.8573 0.82015 17.6011" fill="white"/>
</svg>
