<svg width="23" height="39" viewBox="0 0 23 39" fill="none" xmlns="http://www.w3.org/2000/svg">
<path d="M22.0578 21.3794L4.92778 38.1815C4.67038 38.4374 4.36378 38.6413 4.02548 38.7817C3.68717 38.9221 3.32378 38.9962 2.95606 38.9999C2.21342 39.0072 1.49821 38.7268 0.967776 38.2205C0.437343 37.7142 0.135135 37.0233 0.127633 36.3C0.120132 35.5766 0.407951 34.88 0.927775 34.3633L16.1078 19.5093L0.827776 4.69421C0.297728 4.17735 0 3.47669 0 2.74614C0 2.0156 0.297728 1.31493 0.827776 0.798072C1.08693 0.545089 1.39477 0.34438 1.73367 0.207435C2.07257 0.0704902 2.43587 0 2.80278 0C3.16968 0 3.53298 0.0704902 3.87188 0.207435C4.21078 0.34438 4.51862 0.545089 4.77778 0.798072L22.0578 17.5028C22.322 17.757 22.5308 18.0606 22.6717 18.3954C22.8126 18.7301 22.8827 19.0891 22.8778 19.4508C22.8793 19.8121 22.8077 20.1702 22.667 20.5044C22.5263 20.8387 22.3193 21.1427 22.0578 21.3989" fill="white"/>
</svg>
