<svg width="14" height="8" viewBox="0 0 14 8" fill="none" xmlns="http://www.w3.org/2000/svg">
<path d="M7.575 0.286822L13.5282 6.27685C13.6188 6.36686 13.6911 6.47407 13.7408 6.59237C13.7906 6.71067 13.8169 6.83774 13.8181 6.96632C13.8207 7.22601 13.7214 7.4761 13.542 7.66159C13.3626 7.84707 13.1178 7.95275 12.8615 7.95537C12.6052 7.95799 12.3584 7.85735 12.1753 7.67557L6.91238 2.36742L1.66322 7.71054C1.48009 7.89589 1.23183 8 0.972992 8C0.714152 8 0.465896 7.89589 0.282767 7.71054C0.193132 7.61992 0.122018 7.51228 0.0734967 7.39377C0.0249755 7.27526 -3.72323e-08 7.14822 -4.28405e-08 7.01992C-4.84486e-08 6.89162 0.0249755 6.76458 0.0734967 6.64608C0.122018 6.52757 0.193132 6.41993 0.282767 6.3293L6.20145 0.286822C6.29154 0.194429 6.3991 0.12141 6.51771 0.0721401C6.63631 0.0228699 6.7635 -0.00163802 6.89167 8.42658e-05C7.01968 -0.000463541 7.14654 0.0245818 7.26498 0.073785C7.38342 0.122988 7.49111 0.195382 7.5819 0.286822" fill="#9B9B9B"/>
</svg>
