<svg width="33" height="32" viewBox="0 0 33 32" fill="none" xmlns="http://www.w3.org/2000/svg">
<g clip-path="url(#clip0_253_2679)">
<path d="M10.2559 24C8.78253 24 7.60253 25.1933 7.60253 26.6667C7.60253 28.14 8.78253 29.3333 10.2559 29.3333C11.7292 29.3333 12.9225 28.14 12.9225 26.6667C12.9225 25.1933 11.7292 24 10.2559 24ZM2.25586 2.66667V5.33334H4.92253L9.71586 15.4467L7.91586 18.7133C7.70919 19.1 7.58919 19.5333 7.58919 20C7.58919 21.4733 8.78253 22.6667 10.2559 22.6667H26.2559V20H10.8225C10.6359 20 10.4892 19.8533 10.4892 19.6667C10.4892 19.6067 10.5025 19.5533 10.5292 19.5067L11.7225 17.3333H21.6559C22.6559 17.3333 23.5292 16.78 23.9892 15.96L28.7559 7.30667C28.8625 7.12 28.9225 6.9 28.9225 6.66667C28.9225 6.31305 28.782 5.97391 28.532 5.72386C28.282 5.47381 27.9428 5.33334 27.5892 5.33334H7.87586L6.60919 2.66667H2.25586ZM23.5892 24C22.1159 24 20.9359 25.1933 20.9359 26.6667C20.9359 28.14 22.1159 29.3333 23.5892 29.3333C25.0625 29.3333 26.2559 28.14 26.2559 26.6667C26.2559 25.1933 25.0625 24 23.5892 24Z" fill="#CEB96E"/>
</g>
<defs>
<clipPath id="clip0_253_2679">
<rect width="32" height="32" fill="white" transform="translate(0.921875)"/>
</clipPath>
</defs>
</svg>
