<svg width="294" height="41" viewBox="0 0 294 41" fill="none" xmlns="http://www.w3.org/2000/svg">
<path d="M82.5808 37.542H81.9872V24.03C80.6081 25.458 79.0731 26.712 77.5081 27.756L77.1963 27.444C80.644 23.616 83.5881 18.078 84.8713 13.476H77.7899L77.5081 12.468H84.7154L86.6881 10.38L89.6981 13.62V10.59L93.3318 12.228H95.994V4.91399L100.599 5.43599C100.539 5.92199 100.287 6.26999 99.4418 6.40799V12.222H102.008L103.639 10.236L107.021 13.128C106.799 13.404 106.361 13.686 105.738 13.824V27.582C105.708 27.894 104.077 28.734 102.89 28.734H102.326V26.364H99.4418V36.324C99.4418 36.774 97.9668 37.716 96.6836 37.716H95.994V26.364H93.1099V27.756C93.1099 28.14 91.6709 29.01 90.2258 29.01H89.6921V13.998C89.4703 14.208 89.1285 14.244 88.5349 14.31C87.7854 16.122 86.7181 18.036 85.4349 19.848V20.196C91.9527 22.32 89.3204 27.408 86.874 25.248C86.6881 23.994 86.0885 22.566 85.4349 21.414V36.354C85.4349 36.6 84.3077 37.536 82.5868 37.536L82.5808 37.542ZM82.4249 10.17C82.269 8.35799 81.4235 6.44399 80.6381 5.11799L80.8899 4.94399C89.0326 6.58199 85.4289 12.99 82.4249 10.17ZM93.1099 13.2V18.564H95.994V13.2H93.1099ZM95.994 25.392V19.578H93.1099V25.392H95.994ZM99.4418 13.2V18.564H102.326V13.2H99.4418ZM102.326 19.572H99.4418V25.386H102.326V19.572Z" fill="#542C00"/>
<path d="M134.609 23.616C133.638 22.5 132.822 21.18 132.199 19.68H129.441C128.469 21.21 127.216 22.536 125.741 23.718L128.217 23.964C128.151 24.414 127.936 24.768 127.186 24.87V27.726C127.126 31.728 125.429 35.874 116.159 37.722L115.973 37.338C122.455 34.902 123.588 31.206 123.588 27.654V25.146C121.238 26.574 118.42 27.618 115.224 28.386L115.002 27.9C119.421 26.052 122.863 23.13 124.872 19.68H122.803V20.238C122.803 20.658 121.238 21.558 119.733 21.558H119.169V5.43599L123.055 7.13999H136.558L138.249 5.05199L141.822 8.04599C141.637 8.32199 141.193 8.66999 140.569 8.81399V20.13C140.539 20.406 138.693 21.138 137.499 21.138H136.876V19.674H132.99C135.527 22.458 140.287 23.886 144.485 24.444L144.455 24.828C143.106 25.278 142.2 26.604 141.852 28.554C139.658 27.648 137.685 26.532 136.024 25.038V36.564C136.024 36.876 134.333 37.644 133.11 37.644H132.391V23.4L134.615 23.61L134.609 23.616ZM127.906 8.11799H122.797V12.786H127.906V8.11799ZM122.797 13.794V18.672H127.906V13.794H122.797ZM136.864 12.786V8.11799H131.473V12.786H136.864ZM131.473 18.672H136.864V13.794H131.473V18.672Z" fill="#542C00"/>
<path d="M157.819 37.542H157.19V24.27C155.715 25.662 154.12 26.916 152.489 27.924L152.207 27.612C155.907 23.85 159.192 18.174 160.632 13.47H153.208L152.927 12.462H160.506L162.544 10.338L165.8 13.89C165.518 14.166 165.171 14.274 164.391 14.34C163.516 16.326 162.232 18.378 160.727 20.328V20.43C168.277 21.822 165.428 27.744 162.544 25.446C162.292 24.09 161.513 22.554 160.727 21.408V36.276C160.727 36.552 159.57 37.53 157.813 37.53L157.819 37.542ZM158.131 10.584C157.879 8.63399 156.818 6.50999 155.877 5.14799L156.128 4.93799C164.649 6.46799 161.327 13.26 158.131 10.578V10.584ZM182.439 18.144C182.343 18.528 182.032 18.702 181.564 18.702H177.744V36.708C177.744 36.918 176.647 37.68 174.8 37.68H174.141V18.702H169.913V18.876C169.913 25.182 169.38 32.844 162.364 37.65L161.987 37.266C165.932 31.974 166.406 25.248 166.406 18.774V7.55999L170.543 9.08999C173.145 7.79999 175.838 6.16199 177.343 4.94399L181.324 8.91599C180.946 9.29999 180.257 9.33599 179.225 8.98799C176.875 9.58199 173.337 10.206 169.919 10.518V17.73H177.031L178.974 14.802C178.974 14.802 181.168 16.788 182.451 18.144H182.439Z" fill="#542C00"/>
<path d="M195.002 37.542H194.408V23.958C193.029 25.248 191.56 26.43 190.025 27.372L189.743 27.06C193.251 23.406 196.291 18.006 197.604 13.476H190.745L190.463 12.468H197.514L199.487 10.38L202.713 13.83C202.431 14.178 202.053 14.25 201.304 14.316C200.458 16.23 199.301 18.216 197.856 20.1C204.182 22.92 201.555 27.972 199.235 25.71C199.079 24.282 198.485 22.716 197.856 21.36V36.3C197.856 36.612 196.729 37.554 195.008 37.554L195.002 37.542ZM195.224 10.344C195.068 8.53198 194.192 6.50998 193.377 5.15398L193.629 4.97998C201.837 6.71998 198.264 13.2 195.23 10.344H195.224ZM219.628 8.25598C219.532 8.63998 219.19 8.81398 218.752 8.81398H201.927L201.675 7.83598H214.237L216.15 5.08198C216.15 5.08198 218.309 6.95998 219.628 8.24998V8.25598ZM202.617 37.614H202.113V20.79L205.621 22.356H214.519L216.18 20.37L219.592 23.298C219.406 23.574 218.932 23.856 218.309 23.994V36.39C218.279 36.6 216.552 37.362 215.424 37.362H214.861V35.202H205.429V36.384C205.429 36.768 204.02 37.602 202.611 37.602L202.617 37.614ZM204.122 20.478H203.654V10.518L207.132 12.048H213.212L214.843 10.062L218.321 12.954C218.135 13.236 217.661 13.548 217.037 13.686V19.122C217.007 19.332 215.221 19.992 214.123 19.992H213.53V18.738H207.012V19.368C207.012 19.68 205.507 20.484 204.128 20.484L204.122 20.478ZM205.435 23.37V28.104H208.727V23.37H205.435ZM208.727 34.236V29.118H205.435V34.236H208.727ZM207.006 13.026V17.73H213.524V13.026H207.006ZM211.707 28.104H214.873V23.37H211.707V28.104ZM214.873 34.236V29.118H211.707V34.236H214.873Z" fill="#542C00"/>
<path d="M249.788 7.90798L251.982 4.94998C251.982 4.94998 254.459 6.93598 255.994 8.32798C255.898 8.71198 255.556 8.88598 255.118 8.88598H244.313V23.442H251.077L253.301 20.412C253.301 20.412 255.778 22.47 257.277 23.892C257.217 24.276 256.839 24.45 256.371 24.45H244.313V36.468C244.313 36.744 243.156 37.65 241.213 37.65H240.524V24.45H228.118L227.836 23.442H240.524V8.88598H229.497L229.245 7.90798H249.794H249.788ZM234.096 20.238C234.03 17.136 232.939 13.656 231.811 10.974L232.153 10.836C241.267 15.744 237.574 23.928 234.096 20.238ZM254.489 12.714C254.363 13.098 253.925 13.41 253.235 13.338C251.323 16.578 249.008 19.572 246.688 21.624L246.31 21.378C247.377 18.768 248.69 14.484 249.602 10.686L254.489 12.708V12.714Z" fill="#542C00"/>
<path d="M290.477 20.514C290.1 19.296 289.476 18.042 288.72 16.788C284.145 17.796 277.472 19.086 269.329 20.376C269.017 20.76 268.705 21 268.358 21.108L267.104 16.374C267.104 16.374 267.95 16.2 268.388 15.924C271.554 14.076 276.189 8.18999 277.694 4.88399L282.802 7.14599C282.646 7.49399 282.239 7.80599 281.549 7.73999C279.169 10.56 274.594 14.112 270.618 16.41C274.785 16.338 281.333 16.134 288.163 15.888C286.814 13.836 285.189 11.886 283.684 10.422L283.966 10.146C296.653 13.806 294.495 23.238 290.483 20.526L290.477 20.514ZM270.9 37.542H270.336V21.486L274.438 23.298H285.806L287.653 21L291.473 24.306C291.251 24.582 290.813 24.936 290.064 25.11V36.324C289.998 36.534 288.091 37.302 286.808 37.302H286.184V34.41H274.216V36.15C274.216 36.6 272.495 37.542 270.894 37.542H270.9ZM286.19 24.27H274.222V33.396H286.19V24.27Z" fill="#542C00"/>
<path d="M56.1797 24.168H63.3211L66.7688 18.126L53.7753 19.854H20.2031L8.28291 18.126L10.0098 24.168H17.1511C15.3223 27.882 12.6361 32.346 3.45605 32.67L0.158203 40.434C13.1278 39.978 20.2271 28.14 21.8401 24.168H51.4908C53.1037 28.14 60.2031 39.978 73.1726 40.434L69.8748 32.67C60.6948 32.346 58.0145 27.876 56.1797 24.168Z" fill="#CEB96E"/>
<path d="M60.683 16.596C52.7022 16.314 47.7614 9.62399 46.1364 5.88599H27.1828C26.4153 7.54199 21.9482 16.266 12.6483 16.596L11.9707 16.62L14.513 10.632L14.7889 10.62C19.9755 10.434 21.8463 8.25599 23.1114 5.88599H18.7883L17.3792 0.953993L25.8876 2.18399H47.9293L57.2892 0.929993L54.465 5.87999H50.2198C51.485 8.24999 53.3617 10.434 58.5424 10.614L58.8182 10.626L61.3605 16.614L60.683 16.59V16.596Z" fill="#CEB96E"/>
<path d="M49.5127 5.46H54.2136L56.4861 1.48199L47.9357 2.616H25.8341L17.9852 1.48199L19.1185 5.46H23.8194C22.6142 7.902 20.8514 10.842 14.8073 11.058L12.6367 16.17C21.1752 15.87 25.8461 8.07599 26.9074 5.46H46.4247C47.486 8.07599 52.163 15.864 60.6954 16.17L58.5248 11.058C52.4808 10.842 50.7179 7.902 49.5127 5.46Z" fill="#CEB96E"/>
</svg>
