<svg width="74" height="46" viewBox="0 0 74 46" fill="none" xmlns="http://www.w3.org/2000/svg">
<path d="M56.0215 26.8386H63.1628L66.6106 19.8839L53.6171 21.873H20.0449L8.12471 19.8839L9.85158 26.8386H16.9929C15.1641 31.1137 12.4779 36.252 3.29785 36.6249L0 45.5618C12.9696 45.0369 20.0689 31.4106 21.6819 26.8386H51.3326C52.9455 31.4106 60.0449 45.0369 73.0144 45.5618L69.7166 36.6249C60.5366 36.252 57.8563 31.1068 56.0215 26.8386Z" fill="#CEB96E"/>
<path d="M60.5248 18.1228C52.544 17.7982 47.6032 10.0976 45.9782 5.79497H27.0246C26.2571 7.70112 21.79 17.743 12.4901 18.1228L11.8125 18.1504L14.3548 11.2579L14.6307 11.2441C19.8173 11.03 21.6881 8.52298 22.9532 5.79497H18.6301L17.221 0.117943L25.7294 1.53375H47.7711L57.131 0.0903168L54.3068 5.78806H50.0616C51.3268 8.51607 53.2035 11.03 58.3842 11.2372L58.66 11.251L61.2023 18.1435L60.5248 18.1159V18.1228Z" fill="#CEB96E"/>
<path d="M49.3545 5.30462H54.0554L56.3279 0.725708L47.7775 2.03101H25.6759L17.827 0.725708L18.9603 5.30462H23.6612C22.456 8.11551 20.6932 11.4996 14.6491 11.7483L12.4785 17.6325C21.017 17.2871 25.6879 8.31579 26.7492 5.30462H46.2665C47.3278 8.31579 52.0048 17.2802 60.5372 17.6325L58.3666 11.7483C52.3226 11.4996 50.5597 8.11551 49.3545 5.30462Z" fill="#CEB96E"/>
</svg>
