<svg width="231" height="39" viewBox="0 0 231 39" fill="none" xmlns="http://www.w3.org/2000/svg">
<path d="M5.78393 38.2327H5.15038V22.6796C3.67847 24.3233 2.04018 25.7667 0.36989 26.9684L0.0371094 26.6093C3.71687 22.203 6.85906 15.8285 8.22857 10.5313H0.670671L0.36989 9.37102H8.06218L10.1676 6.96761L13.3802 10.697V7.20933L17.2584 9.09477H20.0998V0.675919L25.0147 1.27677C24.9507 1.83619 24.6819 2.23675 23.7796 2.3956V9.08786H26.5186L28.2593 6.80186L31.8686 10.1307C31.6318 10.4484 31.1647 10.773 30.4991 10.9319V26.7681C30.4671 27.1273 28.7264 28.0941 27.4593 28.0941H26.8578V25.3661H23.7796V36.8307C23.7796 37.3487 22.2053 38.433 20.8357 38.433H20.0998V25.3661H17.0216V26.9684C17.0216 27.4104 15.4857 28.4118 13.9434 28.4118H13.3738V11.1321C13.137 11.3739 12.7723 11.4153 12.1387 11.4913C11.3388 13.577 10.1996 15.7801 8.83014 17.8658V18.2664C15.7865 20.7113 12.9771 26.5678 10.366 24.0816C10.1676 22.6381 9.52769 20.9944 8.83014 19.6684V36.8652C8.83014 37.1484 7.62702 38.2258 5.79034 38.2258L5.78393 38.2327ZM5.61754 6.72589C5.45116 4.64017 4.54882 2.43704 3.71047 0.910735L3.97925 0.71045C12.6699 2.59588 8.82373 9.97187 5.61754 6.72589ZM17.0216 10.2136V16.3879H20.0998V10.2136H17.0216ZM20.0998 24.2473V17.5551H17.0216V24.2473H20.0998ZM23.7796 10.2136V16.3879H26.8578V10.2136H23.7796ZM26.8578 17.5481H23.7796V24.2404H26.8578V17.5481Z" fill="white"/>
<path d="M61.3114 22.2031C60.2747 20.9185 59.4043 19.3991 58.7388 17.6725H55.795C54.7582 19.4336 53.4207 20.9599 51.8464 22.3205L54.4894 22.6036C54.419 23.1216 54.1887 23.5291 53.3887 23.6465V26.9339C53.3247 31.5405 51.5136 36.3128 41.6199 38.4399L41.4215 37.9979C48.3394 35.1939 49.549 30.9396 49.549 26.851V23.9642C47.0403 25.6079 44.0325 26.8096 40.6215 27.6936L40.3848 27.1342C45.1013 25.0071 48.7746 21.6437 50.9185 17.6725H48.7106V18.3148C48.7106 18.7982 47.0403 19.8342 45.434 19.8342H44.8325V1.27681L48.9794 3.23822H63.3913L65.1959 0.834808L69.0101 4.28108C68.8117 4.59877 68.3381 4.99934 67.6726 5.16509V18.1905C67.6406 18.5082 65.6695 19.3507 64.396 19.3507H63.7304V17.6656H59.5835C62.2905 20.8701 67.3718 22.5139 71.8515 23.1561L71.8195 23.5982C70.3796 24.1161 69.4133 25.6424 69.0421 27.887C66.6998 26.8441 64.5944 25.5596 62.8217 23.8399V37.107C62.8217 37.4661 61.017 38.3501 59.7115 38.3501H58.9435V21.9544L61.3178 22.1962L61.3114 22.2031ZM54.1567 4.36396H48.7042V9.7371H54.1567V4.36396ZM48.7042 10.8974V16.5122H54.1567V10.8974H48.7042ZM63.7176 9.7371V4.36396H57.9644V9.7371H63.7176ZM57.9644 16.5122H63.7176V10.8974H57.9644V16.5122Z" fill="white"/>
<path d="M86.0857 38.2329H85.4138V22.956C83.8395 24.5583 82.1372 26.0017 80.3965 27.162L80.0957 26.8028C84.0442 22.4726 87.5512 15.9391 89.0871 10.5246H81.1644L80.8636 9.36429H88.9527L91.1286 6.91944L94.6035 11.008C94.3028 11.3257 93.9316 11.45 93.0997 11.526C92.1653 13.812 90.7958 16.174 89.1895 18.4185V18.5359C97.2466 20.1382 94.2068 26.9548 91.1286 24.3096C90.8598 22.7488 90.0278 20.9808 89.1895 19.6617V36.7756C89.1895 37.0933 87.9544 38.2191 86.0793 38.2191L86.0857 38.2329ZM86.4185 7.2026C86.1497 4.95804 85.017 2.51319 84.0122 0.945443L84.281 0.70372C93.3748 2.46484 89.8295 10.2828 86.4185 7.1957V7.2026ZM112.362 15.9046C112.26 16.3466 111.927 16.5469 111.428 16.5469H107.352V37.2729C107.352 37.5146 106.18 38.3917 104.209 38.3917H103.505V16.5469H98.9937V16.7472C98.9937 24.0058 98.4241 32.8252 90.9366 38.3572L90.5334 37.9152C94.7443 31.8238 95.2499 24.0817 95.2499 16.6298V3.7218L99.6656 5.48292C102.443 3.99805 105.316 2.11262 106.923 0.710627L111.172 5.28264C110.769 5.72464 110.033 5.76608 108.932 5.36551C106.424 6.04924 102.648 6.7675 99.0001 7.12663V15.4281H106.59L108.663 12.0578C108.663 12.0578 111.006 14.3438 112.375 15.9046H112.362Z" fill="white"/>
<path d="M125.771 38.2328H125.137V22.5968C123.665 24.0817 122.097 25.4422 120.459 26.5265L120.158 26.1674C123.902 21.9614 127.147 15.7457 128.548 10.5314H121.227L120.926 9.37115H128.452L130.558 6.96773L134 10.9389C133.7 11.3395 133.297 11.4223 132.497 11.4983C131.594 13.7014 130.359 15.9874 128.817 18.156C135.568 21.402 132.765 27.2172 130.289 24.6135C130.122 22.9698 129.489 21.1672 128.817 19.6064V36.8032C128.817 37.1623 127.614 38.2466 125.777 38.2466L125.771 38.2328ZM126.007 6.9263C125.841 4.84058 124.907 2.51314 124.036 0.952299L124.305 0.752014C133.066 2.75486 129.252 10.2137 126.014 6.9263H126.007ZM152.054 4.52289C151.951 4.96489 151.587 5.16518 151.119 5.16518H133.162L132.893 4.03944H146.3L148.342 0.869422C148.342 0.869422 150.646 3.03111 152.054 4.51598V4.52289ZM133.898 38.3157H133.361V18.9503L137.104 20.7528H146.601L148.374 18.4668L152.015 21.8371C151.817 22.1548 151.311 22.4794 150.646 22.6383V36.9068C150.614 37.1485 148.771 38.0256 147.568 38.0256H146.966V35.5393H136.899V36.8999C136.899 37.3419 135.396 38.3019 133.892 38.3019L133.898 38.3157ZM135.504 18.5911H135.005V7.12658L138.717 8.8877H145.206L146.947 6.6017L150.659 9.93056C150.46 10.2552 149.955 10.6143 149.289 10.7731V17.0303C149.257 17.272 147.35 18.0317 146.179 18.0317H145.545V16.5883H138.589V17.3135C138.589 17.6726 136.983 18.598 135.511 18.598L135.504 18.5911ZM136.906 21.92V27.3691H140.419V21.92H136.906ZM140.419 34.4274V28.5363H136.906V34.4274H140.419ZM138.583 10.0134V15.428H145.539V10.0134H138.583ZM143.6 27.3691H146.979V21.92H143.6V27.3691ZM146.979 34.4274V28.5363H143.6V34.4274H146.979Z" fill="white"/>
<path d="M184.243 4.12235L186.586 0.717514C186.586 0.717514 189.229 3.00352 190.867 4.60579C190.764 5.0478 190.4 5.24808 189.933 5.24808H178.4V22.0029H185.619L187.993 18.5152C187.993 18.5152 190.636 20.8841 192.236 22.5209C192.172 22.9629 191.769 23.1632 191.27 23.1632H178.4V36.9966C178.4 37.3143 177.165 38.3572 175.092 38.3572H174.356V23.1632H161.115L160.814 22.0029H174.356V5.24808H162.587L162.318 4.12235H184.25H184.243ZM167.496 18.3149C167.425 14.7443 166.26 10.7386 165.057 7.6515L165.422 7.49265C175.15 13.142 171.207 22.5623 167.496 18.3149ZM189.261 9.65434C189.126 10.0963 188.659 10.4555 187.923 10.3726C185.882 14.102 183.411 17.5483 180.935 19.9103L180.532 19.6271C181.671 16.6229 183.072 11.6917 184.045 7.31999L189.261 9.64743V9.65434Z" fill="white"/>
<path d="M227.67 18.6327C227.267 17.2307 226.601 15.7873 225.795 14.3438C220.912 15.5041 213.789 16.989 205.099 18.4738C204.766 18.9158 204.433 19.1921 204.062 19.3164L202.725 13.8673C202.725 13.8673 203.627 13.667 204.094 13.3493C207.473 11.2222 212.42 4.44702 214.026 0.641617L219.479 3.24531C219.312 3.64588 218.877 4.00501 218.141 3.92904C215.601 7.17503 210.718 11.2636 206.475 13.9087C210.922 13.8258 217.911 13.591 225.2 13.3079C223.76 10.9459 222.026 8.70133 220.419 7.01618L220.72 6.69849C234.262 10.9114 231.958 21.7682 227.677 18.6465L227.67 18.6327ZM206.776 38.2329H206.174V19.7515L210.551 21.8372H222.685L224.656 19.1921L228.732 22.9975C228.496 23.3152 228.029 23.7227 227.229 23.9229V36.8309C227.158 37.0726 225.123 37.9567 223.754 37.9567H223.088V34.6278H210.315V36.6306C210.315 37.1486 208.478 38.2329 206.769 38.2329H206.776ZM223.094 22.9561H210.321V33.4606H223.094V22.9561Z" fill="white"/>
</svg>
