<svg width="20" height="20" viewBox="0 0 20 20" fill="none" xmlns="http://www.w3.org/2000/svg">
<path fill-rule="evenodd" clip-rule="evenodd" d="M0.819195 17.6932C0.366766 18.1456 0.366766 18.8791 0.819195 19.3316C1.27162 19.784 2.00516 19.784 2.45758 19.3316L9.84739 11.9418L17.5424 19.6368C17.9948 20.0892 18.7284 20.0892 19.1808 19.6368C19.6332 19.1844 19.6332 18.4508 19.1808 17.9984L11.4858 10.3034L19.6607 2.12847C20.1131 1.67604 20.1131 0.942507 19.6607 0.490078C19.2083 0.0376498 18.4747 0.0376496 18.0223 0.490078L9.84739 8.66498L1.97771 0.795296C1.52528 0.342867 0.79175 0.342867 0.339322 0.795296C-0.113107 1.24772 -0.113107 1.98126 0.339321 2.43369L8.209 10.3034L0.819195 17.6932Z" fill="#ffffff"/>
</svg>
