<svg width="33" height="32" viewBox="0 0 33 32" fill="none" xmlns="http://www.w3.org/2000/svg">
<path d="M28.9219 28C28.9219 28 28.9219 26.35 28.7844 25.4875C28.6719 24.8062 27.7281 23.9062 23.7156 22.4312C19.7656 20.9812 20.0094 21.6875 20.0094 19.0187C20.0094 17.2875 20.8906 18.2938 21.4531 15.0063C21.6719 13.7125 21.8469 14.575 22.3219 12.5C22.5719 11.4125 22.1531 11.3313 22.2031 10.8125C22.2531 10.2937 22.3031 9.83125 22.3969 8.76875C22.5094 7.45625 21.2906 4 16.9219 4C12.5531 4 11.3344 7.45625 11.4531 8.775C11.5469 9.83125 11.5969 10.3 11.6469 10.8188C11.6969 11.3375 11.2781 11.4188 11.5281 12.5063C12.0031 14.575 12.1781 13.7125 12.3969 15.0125C12.9594 18.3 13.8406 17.2937 13.8406 19.025C13.8406 21.7 14.0844 20.9937 10.1344 22.4375C6.12187 23.9062 5.17188 24.8125 5.06563 25.4937C4.92188 26.35 4.92188 28 4.92188 28H28.9219Z" fill="#CEB96E"/>
</svg>
