<svg width="27" height="28" viewBox="0 0 27 28" fill="none" xmlns="http://www.w3.org/2000/svg">
<path d="M8.25488 22C6.78155 22 5.60155 23.1933 5.60155 24.6667C5.60155 26.14 6.78155 27.3333 8.25488 27.3333C9.72822 27.3333 10.9215 26.14 10.9215 24.6667C10.9215 23.1933 9.72822 22 8.25488 22ZM0.254883 0.666672V3.33334H2.92155L7.71488 13.4467L5.91488 16.7133C5.70822 17.1 5.58822 17.5333 5.58822 18C5.58822 19.4733 6.78155 20.6667 8.25488 20.6667H24.2549V18H8.82155C8.63488 18 8.48822 17.8533 8.48822 17.6667C8.48822 17.6067 8.50155 17.5533 8.52822 17.5067L9.72155 15.3333H19.6549C20.6549 15.3333 21.5282 14.78 21.9882 13.96L26.7549 5.30667C26.8615 5.12 26.9215 4.9 26.9215 4.66667C26.9215 4.31305 26.7811 3.97391 26.531 3.72386C26.281 3.47381 25.9418 3.33334 25.5882 3.33334H5.87488L4.60822 0.666672H0.254883ZM21.5882 22C20.1149 22 18.9349 23.1933 18.9349 24.6667C18.9349 26.14 20.1149 27.3333 21.5882 27.3333C23.0615 27.3333 24.2549 26.14 24.2549 24.6667C24.2549 23.1933 23.0615 22 21.5882 22Z" fill="#543118"/>
</svg>
